<svg width="1480" height="372" viewBox="0 0 1480 372" fill="none" xmlns="http://www.w3.org/2000/svg">
<rect width="370" height="372" fill="#FFF7E8"/>
<path d="M47 52V88H105.5L103.5 43L47 52Z" fill="#82A985"/>
<path d="M47 52V88H105.5L103.5 43L47 52Z" stroke="black" stroke-width="2"/>
<path d="M47 52V88H105.5L103.5 43L47 52Z" stroke="black" stroke-opacity="0.2" stroke-width="2"/>
<path d="M94 130.5L95 168.5H33L35 130L94 130.5Z" fill="#82A985"/>
<path d="M94 130.5L95 168.5H33L35 130L94 130.5Z" stroke="black" stroke-width="2"/>
<path d="M94 130.5L95 168.5H33L35 130L94 130.5Z" stroke="black" stroke-opacity="0.2" stroke-width="2"/>
<path d="M41 200L37 273H102.5L99.5 260.5H152.5L151 161H133.5L130.5 171.5V220L103.5 226L102.5 200H41Z" fill="#82A985"/>
<path d="M41 200L37 273H102.5L99.5 260.5H152.5L151 161H133.5L130.5 171.5V220L103.5 226L102.5 200H41Z" stroke="black" stroke-width="2"/>
<path d="M41 200L37 273H102.5L99.5 260.5H152.5L151 161H133.5L130.5 171.5V220L103.5 226L102.5 200H41Z" stroke="black" stroke-opacity="0.2" stroke-width="2"/>
<path d="M162 43.5L154 80.5H172V118.5H288C288 118.5 288.032 91.1383 280 76.5C272.495 62.8211 264.156 57.6246 251.5 48.5C233.551 35.5601 199.5 26 199.5 26L162 43.5Z" fill="#82A985"/>
<path d="M162 43.5L154 80.5H172V118.5H288C288 118.5 288.032 91.1383 280 76.5C272.495 62.8211 264.156 57.6246 251.5 48.5C233.551 35.5601 199.5 26 199.5 26L162 43.5Z" stroke="black" stroke-width="2"/>
<path d="M162 43.5L154 80.5H172V118.5H288C288 118.5 288.032 91.1383 280 76.5C272.495 62.8211 264.156 57.6246 251.5 48.5C233.551 35.5601 199.5 26 199.5 26L162 43.5Z" stroke="black" stroke-opacity="0.2" stroke-width="2"/>
<path d="M244 234.5L241 221.5L240 161H356.5C356.5 161 354.121 193.057 348 212.5C345.234 221.285 339.5 234.5 339.5 234.5H244Z" fill="#82A985"/>
<path d="M244 234.5L241 221.5L240 161H356.5C356.5 161 354.121 193.057 348 212.5C345.234 221.285 339.5 234.5 339.5 234.5H244Z" stroke="black" stroke-width="2"/>
<path d="M244 234.5L241 221.5L240 161H356.5C356.5 161 354.121 193.057 348 212.5C345.234 221.285 339.5 234.5 339.5 234.5H244Z" stroke="black" stroke-opacity="0.2" stroke-width="2"/>
<path d="M247.5 316L240 280H335L316 327.5L247.5 316Z" fill="#82A985"/>
<path d="M247.5 316L240 280H335L316 327.5L247.5 316Z" stroke="black" stroke-width="2"/>
<path d="M247.5 316L240 280H335L316 327.5L247.5 316Z" stroke="black" stroke-opacity="0.2" stroke-width="2"/>
<path d="M191.5 290H126.5L124 337.5H201.5L191.5 290Z" fill="#82A985"/>
<path d="M191.5 290H126.5L124 337.5H201.5L191.5 290Z" stroke="black" stroke-width="2"/>
<path d="M191.5 290H126.5L124 337.5H201.5L191.5 290Z" stroke="black" stroke-opacity="0.2" stroke-width="2"/>
<rect x="370" width="370" height="372" fill="#FFF7E8"/>
<path d="M451 73V109H509.5L507.5 64L451 73Z" fill="#82A985"/>
<path d="M451 73V109H509.5L507.5 64L451 73Z" stroke="black" stroke-width="2"/>
<path d="M451 73V109H509.5L507.5 64L451 73Z" stroke="black" stroke-opacity="0.2" stroke-width="2"/>
<path d="M481 133.5L482 171.5H420L422 133L481 133.5Z" fill="#82A985"/>
<path d="M481 133.5L482 171.5H420L422 133L481 133.5Z" stroke="black" stroke-width="2"/>
<path d="M481 133.5L482 171.5H420L422 133L481 133.5Z" stroke="black" stroke-opacity="0.2" stroke-width="2"/>
<path d="M428 200L424 273H489.5L486.5 260.5H539.5L538 161H520.5L517.5 171.5V220L490.5 226L489.5 200H428Z" fill="#82A985"/>
<path d="M428 200L424 273H489.5L486.5 260.5H539.5L538 161H520.5L517.5 171.5V220L490.5 226L489.5 200H428Z" stroke="black" stroke-width="2"/>
<path d="M428 200L424 273H489.5L486.5 260.5H539.5L538 161H520.5L517.5 171.5V220L490.5 226L489.5 200H428Z" stroke="black" stroke-opacity="0.2" stroke-width="2"/>
<path d="M529 73.5L521 110.5H539V148.5H655C655 148.5 655.032 121.138 647 106.5C639.495 92.8211 631.156 87.6246 618.5 78.5C600.551 65.5601 566.5 56 566.5 56L529 73.5Z" fill="#82A985"/>
<path d="M529 73.5L521 110.5H539V148.5H655C655 148.5 655.032 121.138 647 106.5C639.495 92.8211 631.156 87.6246 618.5 78.5C600.551 65.5601 566.5 56 566.5 56L529 73.5Z" stroke="black" stroke-width="2"/>
<path d="M529 73.5L521 110.5H539V148.5H655C655 148.5 655.032 121.138 647 106.5C639.495 92.8211 631.156 87.6246 618.5 78.5C600.551 65.5601 566.5 56 566.5 56L529 73.5Z" stroke="black" stroke-opacity="0.2" stroke-width="2"/>
<path d="M582 242.5L579 229.5L578 169H694.5C694.5 169 692.121 201.057 686 220.5C683.234 229.285 677.5 242.5 677.5 242.5H582Z" fill="#82A985"/>
<path d="M582 242.5L579 229.5L578 169H694.5C694.5 169 692.121 201.057 686 220.5C683.234 229.285 677.5 242.5 677.5 242.5H582Z" stroke="black" stroke-width="2"/>
<path d="M582 242.5L579 229.5L578 169H694.5C694.5 169 692.121 201.057 686 220.5C683.234 229.285 677.5 242.5 677.5 242.5H582Z" stroke="black" stroke-opacity="0.2" stroke-width="2"/>
<path d="M595.5 299L588 263H683L664 310.5L595.5 299Z" fill="#82A985"/>
<path d="M595.5 299L588 263H683L664 310.5L595.5 299Z" stroke="black" stroke-width="2"/>
<path d="M595.5 299L588 263H683L664 310.5L595.5 299Z" stroke="black" stroke-opacity="0.2" stroke-width="2"/>
<path d="M568.5 273H503.5L501 320.5H578.5L568.5 273Z" fill="#82A985"/>
<path d="M568.5 273H503.5L501 320.5H578.5L568.5 273Z" stroke="black" stroke-width="2"/>
<path d="M568.5 273H503.5L501 320.5H578.5L568.5 273Z" stroke="black" stroke-opacity="0.2" stroke-width="2"/>
<rect x="740" width="370" height="372" fill="#FFF7E8"/>
<path d="M832 98V134H890.5L888.5 89L832 98Z" fill="#82A985"/>
<path d="M832 98V134H890.5L888.5 89L832 98Z" stroke="black" stroke-width="2"/>
<path d="M832 98V134H890.5L888.5 89L832 98Z" stroke="black" stroke-opacity="0.2" stroke-width="2"/>
<path d="M870 144.5L871 182.5H809L811 144L870 144.5Z" fill="#82A985"/>
<path d="M870 144.5L871 182.5H809L811 144L870 144.5Z" stroke="black" stroke-width="2"/>
<path d="M870 144.5L871 182.5H809L811 144L870 144.5Z" stroke="black" stroke-opacity="0.2" stroke-width="2"/>
<path d="M817 188L813 261H878.5L875.5 248.5H928.5L927 149H909.5L906.5 159.5V208L879.5 214L878.5 188H817Z" fill="#82A985"/>
<path d="M817 188L813 261H878.5L875.5 248.5H928.5L927 149H909.5L906.5 159.5V208L879.5 214L878.5 188H817Z" stroke="black" stroke-width="2"/>
<path d="M817 188L813 261H878.5L875.5 248.5H928.5L927 149H909.5L906.5 159.5V208L879.5 214L878.5 188H817Z" stroke="black" stroke-opacity="0.2" stroke-width="2"/>
<path d="M933 85.5L925 122.5H943V160.5H1059C1059 160.5 1059.03 133.138 1051 118.5C1043.49 104.821 1035.16 99.6246 1022.5 90.5C1004.55 77.5601 970.5 68 970.5 68L933 85.5Z" fill="#82A985"/>
<path d="M933 85.5L925 122.5H943V160.5H1059C1059 160.5 1059.03 133.138 1051 118.5C1043.49 104.821 1035.16 99.6246 1022.5 90.5C1004.55 77.5601 970.5 68 970.5 68L933 85.5Z" stroke="black" stroke-width="2"/>
<path d="M933 85.5L925 122.5H943V160.5H1059C1059 160.5 1059.03 133.138 1051 118.5C1043.49 104.821 1035.16 99.6246 1022.5 90.5C1004.55 77.5601 970.5 68 970.5 68L933 85.5Z" stroke="black" stroke-opacity="0.2" stroke-width="2"/>
<path d="M952 242.5L949 229.5L948 169H1064.5C1064.5 169 1062.12 201.057 1056 220.5C1053.23 229.285 1047.5 242.5 1047.5 242.5H952Z" fill="#82A985"/>
<path d="M952 242.5L949 229.5L948 169H1064.5C1064.5 169 1062.12 201.057 1056 220.5C1053.23 229.285 1047.5 242.5 1047.5 242.5H952Z" stroke="black" stroke-width="2"/>
<path d="M952 242.5L949 229.5L948 169H1064.5C1064.5 169 1062.12 201.057 1056 220.5C1053.23 229.285 1047.5 242.5 1047.5 242.5H952Z" stroke="black" stroke-opacity="0.2" stroke-width="2"/>
<path d="M945.5 287L938 251H1033L1014 298.5L945.5 287Z" fill="#82A985"/>
<path d="M945.5 287L938 251H1033L1014 298.5L945.5 287Z" stroke="black" stroke-width="2"/>
<path d="M945.5 287L938 251H1033L1014 298.5L945.5 287Z" stroke="black" stroke-opacity="0.2" stroke-width="2"/>
<path d="M899.5 268H834.5L832 315.5H909.5L899.5 268Z" fill="#82A985"/>
<path d="M899.5 268H834.5L832 315.5H909.5L899.5 268Z" stroke="black" stroke-width="2"/>
<path d="M899.5 268H834.5L832 315.5H909.5L899.5 268Z" stroke="black" stroke-opacity="0.2" stroke-width="2"/>
<rect x="1110" width="370" height="372" fill="#FFF7E8"/>
<path d="M1189.5 90.5V126.5H1248L1246 81.5L1189.5 90.5Z" fill="#82A985"/>
<path d="M1189.5 90.5V126.5H1248L1246 81.5L1189.5 90.5Z" stroke="black" stroke-width="2"/>
<path d="M1189.5 90.5V126.5H1248L1246 81.5L1189.5 90.5Z" stroke="black" stroke-opacity="0.2" stroke-width="2"/>
<path d="M1248 127.5L1249 165.5H1187L1189 127L1248 127.5Z" fill="#82A985"/>
<path d="M1248 127.5L1249 165.5H1187L1189 127L1248 127.5Z" stroke="black" stroke-width="2"/>
<path d="M1248 127.5L1249 165.5H1187L1189 127L1248 127.5Z" stroke="black" stroke-opacity="0.2" stroke-width="2"/>
<path d="M1187.5 166.5L1183.5 239.5H1249L1246 227H1299L1297.5 127.5H1280L1277 138V186.5L1250 192.5L1249 166.5H1187.5Z" fill="#82A985"/>
<path d="M1187.5 166.5L1183.5 239.5H1249L1246 227H1299L1297.5 127.5H1280L1277 138V186.5L1250 192.5L1249 166.5H1187.5Z" stroke="black" stroke-width="2"/>
<path d="M1187.5 166.5L1183.5 239.5H1249L1246 227H1299L1297.5 127.5H1280L1277 138V186.5L1250 192.5L1249 166.5H1187.5Z" stroke="black" stroke-opacity="0.2" stroke-width="2"/>
<path d="M1288 90.5L1280 127.5H1298V165.5H1414C1414 165.5 1414.03 138.138 1406 123.5C1398.49 109.821 1390.16 104.625 1377.5 95.5C1359.55 82.5601 1325.5 73 1325.5 73L1288 90.5Z" fill="#82A985"/>
<path d="M1288 90.5L1280 127.5H1298V165.5H1414C1414 165.5 1414.03 138.138 1406 123.5C1398.49 109.821 1390.16 104.625 1377.5 95.5C1359.55 82.5601 1325.5 73 1325.5 73L1288 90.5Z" stroke="black" stroke-width="2"/>
<path d="M1288 90.5L1280 127.5H1298V165.5H1414C1414 165.5 1414.03 138.138 1406 123.5C1398.49 109.821 1390.16 104.625 1377.5 95.5C1359.55 82.5601 1325.5 73 1325.5 73L1288 90.5Z" stroke="black" stroke-opacity="0.2" stroke-width="2"/>
<path d="M1302 239L1299 226L1298 165.5H1414.5C1414.5 165.5 1412.12 197.557 1406 217C1403.23 225.785 1397.5 239 1397.5 239H1302Z" fill="#82A985"/>
<path d="M1302 239L1299 226L1298 165.5H1414.5C1414.5 165.5 1412.12 197.557 1406 217C1403.23 225.785 1397.5 239 1397.5 239H1302Z" stroke="black" stroke-width="2"/>
<path d="M1302 239L1299 226L1298 165.5H1414.5C1414.5 165.5 1412.12 197.557 1406 217C1403.23 225.785 1397.5 239 1397.5 239H1302Z" stroke="black" stroke-opacity="0.2" stroke-width="2"/>
<path d="M1310 275.5L1302.5 239.5H1397.5L1378.5 287L1310 275.5Z" fill="#82A985"/>
<path d="M1310 275.5L1302.5 239.5H1397.5L1378.5 287L1310 275.5Z" stroke="black" stroke-width="2"/>
<path d="M1310 275.5L1302.5 239.5H1397.5L1378.5 287L1310 275.5Z" stroke="black" stroke-opacity="0.2" stroke-width="2"/>
<path d="M1248.5 240.5H1183.5L1181 288H1258.5L1248.5 240.5Z" fill="#82A985"/>
<path d="M1248.5 240.5H1183.5L1181 288H1258.5L1248.5 240.5Z" stroke="black" stroke-width="2"/>
<path d="M1248.5 240.5H1183.5L1181 288H1258.5L1248.5 240.5Z" stroke="black" stroke-opacity="0.2" stroke-width="2"/>
</svg>
