<svg width="159" height="191" viewBox="0 0 159 191" fill="none" xmlns="http://www.w3.org/2000/svg">
<path d="M49.4241 10.4745L1.26758 186.618C1.26758 186.618 28.8057 190.186 42.6415 189.992C56.4773 189.799 77.9111 186.618 77.9111 186.618C77.9111 186.618 84.782 175.16 91.4763 170.421C98.1705 165.682 111.146 162.997 111.146 162.997L102.328 182.569C102.328 182.569 107.579 185.335 111.146 186.618C114.712 187.901 146 190.059 149.807 186.618C153.614 183.177 157.268 175.82 157.268 175.82L143.024 99.5585C143.024 99.5585 136.644 73.6069 128.102 59.0658C119.56 44.5247 91.4763 19.9228 91.4763 19.9228C91.4763 19.9228 73.0132 0.184924 65.7024 1.02615C58.3915 1.86737 49.4241 10.4745 49.4241 10.4745Z" fill="#2C3872" stroke="black" stroke-width="2"/>
<path d="M73.5465 37C73.5465 37 68.3512 87.7138 78.903 106.099C89.4547 124.485 107.479 150.732 120.416 141.3C133.353 131.869 126.882 116.613 125.103 100.786C123.324 84.9581 117.404 71.4779 108.364 57.6151C99.3232 43.7524 73.5465 37 73.5465 37Z" fill="#2C3872" stroke="black" stroke-width="2"/>
</svg>
