<svg width="22243" height="238" viewBox="0 0 22243 238" fill="none" xmlns="http://www.w3.org/2000/svg">
<rect width="7415" height="238" fill="#2C3872"/>
<path d="M6393.24 78.1633L6367 174.157C6367 174.157 6382 176.101 6389.54 175.996C6397.08 175.89 6408.76 174.157 6408.76 174.157C6408.76 174.157 6412.5 167.912 6416.15 165.33C6419.8 162.747 6426.87 161.284 6426.87 161.284L6422.07 171.95C6422.07 171.95 6424.93 173.458 6426.87 174.157C6428.81 174.856 6445.86 176.032 6447.93 174.157C6450.01 172.282 6452 168.272 6452 168.272L6444.24 126.712C6444.24 126.712 6440.76 112.569 6436.11 104.644C6431.45 96.7198 6416.15 83.3124 6416.15 83.3124C6416.15 83.3124 6406.09 72.5558 6402.11 73.0142C6398.13 73.4727 6393.24 78.1633 6393.24 78.1633Z" fill="#B44B47" stroke="black" stroke-width="2"/>
<path d="M6405.71 90C6405.71 90 6402.84 118.083 6408.66 128.265C6414.49 138.446 6424.43 152.98 6431.58 147.758C6438.72 142.535 6435.14 134.087 6434.16 125.322C6433.18 116.557 6429.91 109.093 6424.92 101.416C6419.93 93.7392 6405.71 90 6405.71 90Z" fill="#B44B47" stroke="black" stroke-width="2"/>
<path d="M6081 169.089L6082.92 88.8222L6108.16 92.3714L6112.82 127.317H6125.44L6129.55 92.3714L6154.24 85L6160 171L6125.44 169.089L6129.55 137.692H6112.82L6104.59 169.089H6081Z" fill="#B44B47" stroke="black" stroke-width="2"/>
<path d="M6275 169.089L6276.92 88.8222L6302.16 92.3714L6306.82 127.317H6319.44L6323.55 92.3714L6348.24 85L6354 171L6319.44 169.089L6323.55 137.692H6306.82L6298.59 169.089H6275Z" fill="#B44B47" stroke="black" stroke-width="2"/>
<path d="M6199.77 87.9098L6190.03 107.376C6190.03 107.376 6186.73 112.762 6185.65 116.697C6183.18 125.679 6188.57 140.549 6188.57 140.549L6193.44 161.386L6210.49 168.514C6210.49 168.514 6227.13 174.107 6235.57 168.514C6241.22 164.774 6246.28 153.984 6246.28 153.984L6252.37 135.614L6257 112.31C6257 112.31 6246.39 93.4842 6235.57 87.9098C6222.86 81.3627 6199.77 87.9098 6199.77 87.9098Z" fill="#B44B47" stroke="black" stroke-width="2"/>
<path d="M6207 131.675L6212.11 118.241L6219.66 107L6233.79 108.645L6235.49 133.046L6228.92 149.496L6210.41 146.206L6207 131.675Z" fill="#B44B47" stroke="black" stroke-width="2"/>
<path d="M5126.24 84.1633L5100 180.157C5100 180.157 5115 182.101 5122.54 181.996C5130.08 181.89 5141.76 180.157 5141.76 180.157C5141.76 180.157 5145.5 173.912 5149.15 171.33C5152.8 168.747 5159.87 167.284 5159.87 167.284L5155.07 177.95C5155.07 177.95 5157.93 179.458 5159.87 180.157C5161.81 180.856 5178.86 182.032 5180.93 180.157C5183.01 178.282 5185 174.272 5185 174.272L5177.24 132.712C5177.24 132.712 5173.76 118.569 5169.11 110.644C5164.45 102.72 5149.15 89.3124 5149.15 89.3124C5149.15 89.3124 5139.09 78.5558 5135.11 79.0142C5131.13 79.4727 5126.24 84.1633 5126.24 84.1633Z" fill="#B44B47" stroke="black" stroke-width="2"/>
<path d="M5138.71 97C5138.71 97 5135.84 125.083 5141.66 135.265C5147.49 145.446 5157.43 159.98 5164.58 154.758C5171.72 149.535 5168.14 141.087 5167.16 132.322C5166.18 123.557 5162.91 116.093 5157.92 108.416C5152.93 100.739 5138.71 97 5138.71 97Z" fill="#B44B47" stroke="black" stroke-width="2"/>
<path d="M5320.24 84.1633L5294 180.157C5294 180.157 5309 182.101 5316.54 181.996C5324.08 181.89 5335.76 180.157 5335.76 180.157C5335.76 180.157 5339.5 173.912 5343.15 171.33C5346.8 168.747 5353.87 167.284 5353.87 167.284L5349.07 177.95C5349.07 177.95 5351.93 179.458 5353.87 180.157C5355.81 180.856 5372.86 182.032 5374.93 180.157C5377.01 178.282 5379 174.272 5379 174.272L5371.24 132.712C5371.24 132.712 5367.76 118.569 5363.11 110.644C5358.45 102.72 5343.15 89.3124 5343.15 89.3124C5343.15 89.3124 5333.09 78.5558 5329.11 79.0142C5325.13 79.4727 5320.24 84.1633 5320.24 84.1633Z" fill="#B44B47" stroke="black" stroke-width="2"/>
<path d="M5331.71 97C5331.71 97 5328.84 125.083 5334.66 135.265C5340.49 145.446 5350.43 159.98 5357.58 154.758C5364.72 149.535 5361.14 141.087 5360.16 132.322C5359.18 123.557 5355.91 116.093 5350.92 108.416C5345.93 100.739 5331.71 97 5331.71 97Z" fill="#B44B47" stroke="black" stroke-width="2"/>
<path d="M5519 89L5527.75 183.852L5601 191L5594.99 168.181L5549.89 172.03V150.035L5567.65 146.461V134.639L5545.79 140.687L5542.78 119.518H5591.71L5601 96.1482L5519 89Z" fill="#B44B47" stroke="black" stroke-width="2"/>
<path d="M5400 187V96.0511L5427.07 87.9131V114.712L5472.17 79L5491.71 96.0511L5433.08 131.793L5506 156.147V187L5427.07 163.45V187H5400Z" fill="#B44B47" stroke="black" stroke-width="2"/>
<path d="M5658.24 93L5619 191H5651.33L5678.69 137.294L5685.6 191H5716V172.175H5701.63L5685.6 93H5658.24Z" fill="#B44B47" stroke="black" stroke-width="2"/>
<path d="M5849 188.733L5850.92 93.5333L5876.16 97.7429L5880.82 139.19H5893.44L5897.55 97.7429L5922.24 89L5928 191L5893.44 188.733L5897.55 151.495H5880.82L5872.59 188.733H5849Z" fill="#B44B47" stroke="black" stroke-width="2"/>
<path d="M5210.13 89.724L5200 177.591L5219.66 182V130.666C5219.66 130.666 5240.68 143.858 5255.1 142.318C5271.32 140.586 5286.56 135.726 5290.54 119.013C5293.83 105.235 5278.33 85 5278.33 85L5210.13 89.724Z" fill="#B44B47" stroke="black" stroke-width="2"/>
<path d="M5231 123.54L5233.38 109.368C5233.38 109.368 5239.81 108.54 5243.81 109.368C5252.55 111.179 5262.27 123.54 5262.27 123.54H5231Z" fill="#B44B47" stroke="black" stroke-width="2"/>
<path d="M5824 102.293V186.576L5799.84 191L5804.31 159.145L5783.06 186.576L5741 182.594L5795.36 143.66H5768.52L5756.21 119.548C5756.21 119.548 5759.73 100.181 5768.52 92.5599C5785.07 78.2169 5824 102.293 5824 102.293Z" fill="#B44B47" stroke="black" stroke-width="2"/>
<path d="M5774.39 126.042L5792.29 130.908L5807.28 126.042L5804.82 116.529L5792.29 109.451C5792.29 109.451 5782.37 106.187 5777.75 109.451C5772.31 113.291 5774.39 126.042 5774.39 126.042Z" fill="#B44B47" stroke="black" stroke-width="2"/>
<path d="M3812 68L3820.75 162.852L3894 170L3887.99 147.181L3842.89 151.03V129.035L3860.65 125.461V113.639L3838.79 119.687L3835.78 98.5175H3884.71L3894 75.1482L3812 68Z" fill="#B44B47" stroke="black" stroke-width="2"/>
<path d="M3588.59 76.5672H3553.77L3591.6 131.881L3545 174H3576.06L3611.39 131.881L3618.4 174L3659.49 167.91L3631.18 121.224L3666 72H3644.96L3611.39 102.701L3588.59 76.5672Z" fill="#B44B47" stroke="black" stroke-width="2"/>
<path d="M3419.44 170L3412 82.4564H3430.46L3443.68 137.413L3472.6 123.052L3468.19 75H3486.1L3531 170H3495.74L3486.1 140.451L3443.68 170H3419.44Z" fill="#B44B47" stroke="black" stroke-width="2"/>
<path d="M3306.68 83.8214L3297 173.5L3315.79 178V125.607C3315.79 125.607 3335.89 139.072 3349.68 137.5C3365.18 135.732 3379.76 130.772 3383.56 113.714C3386.7 99.6527 3371.89 79 3371.89 79L3306.68 83.8214Z" fill="#B44B47" stroke="black" stroke-width="2"/>
<path d="M3327 117.84L3329.28 103.375C3329.28 103.375 3335.42 102.531 3339.24 103.375C3347.6 105.224 3356.9 117.84 3356.9 117.84H3327Z" fill="#B44B47" stroke="black" stroke-width="2"/>
<path d="M3926.46 77.724L3917 165.591L3935.36 170V118.666C3935.36 118.666 3955 131.858 3968.47 130.318C3983.62 128.586 3997.85 123.726 4001.57 107.013C4004.64 93.2355 3990.17 73 3990.17 73L3926.46 77.724Z" fill="#B44B47" stroke="black" stroke-width="2"/>
<path d="M3946 110.54L3948.23 96.3678C3948.23 96.3678 3954.23 95.5402 3957.96 96.3678C3966.13 98.1794 3975.21 110.54 3975.21 110.54H3946Z" fill="#B44B47" stroke="black" stroke-width="2"/>
<path d="M3681 95.1212L3690.26 111.855L3718.77 113.505L3727.32 163H3754.64L3740.15 117.747L3786 122.697L3779.11 93L3681 95.1212Z" fill="#B44B47" stroke="black" stroke-width="2"/>
<path d="M4296.24 78.1633L4270 174.157C4270 174.157 4285 176.101 4292.54 175.996C4300.08 175.89 4311.76 174.157 4311.76 174.157C4311.76 174.157 4315.5 167.912 4319.15 165.33C4322.8 162.747 4329.87 161.284 4329.87 161.284L4325.07 171.95C4325.07 171.95 4327.93 173.458 4329.87 174.157C4331.81 174.856 4348.86 176.032 4350.93 174.157C4353.01 172.282 4355 168.272 4355 168.272L4347.24 126.712C4347.24 126.712 4343.76 112.569 4339.11 104.644C4334.45 96.7198 4319.15 83.3124 4319.15 83.3124C4319.15 83.3124 4309.09 72.5558 4305.11 73.0142C4301.13 73.4727 4296.24 78.1633 4296.24 78.1633Z" fill="#B44B47" stroke="black" stroke-width="2"/>
<path d="M4308.71 93C4308.71 93 4305.84 121.083 4311.66 131.265C4317.49 141.446 4327.43 155.98 4334.58 150.758C4341.72 145.535 4338.14 137.087 4337.16 128.322C4336.18 119.557 4332.91 112.093 4327.92 104.416C4322.93 96.7392 4308.71 93 4308.71 93Z" fill="#B44B47" stroke="black" stroke-width="2"/>
<path d="M4821.24 78.1633L4795 174.157C4795 174.157 4810 176.101 4817.54 175.996C4825.08 175.89 4836.76 174.157 4836.76 174.157C4836.76 174.157 4840.5 167.912 4844.15 165.33C4847.8 162.747 4854.87 161.284 4854.87 161.284L4850.07 171.95C4850.07 171.95 4852.93 173.458 4854.87 174.157C4856.81 174.856 4873.86 176.032 4875.93 174.157C4878.01 172.282 4880 168.272 4880 168.272L4872.24 126.712C4872.24 126.712 4868.76 112.569 4864.11 104.644C4859.45 96.7198 4844.15 83.3124 4844.15 83.3124C4844.15 83.3124 4834.09 72.5558 4830.11 73.0142C4826.13 73.4727 4821.24 78.1633 4821.24 78.1633Z" fill="#B44B47" stroke="black" stroke-width="2"/>
<path d="M4833.71 90C4833.71 90 4830.84 118.083 4836.66 128.265C4842.49 138.446 4852.43 152.98 4859.58 147.758C4866.72 142.535 4863.14 134.087 4862.16 125.322C4861.18 116.557 4857.91 109.093 4852.92 101.416C4847.93 93.7392 4833.71 90 4833.71 90Z" fill="#B44B47" stroke="black" stroke-width="2"/>
<path d="M4133 176V85.0511L4160.07 76.9131V103.712L4205.17 68L4224.71 85.0511L4166.08 120.793L4239 145.147V176L4160.07 152.45V176H4133Z" fill="#B44B47" stroke="black" stroke-width="2"/>
<path d="M4534.44 176L4527 88.4564H4545.46L4558.68 143.413L4587.6 129.052L4583.19 81H4601.1L4646 176H4610.74L4601.1 146.451L4558.68 176H4534.44Z" fill="#B44B47" stroke="black" stroke-width="2"/>
<path d="M4706.24 78L4667 176H4699.33L4726.69 122.294L4733.6 176H4764V157.175H4749.63L4733.6 78H4706.24Z" fill="#B44B47" stroke="black" stroke-width="2"/>
<path d="M4388.57 84L4378 176L4400.11 171.027L4409.7 116.324L4432.6 146.162L4462.54 129.725V171.027H4496L4481.13 88.1441H4456.47L4432.6 122.402L4424.18 88.1441L4388.57 84Z" fill="#B44B47" stroke="black" stroke-width="2"/>
<path d="M7240.48 108.262V127.457L7228.53 124.204L7227 101.592L7235.9 92.3202L7254.59 85H7286.76L7299.23 114.281V145.514L7286.76 166.01L7308 169.426V180H7289.82H7267.56H7247.09L7267.56 159.503L7283.59 137.543V108.262L7262.86 101.592L7240.48 108.262Z" fill="#FFF7E8"/>
<path d="M7240.48 108.262V127.457L7228.53 124.204L7227 101.592L7235.9 92.3202L7254.59 85H7286.76L7299.23 114.281V145.514L7286.76 166.01L7308 169.426V180H7289.82H7267.56H7247.09L7267.56 159.503L7283.59 137.543V108.262L7262.86 101.592L7240.48 108.262Z" stroke="black" stroke-width="2"/>
<path d="M7240.48 108.262V127.457L7228.53 124.204L7227 101.592L7235.9 92.3202L7254.59 85H7286.76L7299.23 114.281V145.514L7286.76 166.01L7308 169.426V180H7289.82H7267.56H7247.09L7267.56 159.503L7283.59 137.543V108.262L7262.86 101.592L7240.48 108.262Z" stroke="black" stroke-opacity="0.2" stroke-width="2"/>
<path d="M6659 81L6665.66 175.891L6723.35 181L6757 172.606L6748.86 129.905L6734.81 126.62C6734.81 126.62 6705.57 144.665 6690.8 136.839C6676.03 129.014 6674.16 97.7883 6674.16 97.7883L6748.86 109.467V86.8394L6659 81Z" fill="#FFF7E8" stroke="black" stroke-width="2"/>
<path d="M6730.16 142.554C6723.7 139.181 6702.23 152.175 6697.98 155.328C6693.74 158.481 6688 164.452 6688 164.452L6727.94 166.642C6727.94 166.642 6740.27 163.459 6741.62 157.153C6742.97 150.847 6736.62 145.928 6730.16 142.554Z" fill="#FFF7E8" stroke="black" stroke-width="2"/>
<path d="M6850.9 89.1287L6830.96 187.491L6805.73 174.075L6812.15 128.442L6777.48 104.402L6786.63 87.1868L6819.12 115.325L6830.01 78.0197L6850.9 89.1287Z" fill="#FFF7E8" stroke="black" stroke-width="2"/>
<path d="M6872 186V95.0511L6899.07 86.9131V113.712L6944.17 78L6963.71 95.0511L6905.08 130.793L6978 155.147V186L6899.07 162.45V186H6872Z" fill="#FFF7E8" stroke="black" stroke-width="2"/>
<path d="M7009.44 180L7002 92.4564H7020.46L7033.68 147.413L7062.6 133.052L7058.19 85H7076.1L7121 180H7085.74L7076.1 150.451L7033.68 180H7009.44Z" fill="#FFF7E8" stroke="black" stroke-width="2"/>
<path d="M7147.21 88.2143L7136.52 109.717C7136.52 109.717 7132.9 115.668 7131.71 120.014C7129 129.937 7134.92 146.363 7134.92 146.363L7140.26 169.38L7158.97 177.254C7158.97 177.254 7177.22 183.432 7186.49 177.254C7192.68 173.122 7198.24 161.203 7198.24 161.203L7204.92 140.911L7210 115.169C7210 115.169 7198.36 94.372 7186.49 88.2143C7172.54 80.9821 7147.21 88.2143 7147.21 88.2143Z" fill="#FFF7E8" stroke="black" stroke-width="2"/>
<path d="M7155 137.257L7160.61 122.417L7168.89 110L7184.39 111.817L7186.26 138.771L7179.05 156.943L7158.74 153.308L7155 137.257Z" fill="#FFF7E8" stroke="black" stroke-width="2"/>
<path d="M1988.24 78.1633L1962 174.157C1962 174.157 1977 176.101 1984.54 175.996C1992.08 175.89 2003.76 174.157 2003.76 174.157C2003.76 174.157 2007.5 167.912 2011.15 165.33C2014.8 162.747 2021.87 161.284 2021.87 161.284L2017.07 171.95C2017.07 171.95 2019.93 173.458 2021.87 174.157C2023.81 174.856 2040.86 176.032 2042.93 174.157C2045.01 172.282 2047 168.272 2047 168.272L2039.24 126.712C2039.24 126.712 2035.76 112.569 2031.11 104.644C2026.45 96.7198 2011.15 83.3124 2011.15 83.3124C2011.15 83.3124 2001.09 72.5558 1997.11 73.0142C1993.13 73.4727 1988.24 78.1633 1988.24 78.1633Z" fill="#F5DE91" stroke="black" stroke-width="2"/>
<path d="M2000.71 91C2000.71 91 1997.84 119.083 2003.66 129.265C2009.49 139.446 2019.43 153.98 2026.58 148.758C2033.72 143.535 2030.14 135.087 2029.16 126.322C2028.18 117.557 2024.91 110.093 2019.92 102.416C2014.93 94.7392 2000.71 91 2000.71 91Z" fill="#F5DE91" stroke="black" stroke-width="2"/>
<path d="M1217 174L1222.68 78.4806L1261.3 73L1295 86.3101L1286.67 108.624L1273.42 117.628L1254.86 125.457H1295V141.508V174H1217Z" fill="#F5DE91" stroke="black" stroke-width="2"/>
<path d="M1240 107.876V93H1254.39H1267.64L1260.83 107.876H1240Z" fill="#F5DE91"/>
<path d="M1254.39 159.942L1240 148.589L1250.6 140.76H1280.14L1286.19 148.589L1254.39 159.942Z" fill="#F5DE91"/>
<path d="M1240 107.876V93H1254.39H1267.64L1260.83 107.876H1240Z" stroke="black" stroke-width="2"/>
<path d="M1254.39 159.942L1240 148.589L1250.6 140.76H1280.14L1286.19 148.589L1254.39 159.942Z" stroke="black" stroke-width="2"/>
<path d="M1322 75L1330.75 169.852L1404 177L1397.99 154.181L1352.89 158.03V136.035L1370.65 132.461V120.639L1348.79 126.687L1345.78 105.518H1394.71L1404 82.1482L1322 75Z" fill="#F5DE91" stroke="black" stroke-width="2"/>
<path d="M1843 175V84.0511L1870.07 75.9131V102.712L1915.17 67L1934.71 84.0511L1876.08 119.793L1949 144.147V175L1870.07 151.45V175H1843Z" fill="#F5DE91" stroke="black" stroke-width="2"/>
<path d="M1718.44 173L1711 85.4564H1729.46L1742.68 140.413L1771.6 126.052L1767.19 78H1785.1L1830 173H1794.74L1785.1 143.451L1742.68 173H1718.44Z" fill="#F5DE91" stroke="black" stroke-width="2"/>
<path d="M1619 172.089L1620.92 91.8222L1646.16 95.3714L1650.82 130.317H1663.44L1667.55 95.3714L1692.24 88L1698 174L1663.44 172.089L1667.55 140.692H1650.82L1642.59 172.089H1619Z" fill="#F5DE91" stroke="black" stroke-width="2"/>
<path d="M1529.77 90.9098L1520.03 110.376C1520.03 110.376 1516.73 115.762 1515.65 119.697C1513.18 128.679 1518.57 143.549 1518.57 143.549L1523.44 164.386L1540.49 171.514C1540.49 171.514 1557.13 177.107 1565.57 171.514C1571.22 167.774 1576.28 156.984 1576.28 156.984L1582.37 138.614L1587 115.31C1587 115.31 1576.39 96.4842 1565.57 90.9098C1552.86 84.3627 1529.77 90.9098 1529.77 90.9098Z" fill="#F5DE91" stroke="black" stroke-width="2"/>
<path d="M1537 134.675L1542.11 121.241L1549.66 110L1563.79 111.645L1565.49 136.046L1558.92 152.496L1540.41 149.206L1537 134.675Z" fill="#F5DE91" stroke="black" stroke-width="2"/>
<path d="M1426.46 80.724L1417 168.591L1435.36 173V121.666C1435.36 121.666 1455 134.858 1468.47 133.318C1483.62 131.586 1497.85 126.726 1501.57 110.013C1504.64 96.2355 1490.17 76 1490.17 76L1426.46 80.724Z" fill="#F5DE91" stroke="black" stroke-width="2"/>
<path d="M1447 113.54L1449.23 99.3678C1449.23 99.3678 1455.23 98.5402 1458.96 99.3678C1467.13 101.179 1476.21 113.54 1476.21 113.54H1447Z" fill="#F5DE91" stroke="black" stroke-width="2"/>
<path d="M2567.24 84.1633L2541 180.157C2541 180.157 2556 182.101 2563.54 181.996C2571.08 181.89 2582.76 180.157 2582.76 180.157C2582.76 180.157 2586.5 173.912 2590.15 171.33C2593.8 168.747 2600.87 167.284 2600.87 167.284L2596.07 177.95C2596.07 177.95 2598.93 179.458 2600.87 180.157C2602.81 180.856 2619.86 182.032 2621.93 180.157C2624.01 178.282 2626 174.272 2626 174.272L2618.24 132.712C2618.24 132.712 2614.76 118.569 2610.11 110.644C2605.45 102.72 2590.15 89.3124 2590.15 89.3124C2590.15 89.3124 2580.09 78.5558 2576.11 79.0142C2572.13 79.4727 2567.24 84.1633 2567.24 84.1633Z" fill="#FFF7E8" stroke="black" stroke-width="2"/>
<path d="M2579.71 99C2579.71 99 2576.84 127.083 2582.66 137.265C2588.49 147.446 2598.43 161.98 2605.58 156.758C2612.72 151.535 2609.14 143.087 2608.16 134.322C2607.18 125.557 2603.91 118.093 2598.92 110.416C2593.93 102.739 2579.71 99 2579.71 99Z" fill="#FFF7E8" stroke="black" stroke-width="2"/>
<path d="M2972 182.222V96.4444L2992.18 86L2996.18 140.444L3041.87 142.222L3043.86 157.556V178L3016.58 186L2972 182.222Z" fill="#FFF7E8"/>
<path d="M3060.06 182.222L3057.17 88.2222H3071.81L3090 182.222H3060.06Z" fill="#FFF7E8"/>
<path d="M2972 182.222V96.4444L2992.18 86L2996.18 140.444L3041.87 142.222L3043.86 157.556V178L3016.58 186L2972 182.222Z" stroke="black" stroke-width="2"/>
<path d="M3060.06 182.222L3057.17 88.2222H3071.81L3090 182.222H3060.06Z" stroke="black" stroke-width="2"/>
<path d="M2994 172.667L2997.55 158L3026.16 160L3022.83 172.667H2994Z" fill="#FFF7E8" stroke="black" stroke-width="2"/>
<path d="M2412.61 95.0446L2396.13 188.058L2370.42 174.383L2375.22 131.132L2339.69 107.001L2348.24 90.9227L2381.74 118.881L2391.31 83.7217L2412.61 95.0446Z" fill="#FFF7E8" stroke="black" stroke-width="2"/>
<path d="M2230 182V91.0511L2257.07 82.9131V109.712L2302.17 74L2321.71 91.0511L2263.08 126.793L2336 151.147V182L2257.07 158.45V182H2230Z" fill="#FFF7E8" stroke="black" stroke-width="2"/>
<path d="M2787.77 95.9098L2778.03 115.376C2778.03 115.376 2774.73 120.762 2773.65 124.697C2771.18 133.679 2776.57 148.549 2776.57 148.549L2781.44 169.386L2798.49 176.514C2798.49 176.514 2815.13 182.107 2823.57 176.514C2829.22 172.774 2834.28 161.984 2834.28 161.984L2840.37 143.614L2845 120.31C2845 120.31 2834.39 101.484 2823.57 95.9098C2810.86 89.3627 2787.77 95.9098 2787.77 95.9098Z" fill="#FFF7E8" stroke="black" stroke-width="2"/>
<path d="M2795 140.675L2800.11 127.241L2807.66 116L2821.79 117.645L2823.49 142.046L2816.92 158.496L2798.41 155.206L2795 140.675Z" fill="#FFF7E8" stroke="black" stroke-width="2"/>
<path d="M2447.46 90.5292L2438 174.773L2456.36 179V129.782C2456.36 129.782 2476 142.431 2489.47 140.955C2504.62 139.294 2518.85 134.634 2522.57 118.61C2525.64 105.401 2511.17 86 2511.17 86L2447.46 90.5292Z" fill="#FFF7E8" stroke="black" stroke-width="2"/>
<path d="M2467 120.94L2469.23 107.353C2469.23 107.353 2475.23 106.559 2478.96 107.353C2487.13 109.09 2496.21 120.94 2496.21 120.94H2467Z" fill="#FFF7E8" stroke="black" stroke-width="2"/>
<path d="M2878.46 97.1396L2869 174.136L2887.36 178V133.016C2887.36 133.016 2907 144.577 2920.47 143.227C2935.62 141.71 2949.85 137.45 2953.57 122.805C2956.64 110.732 2942.17 93 2942.17 93L2878.46 97.1396Z" fill="#FFF7E8" stroke="black" stroke-width="2"/>
<path d="M2897 125.741L2899.23 113.322C2899.23 113.322 2905.23 112.597 2908.96 113.322C2917.13 114.91 2926.21 125.741 2926.21 125.741H2897Z" fill="#FFF7E8" stroke="black" stroke-width="2"/>
<path d="M2644 103.121L2653.26 119.855L2681.77 121.505L2690.32 171H2717.64L2703.15 125.747L2749 130.697L2742.11 101L2644 103.121Z" fill="#FFF7E8" stroke="black" stroke-width="2"/>
<path d="M980.239 72.1633L954 168.157C954 168.157 969.005 170.101 976.543 169.996C984.082 169.89 995.761 168.157 995.761 168.157C995.761 168.157 999.505 161.912 1003.15 159.33C1006.8 156.747 1013.87 155.284 1013.87 155.284L1009.07 165.95C1009.07 165.95 1011.93 167.458 1013.87 168.157C1015.81 168.856 1032.86 170.032 1034.93 168.157C1037.01 166.282 1039 162.272 1039 162.272L1031.24 120.712C1031.24 120.712 1027.76 106.569 1023.11 98.6443C1018.45 90.7198 1003.15 77.3124 1003.15 77.3124C1003.15 77.3124 993.092 66.5558 989.109 67.0142C985.125 67.4727 980.239 72.1633 980.239 72.1633Z" fill="#F5DE91" stroke="black" stroke-width="2"/>
<path d="M992.706 86C992.706 86 989.838 114.083 995.662 124.265C1001.49 134.446 1011.43 148.98 1018.58 143.758C1025.72 138.535 1022.14 130.087 1021.16 121.322C1020.18 112.557 1016.91 105.093 1011.92 97.4159C1006.93 89.7392 992.706 86 992.706 86Z" fill="#F5DE91" stroke="black" stroke-width="2"/>
<path d="M849 169L854.68 73.4806L893.301 68L927 81.3101L918.67 103.624L905.417 112.628L886.864 120.457H927V136.508V169H849Z" fill="#F5DE91" stroke="black" stroke-width="2"/>
<path d="M873 102.876V88H887.388H900.641L893.825 102.876H873Z" fill="#F5DE91"/>
<path d="M887.388 154.942L873 143.589L883.602 135.76H913.136L919.194 143.589L887.388 154.942Z" fill="#F5DE91"/>
<path d="M873 102.876V88H887.388H900.641L893.825 102.876H873Z" stroke="black" stroke-width="2"/>
<path d="M887.388 154.942L873 143.589L883.602 135.76H913.136L919.194 143.589L887.388 154.942Z" stroke="black" stroke-width="2"/>
<path d="M100 169V78.0511L127.066 69.9131V96.7118L172.175 61L191.708 78.0511L133.08 113.793L206 138.147V169L127.066 145.45V169H100Z" fill="#F5DE91" stroke="black" stroke-width="2"/>
<path d="M386.242 71L347 169H379.333L406.692 115.294L413.601 169H444V150.175H429.63L413.601 71H386.242Z" fill="#F5DE91" stroke="black" stroke-width="2"/>
<path d="M262.772 85.9098L253.031 105.376C253.031 105.376 249.73 110.762 248.648 114.697C246.177 123.679 251.57 138.549 251.57 138.549L256.44 159.386L273.487 166.514C273.487 166.514 290.128 172.107 298.57 166.514C304.216 162.774 309.285 151.984 309.285 151.984L315.373 133.614L320 110.31C320 110.31 309.394 91.4842 298.57 85.9098C285.857 79.3627 262.772 85.9098 262.772 85.9098Z" fill="#F5DE91" stroke="black" stroke-width="2"/>
<path d="M270 129.675L275.114 116.241L282.663 105L296.788 106.645L298.492 131.046L291.917 147.496L273.409 144.206L270 129.675Z" fill="#F5DE91" stroke="black" stroke-width="2"/>
<path d="M764.772 89.9098L755.031 109.376C755.031 109.376 751.73 114.762 750.648 118.697C748.177 127.679 753.57 142.549 753.57 142.549L758.44 163.386L775.487 170.514C775.487 170.514 792.128 176.107 800.57 170.514C806.216 166.774 811.285 155.984 811.285 155.984L817.373 137.614L822 114.31C822 114.31 811.394 95.4842 800.57 89.9098C787.857 83.3627 764.772 89.9098 764.772 89.9098Z" fill="#F5DE91" stroke="black" stroke-width="2"/>
<path d="M772 133.675L777.114 120.241L784.663 109L798.788 110.645L800.492 135.046L793.917 151.496L775.409 148.206L772 133.675Z" fill="#F5DE91" stroke="black" stroke-width="2"/>
<path d="M618.167 153.758L599 62.2227L612.69 57L629.667 126.27H676.488V62.2227H707.976V144.687L737 173H702.5L696.476 153.758H618.167Z" fill="#F5DE91" stroke="black" stroke-width="2"/>
<path d="M486.192 165.714L478 83.8351L495.269 71L506.56 127.43L544.639 124.111L567 145.134L531.799 177L486.192 165.714Z" fill="#F5DE91" stroke="black" stroke-width="2"/>
<path d="M513.871 156.827L509 149.081L516.749 144.877L540.438 142V151.516L513.871 156.827Z" fill="#F5DE91" stroke="black" stroke-width="2"/>
<rect x="7413" width="7415" height="238" fill="#2C3872"/>
<path d="M13806.2 78.1633L13780 174.157C13780 174.157 13795 176.101 13802.5 175.996C13810.1 175.89 13821.8 174.157 13821.8 174.157C13821.8 174.157 13825.5 167.912 13829.2 165.33C13832.8 162.747 13839.9 161.284 13839.9 161.284L13835.1 171.95C13835.1 171.95 13837.9 173.458 13839.9 174.157C13841.8 174.856 13858.9 176.032 13860.9 174.157C13863 172.282 13865 168.272 13865 168.272L13857.2 126.712C13857.2 126.712 13853.8 112.569 13849.1 104.644C13844.5 96.7198 13829.2 83.3124 13829.2 83.3124C13829.2 83.3124 13819.1 72.5558 13815.1 73.0142C13811.1 73.4727 13806.2 78.1633 13806.2 78.1633Z" fill="#B44B47" stroke="black" stroke-width="2"/>
<path d="M13818.7 90C13818.7 90 13815.8 118.083 13821.7 128.265C13827.5 138.446 13837.4 152.98 13844.6 147.758C13851.7 142.535 13848.1 134.087 13847.2 125.322C13846.2 116.557 13842.9 109.093 13837.9 101.416C13832.9 93.7392 13818.7 90 13818.7 90Z" fill="#B44B47" stroke="black" stroke-width="2"/>
<path d="M13494 169.089L13495.9 88.8222L13521.2 92.3714L13525.8 127.317H13538.4L13542.6 92.3714L13567.2 85L13573 171L13538.4 169.089L13542.6 137.692H13525.8L13517.6 169.089H13494Z" fill="#B44B47" stroke="black" stroke-width="2"/>
<path d="M13688 169.089L13689.9 88.8222L13715.2 92.3714L13719.8 127.317H13732.4L13736.6 92.3714L13761.2 85L13767 171L13732.4 169.089L13736.6 137.692H13719.8L13711.6 169.089H13688Z" fill="#B44B47" stroke="black" stroke-width="2"/>
<path d="M13612.8 87.9098L13603 107.376C13603 107.376 13599.7 112.762 13598.6 116.697C13596.2 125.679 13601.6 140.549 13601.6 140.549L13606.4 161.386L13623.5 168.514C13623.5 168.514 13640.1 174.107 13648.6 168.514C13654.2 164.774 13659.3 153.984 13659.3 153.984L13665.4 135.614L13670 112.31C13670 112.31 13659.4 93.4842 13648.6 87.9098C13635.9 81.3627 13612.8 87.9098 13612.8 87.9098Z" fill="#B44B47" stroke="black" stroke-width="2"/>
<path d="M13620 131.675L13625.1 118.241L13632.7 107L13646.8 108.645L13648.5 133.046L13641.9 149.496L13623.4 146.206L13620 131.675Z" fill="#B44B47" stroke="black" stroke-width="2"/>
<path d="M12539.2 84.1633L12513 180.157C12513 180.157 12528 182.101 12535.5 181.996C12543.1 181.89 12554.8 180.157 12554.8 180.157C12554.8 180.157 12558.5 173.912 12562.2 171.33C12565.8 168.747 12572.9 167.284 12572.9 167.284L12568.1 177.95C12568.1 177.95 12570.9 179.458 12572.9 180.157C12574.8 180.856 12591.9 182.032 12593.9 180.157C12596 178.282 12598 174.272 12598 174.272L12590.2 132.712C12590.2 132.712 12586.8 118.569 12582.1 110.644C12577.5 102.72 12562.2 89.3124 12562.2 89.3124C12562.2 89.3124 12552.1 78.5558 12548.1 79.0142C12544.1 79.4727 12539.2 84.1633 12539.2 84.1633Z" fill="#B44B47" stroke="black" stroke-width="2"/>
<path d="M12551.7 97C12551.7 97 12548.8 125.083 12554.7 135.265C12560.5 145.446 12570.4 159.98 12577.6 154.758C12584.7 149.535 12581.1 141.087 12580.2 132.322C12579.2 123.557 12575.9 116.093 12570.9 108.416C12565.9 100.739 12551.7 97 12551.7 97Z" fill="#B44B47" stroke="black" stroke-width="2"/>
<path d="M12733.2 84.1633L12707 180.157C12707 180.157 12722 182.101 12729.5 181.996C12737.1 181.89 12748.8 180.157 12748.8 180.157C12748.8 180.157 12752.5 173.912 12756.2 171.33C12759.8 168.747 12766.9 167.284 12766.9 167.284L12762.1 177.95C12762.1 177.95 12764.9 179.458 12766.9 180.157C12768.8 180.856 12785.9 182.032 12787.9 180.157C12790 178.282 12792 174.272 12792 174.272L12784.2 132.712C12784.2 132.712 12780.8 118.569 12776.1 110.644C12771.5 102.72 12756.2 89.3124 12756.2 89.3124C12756.2 89.3124 12746.1 78.5558 12742.1 79.0142C12738.1 79.4727 12733.2 84.1633 12733.2 84.1633Z" fill="#B44B47" stroke="black" stroke-width="2"/>
<path d="M12744.7 97C12744.7 97 12741.8 125.083 12747.7 135.265C12753.5 145.446 12763.4 159.98 12770.6 154.758C12777.7 149.535 12774.1 141.087 12773.2 132.322C12772.2 123.557 12768.9 116.093 12763.9 108.416C12758.9 100.739 12744.7 97 12744.7 97Z" fill="#B44B47" stroke="black" stroke-width="2"/>
<path d="M12932 89L12940.7 183.852L13014 191L13008 168.181L12962.9 172.03V150.035L12980.7 146.461V134.639L12958.8 140.687L12955.8 119.518H13004.7L13014 96.1482L12932 89Z" fill="#B44B47" stroke="black" stroke-width="2"/>
<path d="M12813 187V96.0511L12840.1 87.9131V114.712L12885.2 79L12904.7 96.0511L12846.1 131.793L12919 156.147V187L12840.1 163.45V187H12813Z" fill="#B44B47" stroke="black" stroke-width="2"/>
<path d="M13071.2 93L13032 191H13064.3L13091.7 137.294L13098.6 191H13129V172.175H13114.6L13098.6 93H13071.2Z" fill="#B44B47" stroke="black" stroke-width="2"/>
<path d="M13262 188.733L13263.9 93.5333L13289.2 97.7429L13293.8 139.19H13306.4L13310.6 97.7429L13335.2 89L13341 191L13306.4 188.733L13310.6 151.495H13293.8L13285.6 188.733H13262Z" fill="#B44B47" stroke="black" stroke-width="2"/>
<path d="M12623.1 89.724L12613 177.591L12632.7 182V130.666C12632.7 130.666 12653.7 143.858 12668.1 142.318C12684.3 140.586 12699.6 135.726 12703.5 119.013C12706.8 105.235 12691.3 85 12691.3 85L12623.1 89.724Z" fill="#B44B47" stroke="black" stroke-width="2"/>
<path d="M12644 123.54L12646.4 109.368C12646.4 109.368 12652.8 108.54 12656.8 109.368C12665.6 111.179 12675.3 123.54 12675.3 123.54H12644Z" fill="#B44B47" stroke="black" stroke-width="2"/>
<path d="M13237 102.293V186.576L13212.8 191L13217.3 159.145L13196.1 186.576L13154 182.594L13208.4 143.66H13181.5L13169.2 119.548C13169.2 119.548 13172.7 100.181 13181.5 92.5599C13198.1 78.2169 13237 102.293 13237 102.293Z" fill="#B44B47" stroke="black" stroke-width="2"/>
<path d="M13187.4 126.042L13205.3 130.908L13220.3 126.042L13217.8 116.529L13205.3 109.451C13205.3 109.451 13195.4 106.187 13190.7 109.451C13185.3 113.291 13187.4 126.042 13187.4 126.042Z" fill="#B44B47" stroke="black" stroke-width="2"/>
<path d="M11225 68L11233.7 162.852L11307 170L11301 147.181L11255.9 151.03V129.035L11273.7 125.461V113.639L11251.8 119.687L11248.8 98.5175H11297.7L11307 75.1482L11225 68Z" fill="#B44B47" stroke="black" stroke-width="2"/>
<path d="M11001.6 76.5672H10966.8L11004.6 131.881L10958 174H10989.1L11024.4 131.881L11031.4 174L11072.5 167.91L11044.2 121.224L11079 72H11058L11024.4 102.701L11001.6 76.5672Z" fill="#B44B47" stroke="black" stroke-width="2"/>
<path d="M10832.4 170L10825 82.4564H10843.5L10856.7 137.413L10885.6 123.052L10881.2 75H10899.1L10944 170H10908.7L10899.1 140.451L10856.7 170H10832.4Z" fill="#B44B47" stroke="black" stroke-width="2"/>
<path d="M10719.7 83.8214L10710 173.5L10728.8 178V125.607C10728.8 125.607 10748.9 139.072 10762.7 137.5C10778.2 135.732 10792.8 130.772 10796.6 113.714C10799.7 99.6527 10784.9 79 10784.9 79L10719.7 83.8214Z" fill="#B44B47" stroke="black" stroke-width="2"/>
<path d="M10740 117.84L10742.3 103.375C10742.3 103.375 10748.4 102.531 10752.2 103.375C10760.6 105.224 10769.9 117.84 10769.9 117.84H10740Z" fill="#B44B47" stroke="black" stroke-width="2"/>
<path d="M11339.5 77.724L11330 165.591L11348.4 170V118.666C11348.4 118.666 11368 131.858 11381.5 130.318C11396.6 128.586 11410.9 123.726 11414.6 107.013C11417.6 93.2355 11403.2 73 11403.2 73L11339.5 77.724Z" fill="#B44B47" stroke="black" stroke-width="2"/>
<path d="M11359 110.54L11361.2 96.3678C11361.2 96.3678 11367.2 95.5402 11371 96.3678C11379.1 98.1794 11388.2 110.54 11388.2 110.54H11359Z" fill="#B44B47" stroke="black" stroke-width="2"/>
<path d="M11094 95.1212L11103.3 111.855L11131.8 113.505L11140.3 163H11167.6L11153.2 117.747L11199 122.697L11192.1 93L11094 95.1212Z" fill="#B44B47" stroke="black" stroke-width="2"/>
<path d="M11709.2 78.1633L11683 174.157C11683 174.157 11698 176.101 11705.5 175.996C11713.1 175.89 11724.8 174.157 11724.8 174.157C11724.8 174.157 11728.5 167.912 11732.2 165.33C11735.8 162.747 11742.9 161.284 11742.9 161.284L11738.1 171.95C11738.1 171.95 11740.9 173.458 11742.9 174.157C11744.8 174.856 11761.9 176.032 11763.9 174.157C11766 172.282 11768 168.272 11768 168.272L11760.2 126.712C11760.2 126.712 11756.8 112.569 11752.1 104.644C11747.5 96.7198 11732.2 83.3124 11732.2 83.3124C11732.2 83.3124 11722.1 72.5558 11718.1 73.0142C11714.1 73.4727 11709.2 78.1633 11709.2 78.1633Z" fill="#B44B47" stroke="black" stroke-width="2"/>
<path d="M11721.7 93C11721.7 93 11718.8 121.083 11724.7 131.265C11730.5 141.446 11740.4 155.98 11747.6 150.758C11754.7 145.535 11751.1 137.087 11750.2 128.322C11749.2 119.557 11745.9 112.093 11740.9 104.416C11735.9 96.7392 11721.7 93 11721.7 93Z" fill="#B44B47" stroke="black" stroke-width="2"/>
<path d="M12234.2 78.1633L12208 174.157C12208 174.157 12223 176.101 12230.5 175.996C12238.1 175.89 12249.8 174.157 12249.8 174.157C12249.8 174.157 12253.5 167.912 12257.2 165.33C12260.8 162.747 12267.9 161.284 12267.9 161.284L12263.1 171.95C12263.1 171.95 12265.9 173.458 12267.9 174.157C12269.8 174.856 12286.9 176.032 12288.9 174.157C12291 172.282 12293 168.272 12293 168.272L12285.2 126.712C12285.2 126.712 12281.8 112.569 12277.1 104.644C12272.5 96.7198 12257.2 83.3124 12257.2 83.3124C12257.2 83.3124 12247.1 72.5558 12243.1 73.0142C12239.1 73.4727 12234.2 78.1633 12234.2 78.1633Z" fill="#B44B47" stroke="black" stroke-width="2"/>
<path d="M12246.7 90C12246.7 90 12243.8 118.083 12249.7 128.265C12255.5 138.446 12265.4 152.98 12272.6 147.758C12279.7 142.535 12276.1 134.087 12275.2 125.322C12274.2 116.557 12270.9 109.093 12265.9 101.416C12260.9 93.7392 12246.7 90 12246.7 90Z" fill="#B44B47" stroke="black" stroke-width="2"/>
<path d="M11546 176V85.0511L11573.1 76.9131V103.712L11618.2 68L11637.7 85.0511L11579.1 120.793L11652 145.147V176L11573.1 152.45V176H11546Z" fill="#B44B47" stroke="black" stroke-width="2"/>
<path d="M11947.4 176L11940 88.4564H11958.5L11971.7 143.413L12000.6 129.052L11996.2 81H12014.1L12059 176H12023.7L12014.1 146.451L11971.7 176H11947.4Z" fill="#B44B47" stroke="black" stroke-width="2"/>
<path d="M12119.2 78L12080 176H12112.3L12139.7 122.294L12146.6 176H12177V157.175H12162.6L12146.6 78H12119.2Z" fill="#B44B47" stroke="black" stroke-width="2"/>
<path d="M11801.6 84L11791 176L11813.1 171.027L11822.7 116.324L11845.6 146.162L11875.5 129.725V171.027H11909L11894.1 88.1441H11869.5L11845.6 122.402L11837.2 88.1441L11801.6 84Z" fill="#B44B47" stroke="black" stroke-width="2"/>
<path d="M14653.5 108.262V127.457L14641.5 124.204L14640 101.592L14648.9 92.3202L14667.6 85H14699.8L14712.2 114.281V145.514L14699.8 166.01L14721 169.426V180H14702.8H14680.6H14660.1L14680.6 159.503L14696.6 137.543V108.262L14675.9 101.592L14653.5 108.262Z" fill="#FFF7E8"/>
<path d="M14653.5 108.262V127.457L14641.5 124.204L14640 101.592L14648.9 92.3202L14667.6 85H14699.8L14712.2 114.281V145.514L14699.8 166.01L14721 169.426V180H14702.8H14680.6H14660.1L14680.6 159.503L14696.6 137.543V108.262L14675.9 101.592L14653.5 108.262Z" stroke="black" stroke-width="2"/>
<path d="M14653.5 108.262V127.457L14641.5 124.204L14640 101.592L14648.9 92.3202L14667.6 85H14699.8L14712.2 114.281V145.514L14699.8 166.01L14721 169.426V180H14702.8H14680.6H14660.1L14680.6 159.503L14696.6 137.543V108.262L14675.9 101.592L14653.5 108.262Z" stroke="black" stroke-opacity="0.2" stroke-width="2"/>
<path d="M14072 81L14078.7 175.891L14136.3 181L14170 172.606L14161.9 129.905L14147.8 126.62C14147.8 126.62 14118.6 144.665 14103.8 136.839C14089 129.014 14087.2 97.7883 14087.2 97.7883L14161.9 109.467V86.8394L14072 81Z" fill="#FFF7E8" stroke="black" stroke-width="2"/>
<path d="M14143.2 142.554C14136.7 139.181 14115.2 152.175 14111 155.328C14106.7 158.481 14101 164.452 14101 164.452L14140.9 166.642C14140.9 166.642 14153.3 163.459 14154.6 157.153C14156 150.847 14149.6 145.928 14143.2 142.554Z" fill="#FFF7E8" stroke="black" stroke-width="2"/>
<path d="M14263.9 89.1287L14244 187.491L14218.7 174.075L14225.1 128.442L14190.5 104.402L14199.6 87.1868L14232.1 115.325L14243 78.0197L14263.9 89.1287Z" fill="#FFF7E8" stroke="black" stroke-width="2"/>
<path d="M14285 186V95.0511L14312.1 86.9131V113.712L14357.2 78L14376.7 95.0511L14318.1 130.793L14391 155.147V186L14312.1 162.45V186H14285Z" fill="#FFF7E8" stroke="black" stroke-width="2"/>
<path d="M14422.4 180L14415 92.4564H14433.5L14446.7 147.413L14475.6 133.052L14471.2 85H14489.1L14534 180H14498.7L14489.1 150.451L14446.7 180H14422.4Z" fill="#FFF7E8" stroke="black" stroke-width="2"/>
<path d="M14560.2 88.2143L14549.5 109.717C14549.5 109.717 14545.9 115.668 14544.7 120.014C14542 129.937 14547.9 146.363 14547.9 146.363L14553.3 169.38L14572 177.254C14572 177.254 14590.2 183.432 14599.5 177.254C14605.7 173.122 14611.2 161.203 14611.2 161.203L14617.9 140.911L14623 115.169C14623 115.169 14611.4 94.372 14599.5 88.2143C14585.5 80.9821 14560.2 88.2143 14560.2 88.2143Z" fill="#FFF7E8" stroke="black" stroke-width="2"/>
<path d="M14568 137.257L14573.6 122.417L14581.9 110L14597.4 111.817L14599.3 138.771L14592 156.943L14571.7 153.308L14568 137.257Z" fill="#FFF7E8" stroke="black" stroke-width="2"/>
<path d="M9401.24 78.1633L9375 174.157C9375 174.157 9390 176.101 9397.54 175.996C9405.08 175.89 9416.76 174.157 9416.76 174.157C9416.76 174.157 9420.5 167.912 9424.15 165.33C9427.8 162.747 9434.87 161.284 9434.87 161.284L9430.07 171.95C9430.07 171.95 9432.93 173.458 9434.87 174.157C9436.81 174.856 9453.86 176.032 9455.93 174.157C9458.01 172.282 9460 168.272 9460 168.272L9452.24 126.712C9452.24 126.712 9448.76 112.569 9444.11 104.644C9439.45 96.7198 9424.15 83.3124 9424.15 83.3124C9424.15 83.3124 9414.09 72.5558 9410.11 73.0142C9406.13 73.4727 9401.24 78.1633 9401.24 78.1633Z" fill="#F5DE91" stroke="black" stroke-width="2"/>
<path d="M9413.71 91C9413.71 91 9410.84 119.083 9416.66 129.265C9422.49 139.446 9432.43 153.98 9439.58 148.758C9446.72 143.535 9443.14 135.087 9442.16 126.322C9441.18 117.557 9437.91 110.093 9432.92 102.416C9427.93 94.7392 9413.71 91 9413.71 91Z" fill="#F5DE91" stroke="black" stroke-width="2"/>
<path d="M8630 174L8635.68 78.4806L8674.3 73L8708 86.3101L8699.67 108.624L8686.42 117.628L8667.86 125.457H8708V141.508V174H8630Z" fill="#F5DE91" stroke="black" stroke-width="2"/>
<path d="M8653 107.876V93H8667.39H8680.64L8673.83 107.876H8653Z" fill="#F5DE91"/>
<path d="M8667.39 159.942L8653 148.589L8663.6 140.76H8693.14L8699.19 148.589L8667.39 159.942Z" fill="#F5DE91"/>
<path d="M8653 107.876V93H8667.39H8680.64L8673.83 107.876H8653Z" stroke="black" stroke-width="2"/>
<path d="M8667.39 159.942L8653 148.589L8663.6 140.76H8693.14L8699.19 148.589L8667.39 159.942Z" stroke="black" stroke-width="2"/>
<path d="M8735 75L8743.75 169.852L8817 177L8810.99 154.181L8765.89 158.03V136.035L8783.65 132.461V120.639L8761.79 126.687L8758.78 105.518H8807.71L8817 82.1482L8735 75Z" fill="#F5DE91" stroke="black" stroke-width="2"/>
<path d="M9256 175V84.0511L9283.07 75.9131V102.712L9328.17 67L9347.71 84.0511L9289.08 119.793L9362 144.147V175L9283.07 151.45V175H9256Z" fill="#F5DE91" stroke="black" stroke-width="2"/>
<path d="M9131.44 173L9124 85.4564H9142.46L9155.68 140.413L9184.6 126.052L9180.19 78H9198.1L9243 173H9207.74L9198.1 143.451L9155.68 173H9131.44Z" fill="#F5DE91" stroke="black" stroke-width="2"/>
<path d="M9032 172.089L9033.92 91.8222L9059.16 95.3714L9063.82 130.317H9076.44L9080.55 95.3714L9105.24 88L9111 174L9076.44 172.089L9080.55 140.692H9063.82L9055.59 172.089H9032Z" fill="#F5DE91" stroke="black" stroke-width="2"/>
<path d="M8942.77 90.9098L8933.03 110.376C8933.03 110.376 8929.73 115.762 8928.65 119.697C8926.18 128.679 8931.57 143.549 8931.57 143.549L8936.44 164.386L8953.49 171.514C8953.49 171.514 8970.13 177.107 8978.57 171.514C8984.22 167.774 8989.28 156.984 8989.28 156.984L8995.37 138.614L9000 115.31C9000 115.31 8989.39 96.4842 8978.57 90.9098C8965.86 84.3627 8942.77 90.9098 8942.77 90.9098Z" fill="#F5DE91" stroke="black" stroke-width="2"/>
<path d="M8950 134.675L8955.11 121.241L8962.66 110L8976.79 111.645L8978.49 136.046L8971.92 152.496L8953.41 149.206L8950 134.675Z" fill="#F5DE91" stroke="black" stroke-width="2"/>
<path d="M8839.46 80.724L8830 168.591L8848.36 173V121.666C8848.36 121.666 8868 134.858 8881.47 133.318C8896.62 131.586 8910.85 126.726 8914.57 110.013C8917.64 96.2355 8903.17 76 8903.17 76L8839.46 80.724Z" fill="#F5DE91" stroke="black" stroke-width="2"/>
<path d="M8860 113.54L8862.23 99.3678C8862.23 99.3678 8868.23 98.5402 8871.96 99.3678C8880.13 101.179 8889.21 113.54 8889.21 113.54H8860Z" fill="#F5DE91" stroke="black" stroke-width="2"/>
<path d="M9980.24 84.1633L9954 180.157C9954 180.157 9969 182.101 9976.54 181.996C9984.08 181.89 9995.76 180.157 9995.76 180.157C9995.76 180.157 9999.5 173.912 10003.2 171.33C10006.8 168.747 10013.9 167.284 10013.9 167.284L10009.1 177.95C10009.1 177.95 10011.9 179.458 10013.9 180.157C10015.8 180.856 10032.9 182.032 10034.9 180.157C10037 178.282 10039 174.272 10039 174.272L10031.2 132.712C10031.2 132.712 10027.8 118.569 10023.1 110.644C10018.5 102.72 10003.2 89.3124 10003.2 89.3124C10003.2 89.3124 9993.09 78.5558 9989.11 79.0142C9985.13 79.4727 9980.24 84.1633 9980.24 84.1633Z" fill="#FFF7E8" stroke="black" stroke-width="2"/>
<path d="M9992.71 99C9992.71 99 9989.84 127.083 9995.66 137.265C10001.5 147.446 10011.4 161.98 10018.6 156.758C10025.7 151.535 10022.1 143.087 10021.2 134.322C10020.2 125.557 10016.9 118.093 10011.9 110.416C10006.9 102.739 9992.71 99 9992.71 99Z" fill="#FFF7E8" stroke="black" stroke-width="2"/>
<path d="M10385 182.222V96.4444L10405.2 86L10409.2 140.444L10454.9 142.222L10456.9 157.556V178L10429.6 186L10385 182.222Z" fill="#FFF7E8"/>
<path d="M10473.1 182.222L10470.2 88.2222H10484.8L10503 182.222H10473.1Z" fill="#FFF7E8"/>
<path d="M10385 182.222V96.4444L10405.2 86L10409.2 140.444L10454.9 142.222L10456.9 157.556V178L10429.6 186L10385 182.222Z" stroke="black" stroke-width="2"/>
<path d="M10473.1 182.222L10470.2 88.2222H10484.8L10503 182.222H10473.1Z" stroke="black" stroke-width="2"/>
<path d="M10407 172.667L10410.5 158L10439.2 160L10435.8 172.667H10407Z" fill="#FFF7E8" stroke="black" stroke-width="2"/>
<path d="M9825.61 95.0446L9809.13 188.058L9783.42 174.383L9788.22 131.132L9752.69 107.001L9761.24 90.9227L9794.74 118.881L9804.31 83.7217L9825.61 95.0446Z" fill="#FFF7E8" stroke="black" stroke-width="2"/>
<path d="M9643 182V91.0511L9670.07 82.9131V109.712L9715.17 74L9734.71 91.0511L9676.08 126.793L9749 151.147V182L9670.07 158.45V182H9643Z" fill="#FFF7E8" stroke="black" stroke-width="2"/>
<path d="M10200.8 95.9098L10191 115.376C10191 115.376 10187.7 120.762 10186.6 124.697C10184.2 133.679 10189.6 148.549 10189.6 148.549L10194.4 169.386L10211.5 176.514C10211.5 176.514 10228.1 182.107 10236.6 176.514C10242.2 172.774 10247.3 161.984 10247.3 161.984L10253.4 143.614L10258 120.31C10258 120.31 10247.4 101.484 10236.6 95.9098C10223.9 89.3627 10200.8 95.9098 10200.8 95.9098Z" fill="#FFF7E8" stroke="black" stroke-width="2"/>
<path d="M10208 140.675L10213.1 127.241L10220.7 116L10234.8 117.645L10236.5 142.046L10229.9 158.496L10211.4 155.206L10208 140.675Z" fill="#FFF7E8" stroke="black" stroke-width="2"/>
<path d="M9860.46 90.5292L9851 174.773L9869.36 179V129.782C9869.36 129.782 9889 142.431 9902.47 140.955C9917.62 139.294 9931.85 134.634 9935.57 118.61C9938.64 105.401 9924.17 86 9924.17 86L9860.46 90.5292Z" fill="#FFF7E8" stroke="black" stroke-width="2"/>
<path d="M9880 120.94L9882.23 107.353C9882.23 107.353 9888.23 106.559 9891.96 107.353C9900.13 109.09 9909.21 120.94 9909.21 120.94H9880Z" fill="#FFF7E8" stroke="black" stroke-width="2"/>
<path d="M10291.5 97.1396L10282 174.136L10300.4 178V133.016C10300.4 133.016 10320 144.577 10333.5 143.227C10348.6 141.71 10362.9 137.45 10366.6 122.805C10369.6 110.732 10355.2 93 10355.2 93L10291.5 97.1396Z" fill="#FFF7E8" stroke="black" stroke-width="2"/>
<path d="M10310 125.741L10312.2 113.322C10312.2 113.322 10318.2 112.597 10322 113.322C10330.1 114.91 10339.2 125.741 10339.2 125.741H10310Z" fill="#FFF7E8" stroke="black" stroke-width="2"/>
<path d="M10057 103.121L10066.3 119.855L10094.8 121.505L10103.3 171H10130.6L10116.2 125.747L10162 130.697L10155.1 101L10057 103.121Z" fill="#FFF7E8" stroke="black" stroke-width="2"/>
<path d="M8393.24 72.1633L8367 168.157C8367 168.157 8382 170.101 8389.54 169.996C8397.08 169.89 8408.76 168.157 8408.76 168.157C8408.76 168.157 8412.5 161.912 8416.15 159.33C8419.8 156.747 8426.87 155.284 8426.87 155.284L8422.07 165.95C8422.07 165.95 8424.93 167.458 8426.87 168.157C8428.81 168.856 8445.86 170.032 8447.93 168.157C8450.01 166.282 8452 162.272 8452 162.272L8444.24 120.712C8444.24 120.712 8440.76 106.569 8436.11 98.6443C8431.45 90.7198 8416.15 77.3124 8416.15 77.3124C8416.15 77.3124 8406.09 66.5558 8402.11 67.0142C8398.13 67.4727 8393.24 72.1633 8393.24 72.1633Z" fill="#F5DE91" stroke="black" stroke-width="2"/>
<path d="M8405.71 86C8405.71 86 8402.84 114.083 8408.66 124.265C8414.49 134.446 8424.43 148.98 8431.58 143.758C8438.72 138.535 8435.14 130.087 8434.16 121.322C8433.18 112.557 8429.91 105.093 8424.92 97.4159C8419.93 89.7392 8405.71 86 8405.71 86Z" fill="#F5DE91" stroke="black" stroke-width="2"/>
<path d="M8262 169L8267.68 73.4806L8306.3 68L8340 81.3101L8331.67 103.624L8318.42 112.628L8299.86 120.457H8340V136.508V169H8262Z" fill="#F5DE91" stroke="black" stroke-width="2"/>
<path d="M8286 102.876V88H8300.39H8313.64L8306.83 102.876H8286Z" fill="#F5DE91"/>
<path d="M8300.39 154.942L8286 143.589L8296.6 135.76H8326.14L8332.19 143.589L8300.39 154.942Z" fill="#F5DE91"/>
<path d="M8286 102.876V88H8300.39H8313.64L8306.83 102.876H8286Z" stroke="black" stroke-width="2"/>
<path d="M8300.39 154.942L8286 143.589L8296.6 135.76H8326.14L8332.19 143.589L8300.39 154.942Z" stroke="black" stroke-width="2"/>
<path d="M7513 169V78.0511L7540.07 69.9131V96.7118L7585.17 61L7604.71 78.0511L7546.08 113.793L7619 138.147V169L7540.07 145.45V169H7513Z" fill="#F5DE91" stroke="black" stroke-width="2"/>
<path d="M7799.24 71L7760 169H7792.33L7819.69 115.294L7826.6 169H7857V150.175H7842.63L7826.6 71H7799.24Z" fill="#F5DE91" stroke="black" stroke-width="2"/>
<path d="M7675.77 85.9098L7666.03 105.376C7666.03 105.376 7662.73 110.762 7661.65 114.697C7659.18 123.679 7664.57 138.549 7664.57 138.549L7669.44 159.386L7686.49 166.514C7686.49 166.514 7703.13 172.107 7711.57 166.514C7717.22 162.774 7722.28 151.984 7722.28 151.984L7728.37 133.614L7733 110.31C7733 110.31 7722.39 91.4842 7711.57 85.9098C7698.86 79.3627 7675.77 85.9098 7675.77 85.9098Z" fill="#F5DE91" stroke="black" stroke-width="2"/>
<path d="M7683 129.675L7688.11 116.241L7695.66 105L7709.79 106.645L7711.49 131.046L7704.92 147.496L7686.41 144.206L7683 129.675Z" fill="#F5DE91" stroke="black" stroke-width="2"/>
<path d="M8177.77 89.9098L8168.03 109.376C8168.03 109.376 8164.73 114.762 8163.65 118.697C8161.18 127.679 8166.57 142.549 8166.57 142.549L8171.44 163.386L8188.49 170.514C8188.49 170.514 8205.13 176.107 8213.57 170.514C8219.22 166.774 8224.28 155.984 8224.28 155.984L8230.37 137.614L8235 114.31C8235 114.31 8224.39 95.4842 8213.57 89.9098C8200.86 83.3627 8177.77 89.9098 8177.77 89.9098Z" fill="#F5DE91" stroke="black" stroke-width="2"/>
<path d="M8185 133.675L8190.11 120.241L8197.66 109L8211.79 110.645L8213.49 135.046L8206.92 151.496L8188.41 148.206L8185 133.675Z" fill="#F5DE91" stroke="black" stroke-width="2"/>
<path d="M8031.17 153.758L8012 62.2227L8025.69 57L8042.67 126.27H8089.49V62.2227H8120.98V144.687L8150 173H8115.5L8109.48 153.758H8031.17Z" fill="#F5DE91" stroke="black" stroke-width="2"/>
<path d="M7899.19 165.714L7891 83.8351L7908.27 71L7919.56 127.43L7957.64 124.111L7980 145.134L7944.8 177L7899.19 165.714Z" fill="#F5DE91" stroke="black" stroke-width="2"/>
<path d="M7926.87 156.827L7922 149.081L7929.75 144.877L7953.44 142V151.516L7926.87 156.827Z" fill="#F5DE91" stroke="black" stroke-width="2"/>
<rect x="14828" width="7415" height="238" fill="#2C3872"/>
<path d="M21221.2 78.1633L21195 174.157C21195 174.157 21210 176.101 21217.5 175.996C21225.1 175.89 21236.8 174.157 21236.8 174.157C21236.8 174.157 21240.5 167.912 21244.2 165.33C21247.8 162.747 21254.9 161.284 21254.9 161.284L21250.1 171.95C21250.1 171.95 21252.9 173.458 21254.9 174.157C21256.8 174.856 21273.9 176.032 21275.9 174.157C21278 172.282 21280 168.272 21280 168.272L21272.2 126.712C21272.2 126.712 21268.8 112.569 21264.1 104.644C21259.5 96.7198 21244.2 83.3124 21244.2 83.3124C21244.2 83.3124 21234.1 72.5558 21230.1 73.0142C21226.1 73.4727 21221.2 78.1633 21221.2 78.1633Z" fill="#B44B47" stroke="black" stroke-width="2"/>
<path d="M21233.7 90C21233.7 90 21230.8 118.083 21236.7 128.265C21242.5 138.446 21252.4 152.98 21259.6 147.758C21266.7 142.535 21263.1 134.087 21262.2 125.322C21261.2 116.557 21257.9 109.093 21252.9 101.416C21247.9 93.7392 21233.7 90 21233.7 90Z" fill="#B44B47" stroke="black" stroke-width="2"/>
<path d="M20909 169.089L20910.9 88.8222L20936.2 92.3714L20940.8 127.317H20953.4L20957.6 92.3714L20982.2 85L20988 171L20953.4 169.089L20957.6 137.692H20940.8L20932.6 169.089H20909Z" fill="#B44B47" stroke="black" stroke-width="2"/>
<path d="M21103 169.089L21104.9 88.8222L21130.2 92.3714L21134.8 127.317H21147.4L21151.6 92.3714L21176.2 85L21182 171L21147.4 169.089L21151.6 137.692H21134.8L21126.6 169.089H21103Z" fill="#B44B47" stroke="black" stroke-width="2"/>
<path d="M21027.8 87.9098L21018 107.376C21018 107.376 21014.7 112.762 21013.6 116.697C21011.2 125.679 21016.6 140.549 21016.6 140.549L21021.4 161.386L21038.5 168.514C21038.5 168.514 21055.1 174.107 21063.6 168.514C21069.2 164.774 21074.3 153.984 21074.3 153.984L21080.4 135.614L21085 112.31C21085 112.31 21074.4 93.4842 21063.6 87.9098C21050.9 81.3627 21027.8 87.9098 21027.8 87.9098Z" fill="#B44B47" stroke="black" stroke-width="2"/>
<path d="M21035 131.675L21040.1 118.241L21047.7 107L21061.8 108.645L21063.5 133.046L21056.9 149.496L21038.4 146.206L21035 131.675Z" fill="#B44B47" stroke="black" stroke-width="2"/>
<path d="M19954.2 84.1633L19928 180.157C19928 180.157 19943 182.101 19950.5 181.996C19958.1 181.89 19969.8 180.157 19969.8 180.157C19969.8 180.157 19973.5 173.912 19977.2 171.33C19980.8 168.747 19987.9 167.284 19987.9 167.284L19983.1 177.95C19983.1 177.95 19985.9 179.458 19987.9 180.157C19989.8 180.856 20006.9 182.032 20008.9 180.157C20011 178.282 20013 174.272 20013 174.272L20005.2 132.712C20005.2 132.712 20001.8 118.569 19997.1 110.644C19992.5 102.72 19977.2 89.3124 19977.2 89.3124C19977.2 89.3124 19967.1 78.5558 19963.1 79.0142C19959.1 79.4727 19954.2 84.1633 19954.2 84.1633Z" fill="#B44B47" stroke="black" stroke-width="2"/>
<path d="M19966.7 97C19966.7 97 19963.8 125.083 19969.7 135.265C19975.5 145.446 19985.4 159.98 19992.6 154.758C19999.7 149.535 19996.1 141.087 19995.2 132.322C19994.2 123.557 19990.9 116.093 19985.9 108.416C19980.9 100.739 19966.7 97 19966.7 97Z" fill="#B44B47" stroke="black" stroke-width="2"/>
<path d="M20148.2 84.1633L20122 180.157C20122 180.157 20137 182.101 20144.5 181.996C20152.1 181.89 20163.8 180.157 20163.8 180.157C20163.8 180.157 20167.5 173.912 20171.2 171.33C20174.8 168.747 20181.9 167.284 20181.9 167.284L20177.1 177.95C20177.1 177.95 20179.9 179.458 20181.9 180.157C20183.8 180.856 20200.9 182.032 20202.9 180.157C20205 178.282 20207 174.272 20207 174.272L20199.2 132.712C20199.2 132.712 20195.8 118.569 20191.1 110.644C20186.5 102.72 20171.2 89.3124 20171.2 89.3124C20171.2 89.3124 20161.1 78.5558 20157.1 79.0142C20153.1 79.4727 20148.2 84.1633 20148.2 84.1633Z" fill="#B44B47" stroke="black" stroke-width="2"/>
<path d="M20159.7 97C20159.7 97 20156.8 125.083 20162.7 135.265C20168.5 145.446 20178.4 159.98 20185.6 154.758C20192.7 149.535 20189.1 141.087 20188.2 132.322C20187.2 123.557 20183.9 116.093 20178.9 108.416C20173.9 100.739 20159.7 97 20159.7 97Z" fill="#B44B47" stroke="black" stroke-width="2"/>
<path d="M20347 89L20355.7 183.852L20429 191L20423 168.181L20377.9 172.03V150.035L20395.7 146.461V134.639L20373.8 140.687L20370.8 119.518H20419.7L20429 96.1482L20347 89Z" fill="#B44B47" stroke="black" stroke-width="2"/>
<path d="M20228 187V96.0511L20255.1 87.9131V114.712L20300.2 79L20319.7 96.0511L20261.1 131.793L20334 156.147V187L20255.1 163.45V187H20228Z" fill="#B44B47" stroke="black" stroke-width="2"/>
<path d="M20486.2 93L20447 191H20479.3L20506.7 137.294L20513.6 191H20544V172.175H20529.6L20513.6 93H20486.2Z" fill="#B44B47" stroke="black" stroke-width="2"/>
<path d="M20677 188.733L20678.9 93.5333L20704.2 97.7429L20708.8 139.19H20721.4L20725.6 97.7429L20750.2 89L20756 191L20721.4 188.733L20725.6 151.495H20708.8L20700.6 188.733H20677Z" fill="#B44B47" stroke="black" stroke-width="2"/>
<path d="M20038.1 89.724L20028 177.591L20047.7 182V130.666C20047.7 130.666 20068.7 143.858 20083.1 142.318C20099.3 140.586 20114.6 135.726 20118.5 119.013C20121.8 105.235 20106.3 85 20106.3 85L20038.1 89.724Z" fill="#B44B47" stroke="black" stroke-width="2"/>
<path d="M20059 123.54L20061.4 109.368C20061.4 109.368 20067.8 108.54 20071.8 109.368C20080.6 111.179 20090.3 123.54 20090.3 123.54H20059Z" fill="#B44B47" stroke="black" stroke-width="2"/>
<path d="M20652 102.293V186.576L20627.8 191L20632.3 159.145L20611.1 186.576L20569 182.594L20623.4 143.66H20596.5L20584.2 119.548C20584.2 119.548 20587.7 100.181 20596.5 92.5599C20613.1 78.2169 20652 102.293 20652 102.293Z" fill="#B44B47" stroke="black" stroke-width="2"/>
<path d="M20602.4 126.042L20620.3 130.908L20635.3 126.042L20632.8 116.529L20620.3 109.451C20620.3 109.451 20610.4 106.187 20605.7 109.451C20600.3 113.291 20602.4 126.042 20602.4 126.042Z" fill="#B44B47" stroke="black" stroke-width="2"/>
<path d="M18640 68L18648.7 162.852L18722 170L18716 147.181L18670.9 151.03V129.035L18688.7 125.461V113.639L18666.8 119.687L18663.8 98.5175H18712.7L18722 75.1482L18640 68Z" fill="#B44B47" stroke="black" stroke-width="2"/>
<path d="M18416.6 76.5672H18381.8L18419.6 131.881L18373 174H18404.1L18439.4 131.881L18446.4 174L18487.5 167.91L18459.2 121.224L18494 72H18473L18439.4 102.701L18416.6 76.5672Z" fill="#B44B47" stroke="black" stroke-width="2"/>
<path d="M18247.4 170L18240 82.4564H18258.5L18271.7 137.413L18300.6 123.052L18296.2 75H18314.1L18359 170H18323.7L18314.1 140.451L18271.7 170H18247.4Z" fill="#B44B47" stroke="black" stroke-width="2"/>
<path d="M18134.7 83.8214L18125 173.5L18143.8 178V125.607C18143.8 125.607 18163.9 139.072 18177.7 137.5C18193.2 135.732 18207.8 130.772 18211.6 113.714C18214.7 99.6527 18199.9 79 18199.9 79L18134.7 83.8214Z" fill="#B44B47" stroke="black" stroke-width="2"/>
<path d="M18155 117.84L18157.3 103.375C18157.3 103.375 18163.4 102.531 18167.2 103.375C18175.6 105.224 18184.9 117.84 18184.9 117.84H18155Z" fill="#B44B47" stroke="black" stroke-width="2"/>
<path d="M18754.5 77.724L18745 165.591L18763.4 170V118.666C18763.4 118.666 18783 131.858 18796.5 130.318C18811.6 128.586 18825.9 123.726 18829.6 107.013C18832.6 93.2355 18818.2 73 18818.2 73L18754.5 77.724Z" fill="#B44B47" stroke="black" stroke-width="2"/>
<path d="M18774 110.54L18776.2 96.3678C18776.2 96.3678 18782.2 95.5402 18786 96.3678C18794.1 98.1794 18803.2 110.54 18803.2 110.54H18774Z" fill="#B44B47" stroke="black" stroke-width="2"/>
<path d="M18509 95.1212L18518.3 111.855L18546.8 113.505L18555.3 163H18582.6L18568.2 117.747L18614 122.697L18607.1 93L18509 95.1212Z" fill="#B44B47" stroke="black" stroke-width="2"/>
<path d="M19124.2 78.1633L19098 174.157C19098 174.157 19113 176.101 19120.5 175.996C19128.1 175.89 19139.8 174.157 19139.8 174.157C19139.8 174.157 19143.5 167.912 19147.2 165.33C19150.8 162.747 19157.9 161.284 19157.9 161.284L19153.1 171.95C19153.1 171.95 19155.9 173.458 19157.9 174.157C19159.8 174.856 19176.9 176.032 19178.9 174.157C19181 172.282 19183 168.272 19183 168.272L19175.2 126.712C19175.2 126.712 19171.8 112.569 19167.1 104.644C19162.5 96.7198 19147.2 83.3124 19147.2 83.3124C19147.2 83.3124 19137.1 72.5558 19133.1 73.0142C19129.1 73.4727 19124.2 78.1633 19124.2 78.1633Z" fill="#B44B47" stroke="black" stroke-width="2"/>
<path d="M19136.7 93C19136.7 93 19133.8 121.083 19139.7 131.265C19145.5 141.446 19155.4 155.98 19162.6 150.758C19169.7 145.535 19166.1 137.087 19165.2 128.322C19164.2 119.557 19160.9 112.093 19155.9 104.416C19150.9 96.7392 19136.7 93 19136.7 93Z" fill="#B44B47" stroke="black" stroke-width="2"/>
<path d="M19649.2 78.1633L19623 174.157C19623 174.157 19638 176.101 19645.5 175.996C19653.1 175.89 19664.8 174.157 19664.8 174.157C19664.8 174.157 19668.5 167.912 19672.2 165.33C19675.8 162.747 19682.9 161.284 19682.9 161.284L19678.1 171.95C19678.1 171.95 19680.9 173.458 19682.9 174.157C19684.8 174.856 19701.9 176.032 19703.9 174.157C19706 172.282 19708 168.272 19708 168.272L19700.2 126.712C19700.2 126.712 19696.8 112.569 19692.1 104.644C19687.5 96.7198 19672.2 83.3124 19672.2 83.3124C19672.2 83.3124 19662.1 72.5558 19658.1 73.0142C19654.1 73.4727 19649.2 78.1633 19649.2 78.1633Z" fill="#B44B47" stroke="black" stroke-width="2"/>
<path d="M19661.7 90C19661.7 90 19658.8 118.083 19664.7 128.265C19670.5 138.446 19680.4 152.98 19687.6 147.758C19694.7 142.535 19691.1 134.087 19690.2 125.322C19689.2 116.557 19685.9 109.093 19680.9 101.416C19675.9 93.7392 19661.7 90 19661.7 90Z" fill="#B44B47" stroke="black" stroke-width="2"/>
<path d="M18961 176V85.0511L18988.1 76.9131V103.712L19033.2 68L19052.7 85.0511L18994.1 120.793L19067 145.147V176L18988.1 152.45V176H18961Z" fill="#B44B47" stroke="black" stroke-width="2"/>
<path d="M19362.4 176L19355 88.4564H19373.5L19386.7 143.413L19415.6 129.052L19411.2 81H19429.1L19474 176H19438.7L19429.1 146.451L19386.7 176H19362.4Z" fill="#B44B47" stroke="black" stroke-width="2"/>
<path d="M19534.2 78L19495 176H19527.3L19554.7 122.294L19561.6 176H19592V157.175H19577.6L19561.6 78H19534.2Z" fill="#B44B47" stroke="black" stroke-width="2"/>
<path d="M19216.6 84L19206 176L19228.1 171.027L19237.7 116.324L19260.6 146.162L19290.5 129.725V171.027H19324L19309.1 88.1441H19284.5L19260.6 122.402L19252.2 88.1441L19216.6 84Z" fill="#B44B47" stroke="black" stroke-width="2"/>
<path d="M22068.5 108.262V127.457L22056.5 124.204L22055 101.592L22063.9 92.3202L22082.6 85H22114.8L22127.2 114.281V145.514L22114.8 166.01L22136 169.426V180H22117.8H22095.6H22075.1L22095.6 159.503L22111.6 137.543V108.262L22090.9 101.592L22068.5 108.262Z" fill="#FFF7E8"/>
<path d="M22068.5 108.262V127.457L22056.5 124.204L22055 101.592L22063.9 92.3202L22082.6 85H22114.8L22127.2 114.281V145.514L22114.8 166.01L22136 169.426V180H22117.8H22095.6H22075.1L22095.6 159.503L22111.6 137.543V108.262L22090.9 101.592L22068.5 108.262Z" stroke="black" stroke-width="2"/>
<path d="M22068.5 108.262V127.457L22056.5 124.204L22055 101.592L22063.9 92.3202L22082.6 85H22114.8L22127.2 114.281V145.514L22114.8 166.01L22136 169.426V180H22117.8H22095.6H22075.1L22095.6 159.503L22111.6 137.543V108.262L22090.9 101.592L22068.5 108.262Z" stroke="black" stroke-opacity="0.2" stroke-width="2"/>
<path d="M21487 81L21493.7 175.891L21551.3 181L21585 172.606L21576.9 129.905L21562.8 126.62C21562.8 126.62 21533.6 144.665 21518.8 136.839C21504 129.014 21502.2 97.7883 21502.2 97.7883L21576.9 109.467V86.8394L21487 81Z" fill="#FFF7E8" stroke="black" stroke-width="2"/>
<path d="M21558.2 142.554C21551.7 139.181 21530.2 152.175 21526 155.328C21521.7 158.481 21516 164.452 21516 164.452L21555.9 166.642C21555.9 166.642 21568.3 163.459 21569.6 157.153C21571 150.847 21564.6 145.928 21558.2 142.554Z" fill="#FFF7E8" stroke="black" stroke-width="2"/>
<path d="M21678.9 89.1287L21659 187.491L21633.7 174.075L21640.1 128.442L21605.5 104.402L21614.6 87.1868L21647.1 115.325L21658 78.0197L21678.9 89.1287Z" fill="#FFF7E8" stroke="black" stroke-width="2"/>
<path d="M21700 186V95.0511L21727.1 86.9131V113.712L21772.2 78L21791.7 95.0511L21733.1 130.793L21806 155.147V186L21727.1 162.45V186H21700Z" fill="#FFF7E8" stroke="black" stroke-width="2"/>
<path d="M21837.4 180L21830 92.4564H21848.5L21861.7 147.413L21890.6 133.052L21886.2 85H21904.1L21949 180H21913.7L21904.1 150.451L21861.7 180H21837.4Z" fill="#FFF7E8" stroke="black" stroke-width="2"/>
<path d="M21975.2 88.2143L21964.5 109.717C21964.5 109.717 21960.9 115.668 21959.7 120.014C21957 129.937 21962.9 146.363 21962.9 146.363L21968.3 169.38L21987 177.254C21987 177.254 22005.2 183.432 22014.5 177.254C22020.7 173.122 22026.2 161.203 22026.2 161.203L22032.9 140.911L22038 115.169C22038 115.169 22026.4 94.372 22014.5 88.2143C22000.5 80.9821 21975.2 88.2143 21975.2 88.2143Z" fill="#FFF7E8" stroke="black" stroke-width="2"/>
<path d="M21983 137.257L21988.6 122.417L21996.9 110L22012.4 111.817L22014.3 138.771L22007 156.943L21986.7 153.308L21983 137.257Z" fill="#FFF7E8" stroke="black" stroke-width="2"/>
<path d="M16816.2 78.1633L16790 174.157C16790 174.157 16805 176.101 16812.5 175.996C16820.1 175.89 16831.8 174.157 16831.8 174.157C16831.8 174.157 16835.5 167.912 16839.2 165.33C16842.8 162.747 16849.9 161.284 16849.9 161.284L16845.1 171.95C16845.1 171.95 16847.9 173.458 16849.9 174.157C16851.8 174.856 16868.9 176.032 16870.9 174.157C16873 172.282 16875 168.272 16875 168.272L16867.2 126.712C16867.2 126.712 16863.8 112.569 16859.1 104.644C16854.5 96.7198 16839.2 83.3124 16839.2 83.3124C16839.2 83.3124 16829.1 72.5558 16825.1 73.0142C16821.1 73.4727 16816.2 78.1633 16816.2 78.1633Z" fill="#F5DE91" stroke="black" stroke-width="2"/>
<path d="M16828.7 91C16828.7 91 16825.8 119.083 16831.7 129.265C16837.5 139.446 16847.4 153.98 16854.6 148.758C16861.7 143.535 16858.1 135.087 16857.2 126.322C16856.2 117.557 16852.9 110.093 16847.9 102.416C16842.9 94.7392 16828.7 91 16828.7 91Z" fill="#F5DE91" stroke="black" stroke-width="2"/>
<path d="M16045 174L16050.7 78.4806L16089.3 73L16123 86.3101L16114.7 108.624L16101.4 117.628L16082.9 125.457H16123V141.508V174H16045Z" fill="#F5DE91" stroke="black" stroke-width="2"/>
<path d="M16068 107.876V93H16082.4H16095.6L16088.8 107.876H16068Z" fill="#F5DE91"/>
<path d="M16082.4 159.942L16068 148.589L16078.6 140.76H16108.1L16114.2 148.589L16082.4 159.942Z" fill="#F5DE91"/>
<path d="M16068 107.876V93H16082.4H16095.6L16088.8 107.876H16068Z" stroke="black" stroke-width="2"/>
<path d="M16082.4 159.942L16068 148.589L16078.6 140.76H16108.1L16114.2 148.589L16082.4 159.942Z" stroke="black" stroke-width="2"/>
<path d="M16150 75L16158.7 169.852L16232 177L16226 154.181L16180.9 158.03V136.035L16198.7 132.461V120.639L16176.8 126.687L16173.8 105.518H16222.7L16232 82.1482L16150 75Z" fill="#F5DE91" stroke="black" stroke-width="2"/>
<path d="M16671 175V84.0511L16698.1 75.9131V102.712L16743.2 67L16762.7 84.0511L16704.1 119.793L16777 144.147V175L16698.1 151.45V175H16671Z" fill="#F5DE91" stroke="black" stroke-width="2"/>
<path d="M16546.4 173L16539 85.4564H16557.5L16570.7 140.413L16599.6 126.052L16595.2 78H16613.1L16658 173H16622.7L16613.1 143.451L16570.7 173H16546.4Z" fill="#F5DE91" stroke="black" stroke-width="2"/>
<path d="M16447 172.089L16448.9 91.8222L16474.2 95.3714L16478.8 130.317H16491.4L16495.6 95.3714L16520.2 88L16526 174L16491.4 172.089L16495.6 140.692H16478.8L16470.6 172.089H16447Z" fill="#F5DE91" stroke="black" stroke-width="2"/>
<path d="M16357.8 90.9098L16348 110.376C16348 110.376 16344.7 115.762 16343.6 119.697C16341.2 128.679 16346.6 143.549 16346.6 143.549L16351.4 164.386L16368.5 171.514C16368.5 171.514 16385.1 177.107 16393.6 171.514C16399.2 167.774 16404.3 156.984 16404.3 156.984L16410.4 138.614L16415 115.31C16415 115.31 16404.4 96.4842 16393.6 90.9098C16380.9 84.3627 16357.8 90.9098 16357.8 90.9098Z" fill="#F5DE91" stroke="black" stroke-width="2"/>
<path d="M16365 134.675L16370.1 121.241L16377.7 110L16391.8 111.645L16393.5 136.046L16386.9 152.496L16368.4 149.206L16365 134.675Z" fill="#F5DE91" stroke="black" stroke-width="2"/>
<path d="M16254.5 80.724L16245 168.591L16263.4 173V121.666C16263.4 121.666 16283 134.858 16296.5 133.318C16311.6 131.586 16325.9 126.726 16329.6 110.013C16332.6 96.2355 16318.2 76 16318.2 76L16254.5 80.724Z" fill="#F5DE91" stroke="black" stroke-width="2"/>
<path d="M16275 113.54L16277.2 99.3678C16277.2 99.3678 16283.2 98.5402 16287 99.3678C16295.1 101.179 16304.2 113.54 16304.2 113.54H16275Z" fill="#F5DE91" stroke="black" stroke-width="2"/>
<path d="M17395.2 84.1633L17369 180.157C17369 180.157 17384 182.101 17391.5 181.996C17399.1 181.89 17410.8 180.157 17410.8 180.157C17410.8 180.157 17414.5 173.912 17418.2 171.33C17421.8 168.747 17428.9 167.284 17428.9 167.284L17424.1 177.95C17424.1 177.95 17426.9 179.458 17428.9 180.157C17430.8 180.856 17447.9 182.032 17449.9 180.157C17452 178.282 17454 174.272 17454 174.272L17446.2 132.712C17446.2 132.712 17442.8 118.569 17438.1 110.644C17433.5 102.72 17418.2 89.3124 17418.2 89.3124C17418.2 89.3124 17408.1 78.5558 17404.1 79.0142C17400.1 79.4727 17395.2 84.1633 17395.2 84.1633Z" fill="#FFF7E8" stroke="black" stroke-width="2"/>
<path d="M17407.7 99C17407.7 99 17404.8 127.083 17410.7 137.265C17416.5 147.446 17426.4 161.98 17433.6 156.758C17440.7 151.535 17437.1 143.087 17436.2 134.322C17435.2 125.557 17431.9 118.093 17426.9 110.416C17421.9 102.739 17407.7 99 17407.7 99Z" fill="#FFF7E8" stroke="black" stroke-width="2"/>
<path d="M17800 182.222V96.4444L17820.2 86L17824.2 140.444L17869.9 142.222L17871.9 157.556V178L17844.6 186L17800 182.222Z" fill="#FFF7E8"/>
<path d="M17888.1 182.222L17885.2 88.2222H17899.8L17918 182.222H17888.1Z" fill="#FFF7E8"/>
<path d="M17800 182.222V96.4444L17820.2 86L17824.2 140.444L17869.9 142.222L17871.9 157.556V178L17844.6 186L17800 182.222Z" stroke="black" stroke-width="2"/>
<path d="M17888.1 182.222L17885.2 88.2222H17899.8L17918 182.222H17888.1Z" stroke="black" stroke-width="2"/>
<path d="M17822 172.667L17825.5 158L17854.2 160L17850.8 172.667H17822Z" fill="#FFF7E8" stroke="black" stroke-width="2"/>
<path d="M17240.6 95.0446L17224.1 188.058L17198.4 174.383L17203.2 131.132L17167.7 107.001L17176.2 90.9227L17209.7 118.881L17219.3 83.7217L17240.6 95.0446Z" fill="#FFF7E8" stroke="black" stroke-width="2"/>
<path d="M17058 182V91.0511L17085.1 82.9131V109.712L17130.2 74L17149.7 91.0511L17091.1 126.793L17164 151.147V182L17085.1 158.45V182H17058Z" fill="#FFF7E8" stroke="black" stroke-width="2"/>
<path d="M17615.8 95.9098L17606 115.376C17606 115.376 17602.7 120.762 17601.6 124.697C17599.2 133.679 17604.6 148.549 17604.6 148.549L17609.4 169.386L17626.5 176.514C17626.5 176.514 17643.1 182.107 17651.6 176.514C17657.2 172.774 17662.3 161.984 17662.3 161.984L17668.4 143.614L17673 120.31C17673 120.31 17662.4 101.484 17651.6 95.9098C17638.9 89.3627 17615.8 95.9098 17615.8 95.9098Z" fill="#FFF7E8" stroke="black" stroke-width="2"/>
<path d="M17623 140.675L17628.1 127.241L17635.7 116L17649.8 117.645L17651.5 142.046L17644.9 158.496L17626.4 155.206L17623 140.675Z" fill="#FFF7E8" stroke="black" stroke-width="2"/>
<path d="M17275.5 90.5292L17266 174.773L17284.4 179V129.782C17284.4 129.782 17304 142.431 17317.5 140.955C17332.6 139.294 17346.9 134.634 17350.6 118.61C17353.6 105.401 17339.2 86 17339.2 86L17275.5 90.5292Z" fill="#FFF7E8" stroke="black" stroke-width="2"/>
<path d="M17295 120.94L17297.2 107.353C17297.2 107.353 17303.2 106.559 17307 107.353C17315.1 109.09 17324.2 120.94 17324.2 120.94H17295Z" fill="#FFF7E8" stroke="black" stroke-width="2"/>
<path d="M17706.5 97.1396L17697 174.136L17715.4 178V133.016C17715.4 133.016 17735 144.577 17748.5 143.227C17763.6 141.71 17777.9 137.45 17781.6 122.805C17784.6 110.732 17770.2 93 17770.2 93L17706.5 97.1396Z" fill="#FFF7E8" stroke="black" stroke-width="2"/>
<path d="M17725 125.741L17727.2 113.322C17727.2 113.322 17733.2 112.597 17737 113.322C17745.1 114.91 17754.2 125.741 17754.2 125.741H17725Z" fill="#FFF7E8" stroke="black" stroke-width="2"/>
<path d="M17472 103.121L17481.3 119.855L17509.8 121.505L17518.3 171H17545.6L17531.2 125.747L17577 130.697L17570.1 101L17472 103.121Z" fill="#FFF7E8" stroke="black" stroke-width="2"/>
<path d="M15808.2 72.1633L15782 168.157C15782 168.157 15797 170.101 15804.5 169.996C15812.1 169.89 15823.8 168.157 15823.8 168.157C15823.8 168.157 15827.5 161.912 15831.2 159.33C15834.8 156.747 15841.9 155.284 15841.9 155.284L15837.1 165.95C15837.1 165.95 15839.9 167.458 15841.9 168.157C15843.8 168.856 15860.9 170.032 15862.9 168.157C15865 166.282 15867 162.272 15867 162.272L15859.2 120.712C15859.2 120.712 15855.8 106.569 15851.1 98.6443C15846.5 90.7198 15831.2 77.3124 15831.2 77.3124C15831.2 77.3124 15821.1 66.5558 15817.1 67.0142C15813.1 67.4727 15808.2 72.1633 15808.2 72.1633Z" fill="#F5DE91" stroke="black" stroke-width="2"/>
<path d="M15820.7 86C15820.7 86 15817.8 114.083 15823.7 124.265C15829.5 134.446 15839.4 148.98 15846.6 143.758C15853.7 138.535 15850.1 130.087 15849.2 121.322C15848.2 112.557 15844.9 105.093 15839.9 97.4159C15834.9 89.7392 15820.7 86 15820.7 86Z" fill="#F5DE91" stroke="black" stroke-width="2"/>
<path d="M15677 169L15682.7 73.4806L15721.3 68L15755 81.3101L15746.7 103.624L15733.4 112.628L15714.9 120.457H15755V136.508V169H15677Z" fill="#F5DE91" stroke="black" stroke-width="2"/>
<path d="M15701 102.876V88H15715.4H15728.6L15721.8 102.876H15701Z" fill="#F5DE91"/>
<path d="M15715.4 154.942L15701 143.589L15711.6 135.76H15741.1L15747.2 143.589L15715.4 154.942Z" fill="#F5DE91"/>
<path d="M15701 102.876V88H15715.4H15728.6L15721.8 102.876H15701Z" stroke="black" stroke-width="2"/>
<path d="M15715.4 154.942L15701 143.589L15711.6 135.76H15741.1L15747.2 143.589L15715.4 154.942Z" stroke="black" stroke-width="2"/>
<path d="M14928 169V78.0511L14955.1 69.9131V96.7118L15000.2 61L15019.7 78.0511L14961.1 113.793L15034 138.147V169L14955.1 145.45V169H14928Z" fill="#F5DE91" stroke="black" stroke-width="2"/>
<path d="M15214.2 71L15175 169H15207.3L15234.7 115.294L15241.6 169H15272V150.175H15257.6L15241.6 71H15214.2Z" fill="#F5DE91" stroke="black" stroke-width="2"/>
<path d="M15090.8 85.9098L15081 105.376C15081 105.376 15077.7 110.762 15076.6 114.697C15074.2 123.679 15079.6 138.549 15079.6 138.549L15084.4 159.386L15101.5 166.514C15101.5 166.514 15118.1 172.107 15126.6 166.514C15132.2 162.774 15137.3 151.984 15137.3 151.984L15143.4 133.614L15148 110.31C15148 110.31 15137.4 91.4842 15126.6 85.9098C15113.9 79.3627 15090.8 85.9098 15090.8 85.9098Z" fill="#F5DE91" stroke="black" stroke-width="2"/>
<path d="M15098 129.675L15103.1 116.241L15110.7 105L15124.8 106.645L15126.5 131.046L15119.9 147.496L15101.4 144.206L15098 129.675Z" fill="#F5DE91" stroke="black" stroke-width="2"/>
<path d="M15592.8 89.9098L15583 109.376C15583 109.376 15579.7 114.762 15578.6 118.697C15576.2 127.679 15581.6 142.549 15581.6 142.549L15586.4 163.386L15603.5 170.514C15603.5 170.514 15620.1 176.107 15628.6 170.514C15634.2 166.774 15639.3 155.984 15639.3 155.984L15645.4 137.614L15650 114.31C15650 114.31 15639.4 95.4842 15628.6 89.9098C15615.9 83.3627 15592.8 89.9098 15592.8 89.9098Z" fill="#F5DE91" stroke="black" stroke-width="2"/>
<path d="M15600 133.675L15605.1 120.241L15612.7 109L15626.8 110.645L15628.5 135.046L15621.9 151.496L15603.4 148.206L15600 133.675Z" fill="#F5DE91" stroke="black" stroke-width="2"/>
<path d="M15446.2 153.758L15427 62.2227L15440.7 57L15457.7 126.27H15504.5V62.2227H15536V144.687L15565 173H15530.5L15524.5 153.758H15446.2Z" fill="#F5DE91" stroke="black" stroke-width="2"/>
<path d="M15314.2 165.714L15306 83.8351L15323.3 71L15334.6 127.43L15372.6 124.111L15395 145.134L15359.8 177L15314.2 165.714Z" fill="#F5DE91" stroke="black" stroke-width="2"/>
<path d="M15341.9 156.827L15337 149.081L15344.7 144.877L15368.4 142V151.516L15341.9 156.827Z" fill="#F5DE91" stroke="black" stroke-width="2"/>
</svg>
