<svg width="1093" height="131" viewBox="0 0 1093 131" fill="none" xmlns="http://www.w3.org/2000/svg">
<rect x="273.559" y="0.276367" width="273.556" height="130.592" fill="#FFF7E8"/>
<path d="M340.47 130.721H330.211V38.793H344.077L340.47 130.721ZM391.69 130.721H381.052V38.793H395.432L391.69 130.721ZM441.907 130.721H432.408V38.793H445.247L441.907 130.721ZM494.669 130.721H484.79V38.793H498.143L494.669 130.721ZM357.94 127.125H352.291V38.793H357.94V127.125ZM371.807 127.125H365.131V38.793H371.807V127.125ZM410.327 127.125H403.138V38.793H410.327V127.125ZM424.194 127.125H417.518V38.793H424.194V127.125ZM460.653 127.125H455.004V38.793H460.653V127.125ZM475.031 127.125H468.869V38.793H475.031V127.125Z" fill="#221E1B"/>
<path d="M278.348 33.9141V45.2123L307.107 63.4436L278.348 33.9141Z" fill="#2C3872" stroke="black" stroke-width="2"/>
<path d="M291.445 4.89764L315.583 44.6984L300.946 1.30273L291.445 4.89764Z" fill="#2C3872" stroke="black" stroke-width="2"/>
<path d="M541.801 24.4141V42.6454L519.975 63.4445L541.801 24.4141Z" fill="#2C3872" stroke="black" stroke-width="2"/>
<path d="M535.637 4.89844L511.499 44.6992L519.716 9.52046L535.637 4.89844Z" fill="#2C3872" stroke="black" stroke-width="2"/>
<path d="M340.47 130.721H330.211V38.793H344.077L340.47 130.721ZM391.69 130.721H381.052V38.793H395.432L391.69 130.721ZM441.907 130.721H432.408V38.793H445.247L441.907 130.721ZM494.669 130.721H484.79V38.793H498.143L494.669 130.721ZM357.94 127.125H352.291V38.793H357.94V127.125ZM371.807 127.125H365.131V38.793H371.807V127.125ZM410.327 127.125H403.138V38.793H410.327V127.125ZM424.194 127.125H417.518V38.793H424.194V127.125ZM460.653 127.125H455.004V38.793H460.653V127.125ZM475.031 127.125H468.869V38.793H475.031V127.125Z" fill="#221E1B"/>
<path d="M278.348 33.9141V45.2123L307.107 63.4436L278.348 33.9141Z" fill="#2C3872" stroke="black" stroke-width="2"/>
<path d="M291.445 4.89764L315.583 44.6984L300.946 1.30273L291.445 4.89764Z" fill="#2C3872" stroke="black" stroke-width="2"/>
<path d="M541.801 24.4141V42.6454L519.975 63.4445L541.801 24.4141Z" fill="#2C3872" stroke="black" stroke-width="2"/>
<path d="M535.637 4.89844L511.499 44.6992L519.716 9.52046L535.637 4.89844Z" fill="#2C3872" stroke="black" stroke-width="2"/>
<rect x="819.297" y="0.276367" width="273.556" height="130.592" fill="#FFF7E8"/>
<path d="M886.899 130.721H876.641V38.793H890.507L886.899 130.721ZM938.12 130.721H927.481V38.793H941.861L938.12 130.721ZM988.336 130.721H978.838V38.793H991.677L988.336 130.721ZM1041.1 130.721H1031.22V38.793H1044.57L1041.1 130.721ZM904.37 127.125H898.721V38.793H904.37V127.125ZM918.236 127.125H911.561V38.793H918.236V127.125ZM956.757 127.125H949.567V38.793H956.757V127.125ZM970.624 127.125H963.947V38.793H970.624V127.125ZM1007.08 127.125H1001.43V38.793H1007.08V127.125ZM1021.46 127.125H1015.3V38.793H1021.46V127.125Z" fill="#221E1B"/>
<path d="M824.773 33.9141V45.2123L853.533 63.4436L824.773 33.9141Z" fill="#2C3872" stroke="black" stroke-width="2"/>
<path d="M837.867 4.89764L862.004 44.6984L847.368 1.30273L837.867 4.89764Z" fill="#2C3872" stroke="black" stroke-width="2"/>
<path d="M1088.23 24.4141V42.6454L1066.4 63.4445L1088.23 24.4141Z" fill="#2C3872" stroke="black" stroke-width="2"/>
<path d="M1082.06 4.89844L1057.93 44.6992L1066.14 9.52046L1082.06 4.89844Z" fill="#2C3872" stroke="black" stroke-width="2"/>
<rect y="0.276367" width="273.556" height="130.592" fill="#FFF7E8"/>
<rect x="547.113" y="0.276367" width="272.182" height="130.592" fill="#FFF7E8"/>
<path d="M64.1191 130.721H49.3008V38.793H69.3301L64.1191 130.721ZM115.72 130.721H100.142V38.793H121.197L115.72 130.721ZM165.67 130.721H150.473V38.793H171.015L165.67 130.721ZM218.698 130.721H203.88V38.793H223.908L218.698 130.721ZM81.1396 127.125H72.9229V38.793H81.1396V127.125ZM95.5234 127.125H86.793V38.793H95.5234V127.125ZM134.04 127.125H123.769V38.793H134.04V127.125ZM148.42 127.125H136.607V38.793H148.42V127.125ZM183.852 127.125H175.635V38.793H183.852V127.125ZM199.258 127.125H189.5V38.793H199.258V127.125Z" fill="#221E1B"/>
</svg>
