<svg width="4147" height="196" viewBox="0 0 4147 196" fill="none" xmlns="http://www.w3.org/2000/svg">
<rect y="5" width="142" height="50" rx="7" fill="#FFF7E8"/>
<path d="M32.001 48.8906H23.8828V14.0361H34.8555L32.001 48.8906ZM60.2324 48.8906H51.6377V14.0361H63.2559L60.2324 48.8906ZM87.5098 48.8906H79.3916V14.0361H90.3643L87.5098 48.8906ZM116.556 48.8906H108.438V14.0361H119.41L116.556 48.8906ZM41.3105 47.5996H36.792V14.0361H41.3105V47.5996ZM49.0557 47.5996H44.5371V14.0361H49.0557V47.5996ZM70.3555 47.5996H64.5469V14.0361H70.3555V47.5996ZM78.1006 47.5996H71.6465V14.0361H78.1006V47.5996ZM97.4648 47.5996H92.9463V14.0361H97.4648V47.5996ZM105.855 47.5996H100.691V14.0361H105.855V47.5996Z" fill="#262525"/>
<rect x="49" y="123" width="199" height="61" rx="7" fill="#B44B47"/>
<path d="M59 170H58V143H59V170ZM62 170H61V140H62V170ZM66 170H65V143H66V170ZM68 170H67V136H68V170ZM71 170H70V136H71V170ZM75 170H74V135H75V170ZM77 170H76V135H77V170ZM80 170H79V143H80V170ZM84 170H83V140H84V170ZM87 170H86V143H87V170ZM89 170H88V136H89V170ZM93 170H92V136H93V170ZM96 170H95V135H96V170ZM98 170H97V135H98V170ZM102 170H101V143H102V170ZM105 170H104V140H105V170ZM108 170H107V143H108V170ZM111 170H110V136H111V170ZM114 170H113V136H114V170ZM117 170H116V135H117V170ZM120 170H119V135H120V170ZM123 170H122V143H123V170ZM126 170H125V140H126V170ZM130 170H129V143H130V170ZM132 170H131V136H132V170ZM135 170H134V136H135V170ZM139 170H138V135H139V170ZM141 170H140V135H141V170ZM144 170H143V143H144V170ZM148 170H147V140H148V170ZM151 170H150V143H151V170ZM153 170H152V136H153V170ZM156 170H155V136H156V170ZM160 170H159V135H160V170ZM162 170H161V135H162V170ZM165 170H164V143H165V170ZM169 170H168V140H169V170ZM172 170H171V143H172V170ZM174 170H173V136H174V170ZM178 170H177V136H178V170ZM181 170H180V135H181V170ZM183 170H182V135H183V170ZM187 170H186V143H187V170ZM190 170H189V140H190V170ZM193 170H192V143H193V170ZM196 170H195V136H196V170ZM199 170H198V136H199V170ZM202 170H201V135H202V170ZM205 170H204V135H205V170ZM208 170H207V143H208V170ZM211 170H210V140H211V170ZM215 170H214V143H215V170ZM217 170H216V136H217V170ZM220 170H219V136H220V170ZM224 170H223V135H224V170ZM226 170H225V135H226V170ZM229 170H228V143H229V170ZM233 170H232V140H233V170ZM236 170H235V143H236V170ZM238 170H237V136H238V170ZM242 170H241V136H242V170Z" fill="#221E1B"/>
<rect x="222" width="120" height="90" rx="10" fill="#F5DE91"/>
<path d="M293.48 73.037L307.609 15.291H320.917L306.818 73.037H293.48Z" fill="#221E1B"/>
<path d="M268.154 73.037L282.283 15.291H295.591L281.492 73.037H268.154Z" fill="#221E1B"/>
<path d="M242.828 73.037L256.957 15.291H270.265L256.165 73.037H242.828Z" fill="#221E1B"/>
<rect x="433" y="9" width="142" height="50" rx="7" fill="#B44B47"/>
<path d="M465.001 52.8906H456.883V18.0361H467.855L465.001 52.8906ZM493.232 52.8906H484.638V18.0361H496.256L493.232 52.8906ZM520.51 52.8906H512.392V18.0361H523.364L520.51 52.8906ZM549.556 52.8906H541.438V18.0361H552.41L549.556 52.8906ZM474.311 51.5996H469.792V18.0361H474.311V51.5996ZM482.056 51.5996H477.537V18.0361H482.056V51.5996ZM503.355 51.5996H497.547V18.0361H503.355V51.5996ZM511.101 51.5996H504.646V18.0361H511.101V51.5996ZM530.465 51.5996H525.946V18.0361H530.465V51.5996ZM538.855 51.5996H533.691V18.0361H538.855V51.5996Z" fill="#262525"/>
<rect x="482" y="127" width="199" height="61" rx="7" fill="#82A985"/>
<path d="M492 174H491V147H492V174ZM495 174H494V144H495V174ZM499 174H498V147H499V174ZM501 174H500V140H501V174ZM504 174H503V140H504V174ZM508 174H507V139H508V174ZM510 174H509V139H510V174ZM513 174H512V147H513V174ZM517 174H516V144H517V174ZM520 174H519V147H520V174ZM522 174H521V140H522V174ZM526 174H525V140H526V174ZM529 174H528V139H529V174ZM531 174H530V139H531V174ZM535 174H534V147H535V174ZM538 174H537V144H538V174ZM541 174H540V147H541V174ZM544 174H543V140H544V174ZM547 174H546V140H547V174ZM550 174H549V139H550V174ZM553 174H552V139H553V174ZM556 174H555V147H556V174ZM559 174H558V144H559V174ZM563 174H562V147H563V174ZM565 174H564V140H565V174ZM568 174H567V140H568V174ZM572 174H571V139H572V174ZM574 174H573V139H574V174ZM577 174H576V147H577V174ZM581 174H580V144H581V174ZM584 174H583V147H584V174ZM586 174H585V140H586V174ZM589 174H588V140H589V174ZM593 174H592V139H593V174ZM595 174H594V139H595V174ZM598 174H597V147H598V174ZM602 174H601V144H602V174ZM605 174H604V147H605V174ZM607 174H606V140H607V174ZM611 174H610V140H611V174ZM614 174H613V139H614V174ZM616 174H615V139H616V174ZM620 174H619V147H620V174ZM623 174H622V144H623V174ZM626 174H625V147H626V174ZM629 174H628V140H629V174ZM632 174H631V140H632V174ZM635 174H634V139H635V174ZM638 174H637V139H638V174ZM641 174H640V147H641V174ZM644 174H643V144H644V174ZM648 174H647V147H648V174ZM650 174H649V140H650V174ZM653 174H652V140H653V174ZM657 174H656V139H657V174ZM659 174H658V139H659V174ZM662 174H661V147H662V174ZM666 174H665V144H666V174ZM669 174H668V147H669V174ZM671 174H670V140H671V174ZM675 174H674V140H675V174Z" fill="#221E1B"/>
<rect x="655" y="4" width="120" height="90" rx="10" fill="#FFF7E8"/>
<path d="M726.48 77.037L740.609 19.291H753.917L739.818 77.037H726.48Z" fill="#221E1B"/>
<path d="M701.154 77.037L715.283 19.291H728.591L714.492 77.037H701.154Z" fill="#221E1B"/>
<path d="M675.828 77.037L689.957 19.291H703.265L689.165 77.037H675.828Z" fill="#221E1B"/>
<rect x="855" y="9" width="142" height="50" rx="7" fill="#FFF7E8"/>
<path d="M887.001 52.8906H878.883V18.0361H889.855L887.001 52.8906ZM915.232 52.8906H906.638V18.0361H918.256L915.232 52.8906ZM942.51 52.8906H934.392V18.0361H945.364L942.51 52.8906ZM971.556 52.8906H963.438V18.0361H974.41L971.556 52.8906ZM896.311 51.5996H891.792V18.0361H896.311V51.5996ZM904.056 51.5996H899.537V18.0361H904.056V51.5996ZM925.355 51.5996H919.547V18.0361H925.355V51.5996ZM933.101 51.5996H926.646V18.0361H933.101V51.5996ZM952.465 51.5996H947.946V18.0361H952.465V51.5996ZM960.855 51.5996H955.691V18.0361H960.855V51.5996Z" fill="#262525"/>
<rect x="904" y="127" width="199" height="61" rx="7" fill="#B44B47"/>
<path d="M914 174H913V147H914V174ZM917 174H916V144H917V174ZM921 174H920V147H921V174ZM923 174H922V140H923V174ZM926 174H925V140H926V174ZM930 174H929V139H930V174ZM932 174H931V139H932V174ZM935 174H934V147H935V174ZM939 174H938V144H939V174ZM942 174H941V147H942V174ZM944 174H943V140H944V174ZM948 174H947V140H948V174ZM951 174H950V139H951V174ZM953 174H952V139H953V174ZM957 174H956V147H957V174ZM960 174H959V144H960V174ZM963 174H962V147H963V174ZM966 174H965V140H966V174ZM969 174H968V140H969V174ZM972 174H971V139H972V174ZM975 174H974V139H975V174ZM978 174H977V147H978V174ZM981 174H980V144H981V174ZM985 174H984V147H985V174ZM987 174H986V140H987V174ZM990 174H989V140H990V174ZM994 174H993V139H994V174ZM996 174H995V139H996V174ZM999 174H998V147H999V174ZM1003 174H1002V144H1003V174ZM1006 174H1005V147H1006V174ZM1008 174H1007V140H1008V174ZM1011 174H1010V140H1011V174ZM1015 174H1014V139H1015V174ZM1017 174H1016V139H1017V174ZM1020 174H1019V147H1020V174ZM1024 174H1023V144H1024V174ZM1027 174H1026V147H1027V174ZM1029 174H1028V140H1029V174ZM1033 174H1032V140H1033V174ZM1036 174H1035V139H1036V174ZM1038 174H1037V139H1038V174ZM1042 174H1041V147H1042V174ZM1045 174H1044V144H1045V174ZM1048 174H1047V147H1048V174ZM1051 174H1050V140H1051V174ZM1054 174H1053V140H1054V174ZM1057 174H1056V139H1057V174ZM1060 174H1059V139H1060V174ZM1063 174H1062V147H1063V174ZM1066 174H1065V144H1066V174ZM1070 174H1069V147H1070V174ZM1072 174H1071V140H1072V174ZM1075 174H1074V140H1075V174ZM1079 174H1078V139H1079V174ZM1081 174H1080V139H1081V174ZM1084 174H1083V147H1084V174ZM1088 174H1087V144H1088V174ZM1091 174H1090V147H1091V174ZM1093 174H1092V140H1093V174ZM1097 174H1096V140H1097V174Z" fill="#221E1B"/>
<rect x="1077" y="4" width="120" height="90" rx="10" fill="#F5DE91"/>
<path d="M1148.48 77.037L1162.61 19.291H1175.92L1161.82 77.037H1148.48Z" fill="#221E1B"/>
<path d="M1123.15 77.037L1137.28 19.291H1150.59L1136.49 77.037H1123.15Z" fill="#221E1B"/>
<path d="M1097.83 77.037L1111.96 19.291H1125.26L1111.17 77.037H1097.83Z" fill="#221E1B"/>
<rect x="1288" y="13" width="142" height="50" rx="7" fill="#B44B47"/>
<path d="M1320 56.8906H1311.88V22.0361H1322.86L1320 56.8906ZM1348.23 56.8906H1339.64V22.0361H1351.26L1348.23 56.8906ZM1375.51 56.8906H1367.39V22.0361H1378.36L1375.51 56.8906ZM1404.56 56.8906H1396.44V22.0361H1407.41L1404.56 56.8906ZM1329.31 55.5996H1324.79V22.0361H1329.31V55.5996ZM1337.06 55.5996H1332.54V22.0361H1337.06V55.5996ZM1358.36 55.5996H1352.55V22.0361H1358.36V55.5996ZM1366.1 55.5996H1359.65V22.0361H1366.1V55.5996ZM1385.46 55.5996H1380.95V22.0361H1385.46V55.5996ZM1393.86 55.5996H1388.69V22.0361H1393.86V55.5996Z" fill="#262525"/>
<rect x="1337" y="131" width="199" height="61" rx="7" fill="#82A985"/>
<path d="M1347 178H1346V151H1347V178ZM1350 178H1349V148H1350V178ZM1354 178H1353V151H1354V178ZM1356 178H1355V144H1356V178ZM1359 178H1358V144H1359V178ZM1363 178H1362V143H1363V178ZM1365 178H1364V143H1365V178ZM1368 178H1367V151H1368V178ZM1372 178H1371V148H1372V178ZM1375 178H1374V151H1375V178ZM1377 178H1376V144H1377V178ZM1381 178H1380V144H1381V178ZM1384 178H1383V143H1384V178ZM1386 178H1385V143H1386V178ZM1390 178H1389V151H1390V178ZM1393 178H1392V148H1393V178ZM1396 178H1395V151H1396V178ZM1399 178H1398V144H1399V178ZM1402 178H1401V144H1402V178ZM1405 178H1404V143H1405V178ZM1408 178H1407V143H1408V178ZM1411 178H1410V151H1411V178ZM1414 178H1413V148H1414V178ZM1418 178H1417V151H1418V178ZM1420 178H1419V144H1420V178ZM1423 178H1422V144H1423V178ZM1427 178H1426V143H1427V178ZM1429 178H1428V143H1429V178ZM1432 178H1431V151H1432V178ZM1436 178H1435V148H1436V178ZM1439 178H1438V151H1439V178ZM1441 178H1440V144H1441V178ZM1444 178H1443V144H1444V178ZM1448 178H1447V143H1448V178ZM1450 178H1449V143H1450V178ZM1453 178H1452V151H1453V178ZM1457 178H1456V148H1457V178ZM1460 178H1459V151H1460V178ZM1462 178H1461V144H1462V178ZM1466 178H1465V144H1466V178ZM1469 178H1468V143H1469V178ZM1471 178H1470V143H1471V178ZM1475 178H1474V151H1475V178ZM1478 178H1477V148H1478V178ZM1481 178H1480V151H1481V178ZM1484 178H1483V144H1484V178ZM1487 178H1486V144H1487V178ZM1490 178H1489V143H1490V178ZM1493 178H1492V143H1493V178ZM1496 178H1495V151H1496V178ZM1499 178H1498V148H1499V178ZM1503 178H1502V151H1503V178ZM1505 178H1504V144H1505V178ZM1508 178H1507V144H1508V178ZM1512 178H1511V143H1512V178ZM1514 178H1513V143H1514V178ZM1517 178H1516V151H1517V178ZM1521 178H1520V148H1521V178ZM1524 178H1523V151H1524V178ZM1526 178H1525V144H1526V178ZM1530 178H1529V144H1530V178Z" fill="#221E1B"/>
<rect x="1510" y="8" width="120" height="90" rx="10" fill="#FFF7E8"/>
<path d="M1581.48 81.037L1595.61 23.291H1608.92L1594.82 81.037H1581.48Z" fill="#221E1B"/>
<path d="M1556.15 81.037L1570.28 23.291H1583.59L1569.49 81.037H1556.15Z" fill="#221E1B"/>
<path d="M1530.83 81.037L1544.96 23.291H1558.26L1544.17 81.037H1530.83Z" fill="#221E1B"/>
<rect x="1684" y="13" width="142" height="50" rx="7" fill="#FFF7E8"/>
<path d="M1716 56.8906H1707.88V22.0361H1718.86L1716 56.8906ZM1744.23 56.8906H1735.64V22.0361H1747.26L1744.23 56.8906ZM1771.51 56.8906H1763.39V22.0361H1774.36L1771.51 56.8906ZM1800.56 56.8906H1792.44V22.0361H1803.41L1800.56 56.8906ZM1725.31 55.5996H1720.79V22.0361H1725.31V55.5996ZM1733.06 55.5996H1728.54V22.0361H1733.06V55.5996ZM1754.36 55.5996H1748.55V22.0361H1754.36V55.5996ZM1762.1 55.5996H1755.65V22.0361H1762.1V55.5996ZM1781.46 55.5996H1776.95V22.0361H1781.46V55.5996ZM1789.86 55.5996H1784.69V22.0361H1789.86V55.5996Z" fill="#262525"/>
<rect x="1733" y="131" width="199" height="61" rx="7" fill="#B44B47"/>
<path d="M1743 178H1742V151H1743V178ZM1746 178H1745V148H1746V178ZM1750 178H1749V151H1750V178ZM1752 178H1751V144H1752V178ZM1755 178H1754V144H1755V178ZM1759 178H1758V143H1759V178ZM1761 178H1760V143H1761V178ZM1764 178H1763V151H1764V178ZM1768 178H1767V148H1768V178ZM1771 178H1770V151H1771V178ZM1773 178H1772V144H1773V178ZM1777 178H1776V144H1777V178ZM1780 178H1779V143H1780V178ZM1782 178H1781V143H1782V178ZM1786 178H1785V151H1786V178ZM1789 178H1788V148H1789V178ZM1792 178H1791V151H1792V178ZM1795 178H1794V144H1795V178ZM1798 178H1797V144H1798V178ZM1801 178H1800V143H1801V178ZM1804 178H1803V143H1804V178ZM1807 178H1806V151H1807V178ZM1810 178H1809V148H1810V178ZM1814 178H1813V151H1814V178ZM1816 178H1815V144H1816V178ZM1819 178H1818V144H1819V178ZM1823 178H1822V143H1823V178ZM1825 178H1824V143H1825V178ZM1828 178H1827V151H1828V178ZM1832 178H1831V148H1832V178ZM1835 178H1834V151H1835V178ZM1837 178H1836V144H1837V178ZM1840 178H1839V144H1840V178ZM1844 178H1843V143H1844V178ZM1846 178H1845V143H1846V178ZM1849 178H1848V151H1849V178ZM1853 178H1852V148H1853V178ZM1856 178H1855V151H1856V178ZM1858 178H1857V144H1858V178ZM1862 178H1861V144H1862V178ZM1865 178H1864V143H1865V178ZM1867 178H1866V143H1867V178ZM1871 178H1870V151H1871V178ZM1874 178H1873V148H1874V178ZM1877 178H1876V151H1877V178ZM1880 178H1879V144H1880V178ZM1883 178H1882V144H1883V178ZM1886 178H1885V143H1886V178ZM1889 178H1888V143H1889V178ZM1892 178H1891V151H1892V178ZM1895 178H1894V148H1895V178ZM1899 178H1898V151H1899V178ZM1901 178H1900V144H1901V178ZM1904 178H1903V144H1904V178ZM1908 178H1907V143H1908V178ZM1910 178H1909V143H1910V178ZM1913 178H1912V151H1913V178ZM1917 178H1916V148H1917V178ZM1920 178H1919V151H1920V178ZM1922 178H1921V144H1922V178ZM1926 178H1925V144H1926V178Z" fill="#221E1B"/>
<rect x="1906" y="8" width="120" height="90" rx="10" fill="#F5DE91"/>
<path d="M1977.48 81.037L1991.61 23.291H2004.92L1990.82 81.037H1977.48Z" fill="#221E1B"/>
<path d="M1952.15 81.037L1966.28 23.291H1979.59L1965.49 81.037H1952.15Z" fill="#221E1B"/>
<path d="M1926.83 81.037L1940.96 23.291H1954.26L1940.17 81.037H1926.83Z" fill="#221E1B"/>
<rect x="2117" y="17" width="142" height="50" rx="7" fill="#B44B47"/>
<path d="M2149 60.8906H2140.88V26.0361H2151.86L2149 60.8906ZM2177.23 60.8906H2168.64V26.0361H2180.26L2177.23 60.8906ZM2204.51 60.8906H2196.39V26.0361H2207.36L2204.51 60.8906ZM2233.56 60.8906H2225.44V26.0361H2236.41L2233.56 60.8906ZM2158.31 59.5996H2153.79V26.0361H2158.31V59.5996ZM2166.06 59.5996H2161.54V26.0361H2166.06V59.5996ZM2187.36 59.5996H2181.55V26.0361H2187.36V59.5996ZM2195.1 59.5996H2188.65V26.0361H2195.1V59.5996ZM2214.46 59.5996H2209.95V26.0361H2214.46V59.5996ZM2222.86 59.5996H2217.69V26.0361H2222.86V59.5996Z" fill="#262525"/>
<rect x="2166" y="135" width="199" height="61" rx="7" fill="#82A985"/>
<path d="M2176 182H2175V155H2176V182ZM2179 182H2178V152H2179V182ZM2183 182H2182V155H2183V182ZM2185 182H2184V148H2185V182ZM2188 182H2187V148H2188V182ZM2192 182H2191V147H2192V182ZM2194 182H2193V147H2194V182ZM2197 182H2196V155H2197V182ZM2201 182H2200V152H2201V182ZM2204 182H2203V155H2204V182ZM2206 182H2205V148H2206V182ZM2210 182H2209V148H2210V182ZM2213 182H2212V147H2213V182ZM2215 182H2214V147H2215V182ZM2219 182H2218V155H2219V182ZM2222 182H2221V152H2222V182ZM2225 182H2224V155H2225V182ZM2228 182H2227V148H2228V182ZM2231 182H2230V148H2231V182ZM2234 182H2233V147H2234V182ZM2237 182H2236V147H2237V182ZM2240 182H2239V155H2240V182ZM2243 182H2242V152H2243V182ZM2247 182H2246V155H2247V182ZM2249 182H2248V148H2249V182ZM2252 182H2251V148H2252V182ZM2256 182H2255V147H2256V182ZM2258 182H2257V147H2258V182ZM2261 182H2260V155H2261V182ZM2265 182H2264V152H2265V182ZM2268 182H2267V155H2268V182ZM2270 182H2269V148H2270V182ZM2273 182H2272V148H2273V182ZM2277 182H2276V147H2277V182ZM2279 182H2278V147H2279V182ZM2282 182H2281V155H2282V182ZM2286 182H2285V152H2286V182ZM2289 182H2288V155H2289V182ZM2291 182H2290V148H2291V182ZM2295 182H2294V148H2295V182ZM2298 182H2297V147H2298V182ZM2300 182H2299V147H2300V182ZM2304 182H2303V155H2304V182ZM2307 182H2306V152H2307V182ZM2310 182H2309V155H2310V182ZM2313 182H2312V148H2313V182ZM2316 182H2315V148H2316V182ZM2319 182H2318V147H2319V182ZM2322 182H2321V147H2322V182ZM2325 182H2324V155H2325V182ZM2328 182H2327V152H2328V182ZM2332 182H2331V155H2332V182ZM2334 182H2333V148H2334V182ZM2337 182H2336V148H2337V182ZM2341 182H2340V147H2341V182ZM2343 182H2342V147H2343V182ZM2346 182H2345V155H2346V182ZM2350 182H2349V152H2350V182ZM2353 182H2352V155H2353V182ZM2355 182H2354V148H2355V182ZM2359 182H2358V148H2359V182Z" fill="#221E1B"/>
<rect x="2339" y="12" width="120" height="90" rx="10" fill="#FFF7E8"/>
<path d="M2410.48 85.037L2424.61 27.291H2437.92L2423.82 85.037H2410.48Z" fill="#221E1B"/>
<path d="M2385.15 85.037L2399.28 27.291H2412.59L2398.49 85.037H2385.15Z" fill="#221E1B"/>
<path d="M2359.83 85.037L2373.96 27.291H2387.26L2373.17 85.037H2359.83Z" fill="#221E1B"/>
<rect x="2528" y="13" width="142" height="50" rx="7" fill="#FFF7E8"/>
<path d="M2560 56.8906H2551.88V22.0361H2562.86L2560 56.8906ZM2588.23 56.8906H2579.64V22.0361H2591.26L2588.23 56.8906ZM2615.51 56.8906H2607.39V22.0361H2618.36L2615.51 56.8906ZM2644.56 56.8906H2636.44V22.0361H2647.41L2644.56 56.8906ZM2569.31 55.5996H2564.79V22.0361H2569.31V55.5996ZM2577.06 55.5996H2572.54V22.0361H2577.06V55.5996ZM2598.36 55.5996H2592.55V22.0361H2598.36V55.5996ZM2606.1 55.5996H2599.65V22.0361H2606.1V55.5996ZM2625.46 55.5996H2620.95V22.0361H2625.46V55.5996ZM2633.86 55.5996H2628.69V22.0361H2633.86V55.5996Z" fill="#262525"/>
<rect x="2577" y="131" width="199" height="61" rx="7" fill="#B44B47"/>
<path d="M2587 178H2586V151H2587V178ZM2590 178H2589V148H2590V178ZM2594 178H2593V151H2594V178ZM2596 178H2595V144H2596V178ZM2599 178H2598V144H2599V178ZM2603 178H2602V143H2603V178ZM2605 178H2604V143H2605V178ZM2608 178H2607V151H2608V178ZM2612 178H2611V148H2612V178ZM2615 178H2614V151H2615V178ZM2617 178H2616V144H2617V178ZM2621 178H2620V144H2621V178ZM2624 178H2623V143H2624V178ZM2626 178H2625V143H2626V178ZM2630 178H2629V151H2630V178ZM2633 178H2632V148H2633V178ZM2636 178H2635V151H2636V178ZM2639 178H2638V144H2639V178ZM2642 178H2641V144H2642V178ZM2645 178H2644V143H2645V178ZM2648 178H2647V143H2648V178ZM2651 178H2650V151H2651V178ZM2654 178H2653V148H2654V178ZM2658 178H2657V151H2658V178ZM2660 178H2659V144H2660V178ZM2663 178H2662V144H2663V178ZM2667 178H2666V143H2667V178ZM2669 178H2668V143H2669V178ZM2672 178H2671V151H2672V178ZM2676 178H2675V148H2676V178ZM2679 178H2678V151H2679V178ZM2681 178H2680V144H2681V178ZM2684 178H2683V144H2684V178ZM2688 178H2687V143H2688V178ZM2690 178H2689V143H2690V178ZM2693 178H2692V151H2693V178ZM2697 178H2696V148H2697V178ZM2700 178H2699V151H2700V178ZM2702 178H2701V144H2702V178ZM2706 178H2705V144H2706V178ZM2709 178H2708V143H2709V178ZM2711 178H2710V143H2711V178ZM2715 178H2714V151H2715V178ZM2718 178H2717V148H2718V178ZM2721 178H2720V151H2721V178ZM2724 178H2723V144H2724V178ZM2727 178H2726V144H2727V178ZM2730 178H2729V143H2730V178ZM2733 178H2732V143H2733V178ZM2736 178H2735V151H2736V178ZM2739 178H2738V148H2739V178ZM2743 178H2742V151H2743V178ZM2745 178H2744V144H2745V178ZM2748 178H2747V144H2748V178ZM2752 178H2751V143H2752V178ZM2754 178H2753V143H2754V178ZM2757 178H2756V151H2757V178ZM2761 178H2760V148H2761V178ZM2764 178H2763V151H2764V178ZM2766 178H2765V144H2766V178ZM2770 178H2769V144H2770V178Z" fill="#221E1B"/>
<rect x="2750" y="8" width="120" height="90" rx="10" fill="#F5DE91"/>
<path d="M2821.48 81.037L2835.61 23.291H2848.92L2834.82 81.037H2821.48Z" fill="#221E1B"/>
<path d="M2796.15 81.037L2810.28 23.291H2823.59L2809.49 81.037H2796.15Z" fill="#221E1B"/>
<path d="M2770.83 81.037L2784.96 23.291H2798.26L2784.17 81.037H2770.83Z" fill="#221E1B"/>
<rect x="2961" y="17" width="142" height="50" rx="7" fill="#B44B47"/>
<path d="M2993 60.8906H2984.88V26.0361H2995.86L2993 60.8906ZM3021.23 60.8906H3012.64V26.0361H3024.26L3021.23 60.8906ZM3048.51 60.8906H3040.39V26.0361H3051.36L3048.51 60.8906ZM3077.56 60.8906H3069.44V26.0361H3080.41L3077.56 60.8906ZM3002.31 59.5996H2997.79V26.0361H3002.31V59.5996ZM3010.06 59.5996H3005.54V26.0361H3010.06V59.5996ZM3031.36 59.5996H3025.55V26.0361H3031.36V59.5996ZM3039.1 59.5996H3032.65V26.0361H3039.1V59.5996ZM3058.46 59.5996H3053.95V26.0361H3058.46V59.5996ZM3066.86 59.5996H3061.69V26.0361H3066.86V59.5996Z" fill="#262525"/>
<rect x="3010" y="135" width="199" height="61" rx="7" fill="#82A985"/>
<path d="M3020 182H3019V155H3020V182ZM3023 182H3022V152H3023V182ZM3027 182H3026V155H3027V182ZM3029 182H3028V148H3029V182ZM3032 182H3031V148H3032V182ZM3036 182H3035V147H3036V182ZM3038 182H3037V147H3038V182ZM3041 182H3040V155H3041V182ZM3045 182H3044V152H3045V182ZM3048 182H3047V155H3048V182ZM3050 182H3049V148H3050V182ZM3054 182H3053V148H3054V182ZM3057 182H3056V147H3057V182ZM3059 182H3058V147H3059V182ZM3063 182H3062V155H3063V182ZM3066 182H3065V152H3066V182ZM3069 182H3068V155H3069V182ZM3072 182H3071V148H3072V182ZM3075 182H3074V148H3075V182ZM3078 182H3077V147H3078V182ZM3081 182H3080V147H3081V182ZM3084 182H3083V155H3084V182ZM3087 182H3086V152H3087V182ZM3091 182H3090V155H3091V182ZM3093 182H3092V148H3093V182ZM3096 182H3095V148H3096V182ZM3100 182H3099V147H3100V182ZM3102 182H3101V147H3102V182ZM3105 182H3104V155H3105V182ZM3109 182H3108V152H3109V182ZM3112 182H3111V155H3112V182ZM3114 182H3113V148H3114V182ZM3117 182H3116V148H3117V182ZM3121 182H3120V147H3121V182ZM3123 182H3122V147H3123V182ZM3126 182H3125V155H3126V182ZM3130 182H3129V152H3130V182ZM3133 182H3132V155H3133V182ZM3135 182H3134V148H3135V182ZM3139 182H3138V148H3139V182ZM3142 182H3141V147H3142V182ZM3144 182H3143V147H3144V182ZM3148 182H3147V155H3148V182ZM3151 182H3150V152H3151V182ZM3154 182H3153V155H3154V182ZM3157 182H3156V148H3157V182ZM3160 182H3159V148H3160V182ZM3163 182H3162V147H3163V182ZM3166 182H3165V147H3166V182ZM3169 182H3168V155H3169V182ZM3172 182H3171V152H3172V182ZM3176 182H3175V155H3176V182ZM3178 182H3177V148H3178V182ZM3181 182H3180V148H3181V182ZM3185 182H3184V147H3185V182ZM3187 182H3186V147H3187V182ZM3190 182H3189V155H3190V182ZM3194 182H3193V152H3194V182ZM3197 182H3196V155H3197V182ZM3199 182H3198V148H3199V182ZM3203 182H3202V148H3203V182Z" fill="#221E1B"/>
<rect x="3183" y="12" width="120" height="90" rx="10" fill="#FFF7E8"/>
<path d="M3254.48 85.037L3268.61 27.291H3281.92L3267.82 85.037H3254.48Z" fill="#221E1B"/>
<path d="M3229.15 85.037L3243.28 27.291H3256.59L3242.49 85.037H3229.15Z" fill="#221E1B"/>
<path d="M3203.83 85.037L3217.96 27.291H3231.26L3217.17 85.037H3203.83Z" fill="#221E1B"/>
<rect x="3372" y="13" width="142" height="50" rx="7" fill="#FFF7E8"/>
<path d="M3404 56.8906H3395.88V22.0361H3406.86L3404 56.8906ZM3432.23 56.8906H3423.64V22.0361H3435.26L3432.23 56.8906ZM3459.51 56.8906H3451.39V22.0361H3462.36L3459.51 56.8906ZM3488.56 56.8906H3480.44V22.0361H3491.41L3488.56 56.8906ZM3413.31 55.5996H3408.79V22.0361H3413.31V55.5996ZM3421.06 55.5996H3416.54V22.0361H3421.06V55.5996ZM3442.36 55.5996H3436.55V22.0361H3442.36V55.5996ZM3450.1 55.5996H3443.65V22.0361H3450.1V55.5996ZM3469.46 55.5996H3464.95V22.0361H3469.46V55.5996ZM3477.86 55.5996H3472.69V22.0361H3477.86V55.5996Z" fill="#262525"/>
<rect x="3421" y="131" width="199" height="61" rx="7" fill="#B44B47"/>
<path d="M3431 178H3430V151H3431V178ZM3434 178H3433V148H3434V178ZM3438 178H3437V151H3438V178ZM3440 178H3439V144H3440V178ZM3443 178H3442V144H3443V178ZM3447 178H3446V143H3447V178ZM3449 178H3448V143H3449V178ZM3452 178H3451V151H3452V178ZM3456 178H3455V148H3456V178ZM3459 178H3458V151H3459V178ZM3461 178H3460V144H3461V178ZM3465 178H3464V144H3465V178ZM3468 178H3467V143H3468V178ZM3470 178H3469V143H3470V178ZM3474 178H3473V151H3474V178ZM3477 178H3476V148H3477V178ZM3480 178H3479V151H3480V178ZM3483 178H3482V144H3483V178ZM3486 178H3485V144H3486V178ZM3489 178H3488V143H3489V178ZM3492 178H3491V143H3492V178ZM3495 178H3494V151H3495V178ZM3498 178H3497V148H3498V178ZM3502 178H3501V151H3502V178ZM3504 178H3503V144H3504V178ZM3507 178H3506V144H3507V178ZM3511 178H3510V143H3511V178ZM3513 178H3512V143H3513V178ZM3516 178H3515V151H3516V178ZM3520 178H3519V148H3520V178ZM3523 178H3522V151H3523V178ZM3525 178H3524V144H3525V178ZM3528 178H3527V144H3528V178ZM3532 178H3531V143H3532V178ZM3534 178H3533V143H3534V178ZM3537 178H3536V151H3537V178ZM3541 178H3540V148H3541V178ZM3544 178H3543V151H3544V178ZM3546 178H3545V144H3546V178ZM3550 178H3549V144H3550V178ZM3553 178H3552V143H3553V178ZM3555 178H3554V143H3555V178ZM3559 178H3558V151H3559V178ZM3562 178H3561V148H3562V178ZM3565 178H3564V151H3565V178ZM3568 178H3567V144H3568V178ZM3571 178H3570V144H3571V178ZM3574 178H3573V143H3574V178ZM3577 178H3576V143H3577V178ZM3580 178H3579V151H3580V178ZM3583 178H3582V148H3583V178ZM3587 178H3586V151H3587V178ZM3589 178H3588V144H3589V178ZM3592 178H3591V144H3592V178ZM3596 178H3595V143H3596V178ZM3598 178H3597V143H3598V178ZM3601 178H3600V151H3601V178ZM3605 178H3604V148H3605V178ZM3608 178H3607V151H3608V178ZM3610 178H3609V144H3610V178ZM3614 178H3613V144H3614V178Z" fill="#221E1B"/>
<rect x="3594" y="8" width="120" height="90" rx="10" fill="#F5DE91"/>
<path d="M3665.48 81.037L3679.61 23.291H3692.92L3678.82 81.037H3665.48Z" fill="#221E1B"/>
<path d="M3640.15 81.037L3654.28 23.291H3667.59L3653.49 81.037H3640.15Z" fill="#221E1B"/>
<path d="M3614.83 81.037L3628.96 23.291H3642.26L3628.17 81.037H3614.83Z" fill="#221E1B"/>
<rect x="3805" y="17" width="142" height="50" rx="7" fill="#B44B47"/>
<path d="M3837 60.8906H3828.88V26.0361H3839.86L3837 60.8906ZM3865.23 60.8906H3856.64V26.0361H3868.26L3865.23 60.8906ZM3892.51 60.8906H3884.39V26.0361H3895.36L3892.51 60.8906ZM3921.56 60.8906H3913.44V26.0361H3924.41L3921.56 60.8906ZM3846.31 59.5996H3841.79V26.0361H3846.31V59.5996ZM3854.06 59.5996H3849.54V26.0361H3854.06V59.5996ZM3875.36 59.5996H3869.55V26.0361H3875.36V59.5996ZM3883.1 59.5996H3876.65V26.0361H3883.1V59.5996ZM3902.46 59.5996H3897.95V26.0361H3902.46V59.5996ZM3910.86 59.5996H3905.69V26.0361H3910.86V59.5996Z" fill="#262525"/>
<rect x="3854" y="135" width="199" height="61" rx="7" fill="#82A985"/>
<path d="M3864 182H3863V155H3864V182ZM3867 182H3866V152H3867V182ZM3871 182H3870V155H3871V182ZM3873 182H3872V148H3873V182ZM3876 182H3875V148H3876V182ZM3880 182H3879V147H3880V182ZM3882 182H3881V147H3882V182ZM3885 182H3884V155H3885V182ZM3889 182H3888V152H3889V182ZM3892 182H3891V155H3892V182ZM3894 182H3893V148H3894V182ZM3898 182H3897V148H3898V182ZM3901 182H3900V147H3901V182ZM3903 182H3902V147H3903V182ZM3907 182H3906V155H3907V182ZM3910 182H3909V152H3910V182ZM3913 182H3912V155H3913V182ZM3916 182H3915V148H3916V182ZM3919 182H3918V148H3919V182ZM3922 182H3921V147H3922V182ZM3925 182H3924V147H3925V182ZM3928 182H3927V155H3928V182ZM3931 182H3930V152H3931V182ZM3935 182H3934V155H3935V182ZM3937 182H3936V148H3937V182ZM3940 182H3939V148H3940V182ZM3944 182H3943V147H3944V182ZM3946 182H3945V147H3946V182ZM3949 182H3948V155H3949V182ZM3953 182H3952V152H3953V182ZM3956 182H3955V155H3956V182ZM3958 182H3957V148H3958V182ZM3961 182H3960V148H3961V182ZM3965 182H3964V147H3965V182ZM3967 182H3966V147H3967V182ZM3970 182H3969V155H3970V182ZM3974 182H3973V152H3974V182ZM3977 182H3976V155H3977V182ZM3979 182H3978V148H3979V182ZM3983 182H3982V148H3983V182ZM3986 182H3985V147H3986V182ZM3988 182H3987V147H3988V182ZM3992 182H3991V155H3992V182ZM3995 182H3994V152H3995V182ZM3998 182H3997V155H3998V182ZM4001 182H4000V148H4001V182ZM4004 182H4003V148H4004V182ZM4007 182H4006V147H4007V182ZM4010 182H4009V147H4010V182ZM4013 182H4012V155H4013V182ZM4016 182H4015V152H4016V182ZM4020 182H4019V155H4020V182ZM4022 182H4021V148H4022V182ZM4025 182H4024V148H4025V182ZM4029 182H4028V147H4029V182ZM4031 182H4030V147H4031V182ZM4034 182H4033V155H4034V182ZM4038 182H4037V152H4038V182ZM4041 182H4040V155H4041V182ZM4043 182H4042V148H4043V182ZM4047 182H4046V148H4047V182Z" fill="#221E1B"/>
<rect x="4027" y="12" width="120" height="90" rx="10" fill="#FFF7E8"/>
<path d="M4098.48 85.037L4112.61 27.291H4125.92L4111.82 85.037H4098.48Z" fill="#221E1B"/>
<path d="M4073.15 85.037L4087.28 27.291H4100.59L4086.49 85.037H4073.15Z" fill="#221E1B"/>
<path d="M4047.83 85.037L4061.96 27.291H4075.26L4061.17 85.037H4047.83Z" fill="#221E1B"/>
</svg>
