<svg width="7542" height="69" viewBox="0 0 7542 69" fill="none" xmlns="http://www.w3.org/2000/svg">
<rect width="2515" height="69" fill="#2C3872"/>
<path d="M577.846 21C577.846 21 580.311 41.9616 572.091 43.9056C570.148 44.3649 567.004 43.9056 567.004 43.9056L566 52H570.083V48.3833L596.587 49.3306V52H600V45.5417L594.646 43.9056L588.154 21H577.846Z" fill="#82A985" stroke="black" stroke-width="0.5"/>
<path d="M581.347 30.4629C579.908 31.5733 580.001 35.199 580.001 35.199L584.024 42.949L587.973 39.849L585.563 30.4629C585.563 30.4629 582.696 29.4213 581.347 30.4629Z" fill="#82A985" stroke="black" stroke-width="0.5"/>
<path d="M426 21L428.667 49.8275L451 52L449.167 45.0647L435.417 46.2345V39.5499L440.833 38.4636V34.8706L434.167 36.7089L433.25 30.2749H448.167L451 23.1725L426 21Z" fill="#82A985" stroke="black" stroke-width="0.5"/>
<path d="M458 51V23.21L466.426 20.7234V28.912L480.47 18L486.551 23.21L468.299 34.1311L491 41.5727V51L466.426 43.8043V51H458Z" fill="#82A985" stroke="black" stroke-width="0.5"/>
<path d="M533 51.3111L533.681 22.3778L542.625 23.6571L544.278 36.254H548.75L550.208 23.6571L558.958 21L561 52L548.75 51.3111L550.208 39.9937H544.278L541.361 51.3111H533Z" fill="#82A985" stroke="black" stroke-width="0.5"/>
<path d="M504.334 21.0827L500.817 28.3258C500.817 28.3258 499.625 30.3302 499.234 31.7943C498.342 35.1365 500.289 40.6696 500.289 40.6696L502.048 48.4227L508.204 51.0751C508.204 51.0751 514.213 53.1562 517.261 51.0751C519.3 49.6833 521.131 45.6683 521.131 45.6683L523.329 38.8333L525 30.162C525 30.162 521.17 23.1569 517.261 21.0827C512.671 18.6466 504.334 21.0827 504.334 21.0827Z" fill="#82A985" stroke="black" stroke-width="0.5"/>
<path d="M507 37.1813L508.847 32.1826L511.573 28L516.673 28.6121L517.289 37.6914L514.914 43.8123L508.231 42.5881L507 37.1813Z" fill="#82A985" stroke="black" stroke-width="0.5"/>
<path d="M413.806 20L419.038 28.072L413.806 31.406L409.927 28.7739H404.876L402.981 38.1619L411.371 42.8998L417.956 38.1619L424 41.9347L416.693 50.9718C416.693 50.9718 399.768 51.8003 395.313 44.4791C391.185 37.6942 398.11 24.4747 398.11 24.4747L413.806 20Z" fill="#82A985" stroke="black" stroke-width="0.5"/>
<path d="M742.846 22C742.846 22 745.311 42.2854 737.091 44.1667C735.148 44.6112 732.004 44.1667 732.004 44.1667L731 52H735.083V48.5L761.587 49.4167V52H765V45.75L759.646 44.1667L753.154 22H742.846Z" fill="#82A985" stroke="black" stroke-width="0.5"/>
<path d="M746.347 31.448C744.908 32.5226 745.001 36.0313 745.001 36.0313L749.024 43.5313L752.973 40.5313L750.563 31.448C750.563 31.448 747.696 30.44 746.347 31.448Z" fill="#82A985" stroke="black" stroke-width="0.5"/>
<path d="M664 21L666.667 49.8275L689 52L687.167 45.0647L673.417 46.2345V39.5499L678.833 38.4636V34.8706L672.167 36.7089L671.25 30.2749H686.167L689 23.1725L664 21Z" fill="#82A985" stroke="black" stroke-width="0.5"/>
<path d="M697 52.2889L697.705 22.4222L706.969 23.7429L708.681 36.746H713.312L714.823 23.7429L723.885 21L726 53L713.312 52.2889L714.823 40.6063H708.681L705.66 52.2889H697Z" fill="#82A985" stroke="black" stroke-width="0.5"/>
<path d="M632.329 22.3881H621.681L633.248 39.199L619 52H628.499L639.3 39.199L641.445 52L654.008 50.1493L645.352 35.9602L656 21H649.565L639.3 30.3308L632.329 22.3881Z" fill="#82A985" stroke="black" stroke-width="0.5"/>
<path d="M129 51L130.748 21.6822L142.631 20L153 24.0853L150.437 30.9341L146.359 33.6977L140.65 36.1008H153V41.0271V51H129Z" fill="#82A985" stroke="black" stroke-width="0.5"/>
<path d="M136 30.5659V26H140.427H144.505L142.408 30.5659H136Z" fill="#82A985"/>
<path d="M140.427 46.5465L136 43.062L139.262 40.6589H148.35L150.214 43.062L140.427 46.5465Z" fill="#82A985"/>
<path d="M136 30.5659V26H140.427H144.505L142.408 30.5659H136Z" stroke="black" stroke-width="0.5"/>
<path d="M140.427 46.5465L136 43.062L139.262 40.6589H148.35L150.214 43.062L140.427 46.5465Z" stroke="black" stroke-width="0.5"/>
<path d="M266 50.8289V24.2378L272.158 21L273.376 37.8778L287.316 38.4289L287.925 43.1822V49.52L279.602 52L266 50.8289Z" fill="#82A985"/>
<path d="M292.865 50.8289L291.985 21.6889H296.451L302 50.8289H292.865Z" fill="#82A985"/>
<path d="M266 50.8289V24.2378L272.158 21L273.376 37.8778L287.316 38.4289L287.925 43.1822V49.52L279.602 52L266 50.8289Z" stroke="black" stroke-width="0.5"/>
<path d="M292.865 50.8289L291.985 21.6889H296.451L302 50.8289H292.865Z" stroke="black" stroke-width="0.5"/>
<path d="M273 47.5467L274.083 43L282.812 43.62L281.797 47.5467H273Z" fill="#82A985" stroke="black" stroke-width="0.5"/>
<path d="M160 21L162.667 49.8275L185 52L183.167 45.0647L169.417 46.2345V39.5499L174.833 38.4636V34.8706L168.167 36.7089L167.25 30.2749H182.167L185 23.1725L160 21Z" fill="#82A985" stroke="black" stroke-width="0.5"/>
<path d="M80.3766 23.2259L73.8457 54.0004L66.1797 49.9239L68.3417 35.659L57.8309 28.3087L60.7081 22.8982L70.5339 31.5365L74.0288 19.8504L80.3766 23.2259Z" fill="#82A985" stroke="black" stroke-width="0.5"/>
<path d="M86 51V23.21L94.4261 20.7234V28.912L108.47 18L114.551 23.21L96.2985 34.1311L119 41.5727V51L94.4261 43.8043V51H86Z" fill="#82A985" stroke="black" stroke-width="0.5"/>
<path d="M333.244 21.9814L346.972 50.9531L347.648 52.3809H334.562L334.337 51.6924L331.807 43.9561L319.94 52.2021L319.684 52.3809H311.04L310.962 51.4658L308.688 24.7676L308.596 23.6836H316.115L316.3 24.4482L320.048 39.9902L327.154 36.4717L325.87 22.501L325.77 21.4092H332.973L333.244 21.9814ZM326.993 19.1416L324.214 21.415L323.938 21.6416H318.742L318.46 21.3955L315.849 19.1211L313.835 17.3672H329.161L326.993 19.1416Z" fill="#82A985"/>
<path d="M333.244 21.9814L333.47 21.8744L333.47 21.8743L333.244 21.9814ZM346.972 50.9531L346.746 51.0602L346.746 51.0602L346.972 50.9531ZM347.648 52.3809V52.6309H348.044L347.874 52.2738L347.648 52.3809ZM334.562 52.3809L334.325 52.4587L334.381 52.6309H334.562V52.3809ZM334.337 51.6924L334.099 51.7701L334.099 51.7702L334.337 51.6924ZM331.807 43.9561L332.044 43.8783L331.94 43.5591L331.664 43.7508L331.807 43.9561ZM319.94 52.2021L319.798 51.9969L319.798 51.9969L319.94 52.2021ZM319.684 52.3809V52.6309H319.762L319.826 52.5861L319.684 52.3809ZM311.04 52.3809L310.791 52.4021L310.81 52.6309H311.04V52.3809ZM310.962 51.4658L310.713 51.487L310.713 51.4871L310.962 51.4658ZM308.688 24.7676L308.938 24.7464L308.938 24.7463L308.688 24.7676ZM308.596 23.6836V23.4336H308.323L308.347 23.7049L308.596 23.6836ZM316.115 23.6836L316.358 23.6249L316.312 23.4336H316.115V23.6836ZM316.3 24.4482L316.543 24.3896L316.543 24.3896L316.3 24.4482ZM320.048 39.9902L319.805 40.0488L319.878 40.3532L320.159 40.2143L320.048 39.9902ZM327.154 36.4717L327.265 36.6957L327.419 36.6196L327.403 36.4488L327.154 36.4717ZM325.87 22.501L326.119 22.4781L326.119 22.478L325.87 22.501ZM325.77 21.4092V21.1592H325.495L325.521 21.4321L325.77 21.4092ZM332.973 21.4092L333.199 21.302L333.131 21.1592H332.973V21.4092ZM326.993 19.1416L327.151 19.3351L327.152 19.3351L326.993 19.1416ZM324.214 21.415L324.056 21.2215L324.055 21.2217L324.214 21.415ZM323.938 21.6416V21.8916H324.027L324.096 21.8349L323.938 21.6416ZM318.742 21.6416L318.578 21.83L318.648 21.8916H318.742V21.6416ZM318.46 21.3955L318.624 21.2071L318.624 21.207L318.46 21.3955ZM315.849 19.1211L315.684 19.3096L315.684 19.3096L315.849 19.1211ZM313.835 17.3672V17.1172H313.167L313.671 17.5557L313.835 17.3672ZM329.161 17.3672L329.319 17.5606L329.861 17.1172H329.161V17.3672ZM333.244 21.9814L333.018 22.0885L346.746 51.0602L346.972 50.9531L347.198 50.8461L333.47 21.8744L333.244 21.9814ZM346.972 50.9531L346.746 51.0602L347.423 52.4879L347.648 52.3809L347.874 52.2738L347.198 50.846L346.972 50.9531ZM347.648 52.3809V52.1309H334.562V52.3809V52.6309H347.648V52.3809ZM334.562 52.3809L334.8 52.303L334.574 51.6145L334.337 51.6924L334.099 51.7702L334.325 52.4587L334.562 52.3809ZM334.337 51.6924L334.575 51.6147L332.044 43.8783L331.807 43.9561L331.569 44.0338L334.099 51.7701L334.337 51.6924ZM331.807 43.9561L331.664 43.7508L319.798 51.9969L319.94 52.2021L320.083 52.4074L331.949 44.1614L331.807 43.9561ZM319.94 52.2021L319.798 51.9969L319.541 52.1756L319.684 52.3809L319.826 52.5861L320.083 52.4074L319.94 52.2021ZM319.684 52.3809V52.1309H311.04V52.3809V52.6309H319.684V52.3809ZM311.04 52.3809L311.289 52.3596L311.211 51.4446L310.962 51.4658L310.713 51.4871L310.791 52.4021L311.04 52.3809ZM310.962 51.4658L311.211 51.4446L308.938 24.7464L308.688 24.7676L308.439 24.7888L310.713 51.487L310.962 51.4658ZM308.688 24.7676L308.938 24.7463L308.845 23.6623L308.596 23.6836L308.347 23.7049L308.439 24.7889L308.688 24.7676ZM308.596 23.6836V23.9336H316.115V23.6836V23.4336H308.596V23.6836ZM316.115 23.6836L315.872 23.7423L316.057 24.5069L316.3 24.4482L316.543 24.3896L316.358 23.6249L316.115 23.6836ZM316.3 24.4482L316.057 24.5069L319.805 40.0488L320.048 39.9902L320.291 39.9316L316.543 24.3896L316.3 24.4482ZM320.048 39.9902L320.159 40.2143L327.265 36.6957L327.154 36.4717L327.043 36.2476L319.937 39.7662L320.048 39.9902ZM327.154 36.4717L327.403 36.4488L326.119 22.4781L325.87 22.501L325.621 22.5239L326.905 36.4946L327.154 36.4717ZM325.87 22.501L326.119 22.478L326.018 21.3862L325.77 21.4092L325.521 21.4321L325.621 22.5239L325.87 22.501ZM325.77 21.4092V21.6592H332.973V21.4092V21.1592H325.77V21.4092ZM332.973 21.4092L332.747 21.5163L333.018 22.0886L333.244 21.9814L333.47 21.8743L333.199 21.302L332.973 21.4092ZM326.993 19.1416L326.835 18.9481L324.056 21.2215L324.214 21.415L324.372 21.6085L327.151 19.3351L326.993 19.1416ZM324.214 21.415L324.055 21.2217L323.779 21.4483L323.938 21.6416L324.096 21.8349L324.372 21.6084L324.214 21.415ZM323.938 21.6416V21.3916H318.742V21.6416V21.8916H323.938V21.6416ZM318.742 21.6416L318.906 21.4532L318.624 21.2071L318.46 21.3955L318.296 21.5839L318.578 21.83L318.742 21.6416ZM318.46 21.3955L318.624 21.207L316.013 18.9326L315.849 19.1211L315.684 19.3096L318.296 21.584L318.46 21.3955ZM315.849 19.1211L316.013 18.9326L313.999 17.1787L313.835 17.3672L313.671 17.5557L315.684 19.3096L315.849 19.1211ZM313.835 17.3672V17.6172H329.161V17.3672V17.1172H313.835V17.3672ZM329.161 17.3672L329.003 17.1737L326.835 18.9481L326.993 19.1416L327.152 19.3351L329.319 17.5606L329.161 17.3672Z" fill="black"/>
<path d="M193 51.3111L193.705 22.3778L202.969 23.6571L204.681 36.254H209.312L210.823 23.6571L219.885 21L222 52L209.312 51.3111L210.823 39.9937H204.681L201.66 51.3111H193Z" fill="#82A985" stroke="black" stroke-width="0.5"/>
<path d="M229 51.3111L229.705 22.3778L238.969 23.6571L240.681 36.254H245.312L246.823 23.6571L255.885 21L258 52L245.312 51.3111L246.823 39.9937H240.681L237.66 51.3111H229Z" fill="#82A985" stroke="black" stroke-width="0.5"/>
<path d="M25 21L27.0377 49.4672L44.6981 51L55 48.4818L52.5094 35.6715L48.2075 34.6861C48.2075 34.6861 39.2573 40.0995 34.7358 37.7518C30.2144 35.4042 29.6415 26.0365 29.6415 26.0365L52.5094 29.5401V22.7518L25 21Z" fill="#82A985" stroke="black" stroke-width="0.5"/>
<path d="M46.9057 39.1663C44.9281 38.1543 38.3566 42.0526 37.0566 42.9984C35.7566 43.9443 34 45.7356 34 45.7356L46.2264 46.3926C46.2264 46.3926 50.0017 45.4377 50.4151 43.5459C50.8285 41.6541 48.8832 40.1783 46.9057 39.1663Z" fill="#82A985" stroke="black" stroke-width="0.5"/>
<path d="M614.723 32H600V38.1277L617 40L614.723 32Z" fill="#82A985" stroke="black" stroke-width="0.5"/>
<path d="M2261.85 22C2261.85 22 2264.31 42.9616 2256.09 44.9056C2254.15 45.3649 2251 44.9056 2251 44.9056L2250 53H2254.08V49.3833L2280.59 50.3306V53H2284V46.5417L2278.65 44.9056L2272.15 22H2261.85Z" fill="#82A985" stroke="black" stroke-width="0.5"/>
<path d="M2265.35 31.4629C2263.91 32.5733 2264 36.199 2264 36.199L2268.02 43.949L2271.97 40.849L2269.56 31.4629C2269.56 31.4629 2266.7 30.4213 2265.35 31.4629Z" fill="#82A985" stroke="black" stroke-width="0.5"/>
<path d="M2110 22L2112.67 50.8275L2135 53L2133.17 46.0647L2119.42 47.2345V40.5499L2124.83 39.4636V35.8706L2118.17 37.7089L2117.25 31.2749H2132.17L2135 24.1725L2110 22Z" fill="#82A985" stroke="black" stroke-width="0.5"/>
<path d="M2142 52V24.21L2150.43 21.7234V29.912L2164.47 19L2170.55 24.21L2152.3 35.1311L2175 42.5727V52L2150.43 44.8043V52H2142Z" fill="#82A985" stroke="black" stroke-width="0.5"/>
<path d="M2217 52.3111L2217.68 23.3778L2226.62 24.6571L2228.28 37.254H2232.75L2234.21 24.6571L2242.96 22L2245 53L2232.75 52.3111L2234.21 40.9937H2228.28L2225.36 52.3111H2217Z" fill="#82A985" stroke="black" stroke-width="0.5"/>
<path d="M2188.33 22.0827L2184.82 29.3258C2184.82 29.3258 2183.62 31.3302 2183.23 32.7943C2182.34 36.1365 2184.29 41.6696 2184.29 41.6696L2186.05 49.4227L2192.2 52.0751C2192.2 52.0751 2198.21 54.1562 2201.26 52.0751C2203.3 50.6833 2205.13 46.6683 2205.13 46.6683L2207.33 39.8333L2209 31.162C2209 31.162 2205.17 24.1569 2201.26 22.0827C2196.67 19.6466 2188.33 22.0827 2188.33 22.0827Z" fill="#82A985" stroke="black" stroke-width="0.5"/>
<path d="M2191 38.1813L2192.85 33.1826L2195.57 29L2200.67 29.6121L2201.29 38.6914L2198.91 44.8123L2192.23 43.5881L2191 38.1813Z" fill="#82A985" stroke="black" stroke-width="0.5"/>
<path d="M2097.81 21L2103.04 29.072L2097.81 32.406L2093.93 29.7739H2088.88L2086.98 39.1619L2095.37 43.8998L2101.96 39.1619L2108 42.9347L2100.69 51.9718C2100.69 51.9718 2083.77 52.8003 2079.31 45.4791C2075.18 38.6942 2082.11 25.4747 2082.11 25.4747L2097.81 21Z" fill="#82A985" stroke="black" stroke-width="0.5"/>
<path d="M2426.85 23C2426.85 23 2429.31 43.2854 2421.09 45.1667C2419.15 45.6112 2416 45.1667 2416 45.1667L2415 53H2419.08V49.5L2445.59 50.4167V53H2449V46.75L2443.65 45.1667L2437.15 23H2426.85Z" fill="#82A985" stroke="black" stroke-width="0.5"/>
<path d="M2430.35 32.448C2428.91 33.5226 2429 37.0313 2429 37.0313L2433.02 44.5313L2436.97 41.5313L2434.56 32.448C2434.56 32.448 2431.7 31.44 2430.35 32.448Z" fill="#82A985" stroke="black" stroke-width="0.5"/>
<path d="M2348 22L2350.67 50.8275L2373 53L2371.17 46.0647L2357.42 47.2345V40.5499L2362.83 39.4636V35.8706L2356.17 37.7089L2355.25 31.2749H2370.17L2373 24.1725L2348 22Z" fill="#82A985" stroke="black" stroke-width="0.5"/>
<path d="M2381 53.2889L2381.7 23.4222L2390.97 24.7429L2392.68 37.746H2397.31L2398.82 24.7429L2407.89 22L2410 54L2397.31 53.2889L2398.82 41.6063H2392.68L2389.66 53.2889H2381Z" fill="#82A985" stroke="black" stroke-width="0.5"/>
<path d="M2316.33 23.3881H2305.68L2317.25 40.199L2303 53H2312.5L2323.3 40.199L2325.45 53L2338.01 51.1493L2329.35 36.9602L2340 22H2333.57L2323.3 31.3308L2316.33 23.3881Z" fill="#82A985" stroke="black" stroke-width="0.5"/>
<path d="M1813 52L1814.75 22.6822L1826.63 21L1837 25.0853L1834.44 31.9341L1830.36 34.6977L1824.65 37.1008H1837V42.0271V52H1813Z" fill="#82A985" stroke="black" stroke-width="0.5"/>
<path d="M1820 31.5659V27H1824.43H1828.5L1826.41 31.5659H1820Z" fill="#82A985"/>
<path d="M1824.43 47.5465L1820 44.062L1823.26 41.6589H1832.35L1834.21 44.062L1824.43 47.5465Z" fill="#82A985"/>
<path d="M1820 31.5659V27H1824.43H1828.5L1826.41 31.5659H1820Z" stroke="black" stroke-width="0.5"/>
<path d="M1824.43 47.5465L1820 44.062L1823.26 41.6589H1832.35L1834.21 44.062L1824.43 47.5465Z" stroke="black" stroke-width="0.5"/>
<path d="M1950 51.8289V25.2378L1956.16 22L1957.38 38.8778L1971.32 39.4289L1971.92 44.1822V50.52L1963.6 53L1950 51.8289Z" fill="#82A985"/>
<path d="M1976.86 51.8289L1975.98 22.6889H1980.45L1986 51.8289H1976.86Z" fill="#82A985"/>
<path d="M1950 51.8289V25.2378L1956.16 22L1957.38 38.8778L1971.32 39.4289L1971.92 44.1822V50.52L1963.6 53L1950 51.8289Z" stroke="black" stroke-width="0.5"/>
<path d="M1976.86 51.8289L1975.98 22.6889H1980.45L1986 51.8289H1976.86Z" stroke="black" stroke-width="0.5"/>
<path d="M1957 48.5467L1958.08 44L1966.81 44.62L1965.8 48.5467H1957Z" fill="#82A985" stroke="black" stroke-width="0.5"/>
<path d="M1844 22L1846.67 50.8275L1869 53L1867.17 46.0647L1853.42 47.2345V40.5499L1858.83 39.4636V35.8706L1852.17 37.7089L1851.25 31.2749H1866.17L1869 24.1725L1844 22Z" fill="#82A985" stroke="black" stroke-width="0.5"/>
<path d="M1764.38 24.2259L1757.85 55.0004L1750.18 50.9239L1752.34 36.659L1741.83 29.3087L1744.71 23.8982L1754.53 32.5365L1758.03 20.8504L1764.38 24.2259Z" fill="#82A985" stroke="black" stroke-width="0.5"/>
<path d="M1770 52V24.21L1778.43 21.7234V29.912L1792.47 19L1798.55 24.21L1780.3 35.1311L1803 42.5727V52L1778.43 44.8043V52H1770Z" fill="#82A985" stroke="black" stroke-width="0.5"/>
<path d="M2017.24 22.9814L2030.97 51.9531L2031.65 53.3809H2018.56L2018.34 52.6924L2015.81 44.9561L2003.94 53.2021L2003.68 53.3809H1995.04L1994.96 52.4658L1992.69 25.7676L1992.6 24.6836H2000.12L2000.3 25.4482L2004.05 40.9902L2011.15 37.4717L2009.87 23.501L2009.77 22.4092H2016.97L2017.24 22.9814ZM2010.99 20.1416L2008.21 22.415L2007.94 22.6416H2002.74L2002.46 22.3955L1999.85 20.1211L1997.83 18.3672H2013.16L2010.99 20.1416Z" fill="#82A985"/>
<path d="M2017.24 22.9814L2017.47 22.8744L2017.47 22.8743L2017.24 22.9814ZM2030.97 51.9531L2030.75 52.0602L2030.75 52.0602L2030.97 51.9531ZM2031.65 53.3809V53.6309H2032.04L2031.87 53.2738L2031.65 53.3809ZM2018.56 53.3809L2018.32 53.4587L2018.38 53.6309H2018.56V53.3809ZM2018.34 52.6924L2018.1 52.7701L2018.1 52.7702L2018.34 52.6924ZM2015.81 44.9561L2016.04 44.8783L2015.94 44.5591L2015.66 44.7508L2015.81 44.9561ZM2003.94 53.2021L2003.8 52.9969L2003.8 52.9969L2003.94 53.2021ZM2003.68 53.3809V53.6309H2003.76L2003.83 53.5861L2003.68 53.3809ZM1995.04 53.3809L1994.79 53.4021L1994.81 53.6309H1995.04V53.3809ZM1994.96 52.4658L1994.71 52.487L1994.71 52.4871L1994.96 52.4658ZM1992.69 25.7676L1992.94 25.7464L1992.94 25.7463L1992.69 25.7676ZM1992.6 24.6836V24.4336H1992.32L1992.35 24.7049L1992.6 24.6836ZM2000.12 24.6836L2000.36 24.6249L2000.31 24.4336H2000.12V24.6836ZM2000.3 25.4482L2000.54 25.3896L2000.54 25.3896L2000.3 25.4482ZM2004.05 40.9902L2003.8 41.0488L2003.88 41.3532L2004.16 41.2143L2004.05 40.9902ZM2011.15 37.4717L2011.27 37.6957L2011.42 37.6196L2011.4 37.4488L2011.15 37.4717ZM2009.87 23.501L2010.12 23.4781L2010.12 23.478L2009.87 23.501ZM2009.77 22.4092V22.1592H2009.5L2009.52 22.4321L2009.77 22.4092ZM2016.97 22.4092L2017.2 22.302L2017.13 22.1592H2016.97V22.4092ZM2010.99 20.1416L2011.15 20.3351L2011.15 20.3351L2010.99 20.1416ZM2008.21 22.415L2008.06 22.2215L2008.06 22.2217L2008.21 22.415ZM2007.94 22.6416V22.8916H2008.03L2008.1 22.8349L2007.94 22.6416ZM2002.74 22.6416L2002.58 22.83L2002.65 22.8916H2002.74V22.6416ZM2002.46 22.3955L2002.62 22.2071L2002.62 22.207L2002.46 22.3955ZM1999.85 20.1211L1999.68 20.3096L1999.68 20.3096L1999.85 20.1211ZM1997.83 18.3672V18.1172H1997.17L1997.67 18.5557L1997.83 18.3672ZM2013.16 18.3672L2013.32 18.5606L2013.86 18.1172H2013.16V18.3672ZM2017.24 22.9814L2017.02 23.0885L2030.75 52.0602L2030.97 51.9531L2031.2 51.8461L2017.47 22.8744L2017.24 22.9814ZM2030.97 51.9531L2030.75 52.0602L2031.42 53.4879L2031.65 53.3809L2031.87 53.2738L2031.2 51.846L2030.97 51.9531ZM2031.65 53.3809V53.1309H2018.56V53.3809V53.6309H2031.65V53.3809ZM2018.56 53.3809L2018.8 53.303L2018.57 52.6145L2018.34 52.6924L2018.1 52.7702L2018.32 53.4587L2018.56 53.3809ZM2018.34 52.6924L2018.57 52.6147L2016.04 44.8783L2015.81 44.9561L2015.57 45.0338L2018.1 52.7701L2018.34 52.6924ZM2015.81 44.9561L2015.66 44.7508L2003.8 52.9969L2003.94 53.2021L2004.08 53.4074L2015.95 45.1614L2015.81 44.9561ZM2003.94 53.2021L2003.8 52.9969L2003.54 53.1756L2003.68 53.3809L2003.83 53.5861L2004.08 53.4074L2003.94 53.2021ZM2003.68 53.3809V53.1309H1995.04V53.3809V53.6309H2003.68V53.3809ZM1995.04 53.3809L1995.29 53.3596L1995.21 52.4446L1994.96 52.4658L1994.71 52.4871L1994.79 53.4021L1995.04 53.3809ZM1994.96 52.4658L1995.21 52.4446L1992.94 25.7464L1992.69 25.7676L1992.44 25.7888L1994.71 52.487L1994.96 52.4658ZM1992.69 25.7676L1992.94 25.7463L1992.84 24.6623L1992.6 24.6836L1992.35 24.7049L1992.44 25.7889L1992.69 25.7676ZM1992.6 24.6836V24.9336H2000.12V24.6836V24.4336H1992.6V24.6836ZM2000.12 24.6836L1999.87 24.7423L2000.06 25.5069L2000.3 25.4482L2000.54 25.3896L2000.36 24.6249L2000.12 24.6836ZM2000.3 25.4482L2000.06 25.5069L2003.8 41.0488L2004.05 40.9902L2004.29 40.9316L2000.54 25.3896L2000.3 25.4482ZM2004.05 40.9902L2004.16 41.2143L2011.27 37.6957L2011.15 37.4717L2011.04 37.2476L2003.94 40.7662L2004.05 40.9902ZM2011.15 37.4717L2011.4 37.4488L2010.12 23.4781L2009.87 23.501L2009.62 23.5239L2010.91 37.4946L2011.15 37.4717ZM2009.87 23.501L2010.12 23.478L2010.02 22.3862L2009.77 22.4092L2009.52 22.4321L2009.62 23.5239L2009.87 23.501ZM2009.77 22.4092V22.6592H2016.97V22.4092V22.1592H2009.77V22.4092ZM2016.97 22.4092L2016.75 22.5163L2017.02 23.0886L2017.24 22.9814L2017.47 22.8743L2017.2 22.302L2016.97 22.4092ZM2010.99 20.1416L2010.83 19.9481L2008.06 22.2215L2008.21 22.415L2008.37 22.6085L2011.15 20.3351L2010.99 20.1416ZM2008.21 22.415L2008.06 22.2217L2007.78 22.4483L2007.94 22.6416L2008.1 22.8349L2008.37 22.6084L2008.21 22.415ZM2007.94 22.6416V22.3916H2002.74V22.6416V22.8916H2007.94V22.6416ZM2002.74 22.6416L2002.91 22.4532L2002.62 22.2071L2002.46 22.3955L2002.3 22.5839L2002.58 22.83L2002.74 22.6416ZM2002.46 22.3955L2002.62 22.207L2000.01 19.9326L1999.85 20.1211L1999.68 20.3096L2002.3 22.584L2002.46 22.3955ZM1999.85 20.1211L2000.01 19.9326L1998 18.1787L1997.83 18.3672L1997.67 18.5557L1999.68 20.3096L1999.85 20.1211ZM1997.83 18.3672V18.6172H2013.16V18.3672V18.1172H1997.83V18.3672ZM2013.16 18.3672L2013 18.1737L2010.83 19.9481L2010.99 20.1416L2011.15 20.3351L2013.32 18.5606L2013.16 18.3672Z" fill="black"/>
<path d="M1877 52.3111L1877.7 23.3778L1886.97 24.6571L1888.68 37.254H1893.31L1894.82 24.6571L1903.89 22L1906 53L1893.31 52.3111L1894.82 40.9937H1888.68L1885.66 52.3111H1877Z" fill="#82A985" stroke="black" stroke-width="0.5"/>
<path d="M1913 52.3111L1913.7 23.3778L1922.97 24.6571L1924.68 37.254H1929.31L1930.82 24.6571L1939.89 22L1942 53L1929.31 52.3111L1930.82 40.9937H1924.68L1921.66 52.3111H1913Z" fill="#82A985" stroke="black" stroke-width="0.5"/>
<path d="M1709 22L1711.04 50.4672L1728.7 52L1739 49.4818L1736.51 36.6715L1732.21 35.6861C1732.21 35.6861 1723.26 41.0995 1718.74 38.7518C1714.21 36.4042 1713.64 27.0365 1713.64 27.0365L1736.51 30.5401V23.7518L1709 22Z" fill="#82A985" stroke="black" stroke-width="0.5"/>
<path d="M1730.91 40.1663C1728.93 39.1543 1722.36 43.0526 1721.06 43.9984C1719.76 44.9443 1718 46.7356 1718 46.7356L1730.23 47.3926C1730.23 47.3926 1734 46.4377 1734.42 44.5459C1734.83 42.6541 1732.88 41.1783 1730.91 40.1663Z" fill="#82A985" stroke="black" stroke-width="0.5"/>
<path d="M2298.72 33H2284V39.1277L2301 41L2298.72 33Z" fill="#82A985" stroke="black" stroke-width="0.5"/>
<path d="M1418.85 23C1418.85 23 1421.31 43.9616 1413.09 45.9056C1411.15 46.3649 1408 45.9056 1408 45.9056L1407 54H1411.08V50.3833L1437.59 51.3306V54H1441V47.5417L1435.65 45.9056L1429.15 23H1418.85Z" fill="#82A985" stroke="black" stroke-width="0.5"/>
<path d="M1422.35 32.4629C1420.91 33.5733 1421 37.199 1421 37.199L1425.02 44.949L1428.97 41.849L1426.56 32.4629C1426.56 32.4629 1423.7 31.4213 1422.35 32.4629Z" fill="#82A985" stroke="black" stroke-width="0.5"/>
<path d="M1267 23L1269.67 51.8275L1292 54L1290.17 47.0647L1276.42 48.2345V41.5499L1281.83 40.4636V36.8706L1275.17 38.7089L1274.25 32.2749H1289.17L1292 25.1725L1267 23Z" fill="#82A985" stroke="black" stroke-width="0.5"/>
<path d="M1299 53V25.21L1307.43 22.7234V30.912L1321.47 20L1327.55 25.21L1309.3 36.1311L1332 43.5727V53L1307.43 45.8043V53H1299Z" fill="#82A985" stroke="black" stroke-width="0.5"/>
<path d="M1374 53.3111L1374.68 24.3778L1383.62 25.6571L1385.28 38.254H1389.75L1391.21 25.6571L1399.96 23L1402 54L1389.75 53.3111L1391.21 41.9937H1385.28L1382.36 53.3111H1374Z" fill="#82A985" stroke="black" stroke-width="0.5"/>
<path d="M1345.33 23.0827L1341.82 30.3258C1341.82 30.3258 1340.62 32.3302 1340.23 33.7943C1339.34 37.1365 1341.29 42.6696 1341.29 42.6696L1343.05 50.4227L1349.2 53.0751C1349.2 53.0751 1355.21 55.1562 1358.26 53.0751C1360.3 51.6833 1362.13 47.6683 1362.13 47.6683L1364.33 40.8333L1366 32.162C1366 32.162 1362.17 25.1569 1358.26 23.0827C1353.67 20.6466 1345.33 23.0827 1345.33 23.0827Z" fill="#82A985" stroke="black" stroke-width="0.5"/>
<path d="M1348 39.1813L1349.85 34.1826L1352.57 30L1357.67 30.6121L1358.29 39.6914L1355.91 45.8123L1349.23 44.5881L1348 39.1813Z" fill="#82A985" stroke="black" stroke-width="0.5"/>
<path d="M1254.81 22L1260.04 30.072L1254.81 33.406L1250.93 30.7739H1245.88L1243.98 40.1619L1252.37 44.8998L1258.96 40.1619L1265 43.9347L1257.69 52.9718C1257.69 52.9718 1240.77 53.8003 1236.31 46.4791C1232.18 39.6942 1239.11 26.4747 1239.11 26.4747L1254.81 22Z" fill="#82A985" stroke="black" stroke-width="0.5"/>
<path d="M1583.85 24C1583.85 24 1586.31 44.2854 1578.09 46.1667C1576.15 46.6112 1573 46.1667 1573 46.1667L1572 54H1576.08V50.5L1602.59 51.4167V54H1606V47.75L1600.65 46.1667L1594.15 24H1583.85Z" fill="#82A985" stroke="black" stroke-width="0.5"/>
<path d="M1587.35 33.448C1585.91 34.5226 1586 38.0313 1586 38.0313L1590.02 45.5313L1593.97 42.5313L1591.56 33.448C1591.56 33.448 1588.7 32.44 1587.35 33.448Z" fill="#82A985" stroke="black" stroke-width="0.5"/>
<path d="M1505 23L1507.67 51.8275L1530 54L1528.17 47.0647L1514.42 48.2345V41.5499L1519.83 40.4636V36.8706L1513.17 38.7089L1512.25 32.2749H1527.17L1530 25.1725L1505 23Z" fill="#82A985" stroke="black" stroke-width="0.5"/>
<path d="M1538 54.2889L1538.7 24.4222L1547.97 25.7429L1549.68 38.746H1554.31L1555.82 25.7429L1564.89 23L1567 55L1554.31 54.2889L1555.82 42.6063H1549.68L1546.66 54.2889H1538Z" fill="#82A985" stroke="black" stroke-width="0.5"/>
<path d="M1473.33 24.3881H1462.68L1474.25 41.199L1460 54H1469.5L1480.3 41.199L1482.45 54L1495.01 52.1493L1486.35 37.9602L1497 23H1490.57L1480.3 32.3308L1473.33 24.3881Z" fill="#82A985" stroke="black" stroke-width="0.5"/>
<path d="M970 53L971.748 23.6822L983.631 22L994 26.0853L991.437 32.9341L987.359 35.6977L981.65 38.1008H994V43.0271V53H970Z" fill="#82A985" stroke="black" stroke-width="0.5"/>
<path d="M977 32.5659V28H981.427H985.505L983.408 32.5659H977Z" fill="#82A985"/>
<path d="M981.427 48.5465L977 45.062L980.262 42.6589H989.35L991.214 45.062L981.427 48.5465Z" fill="#82A985"/>
<path d="M977 32.5659V28H981.427H985.505L983.408 32.5659H977Z" stroke="black" stroke-width="0.5"/>
<path d="M981.427 48.5465L977 45.062L980.262 42.6589H989.35L991.214 45.062L981.427 48.5465Z" stroke="black" stroke-width="0.5"/>
<path d="M1107 52.8289V26.2378L1113.16 23L1114.38 39.8778L1128.32 40.4289L1128.92 45.1822V51.52L1120.6 54L1107 52.8289Z" fill="#82A985"/>
<path d="M1133.86 52.8289L1132.98 23.6889H1137.45L1143 52.8289H1133.86Z" fill="#82A985"/>
<path d="M1107 52.8289V26.2378L1113.16 23L1114.38 39.8778L1128.32 40.4289L1128.92 45.1822V51.52L1120.6 54L1107 52.8289Z" stroke="black" stroke-width="0.5"/>
<path d="M1133.86 52.8289L1132.98 23.6889H1137.45L1143 52.8289H1133.86Z" stroke="black" stroke-width="0.5"/>
<path d="M1114 49.5467L1115.08 45L1123.81 45.62L1122.8 49.5467H1114Z" fill="#82A985" stroke="black" stroke-width="0.5"/>
<path d="M1001 23L1003.67 51.8275L1026 54L1024.17 47.0647L1010.42 48.2345V41.5499L1015.83 40.4636V36.8706L1009.17 38.7089L1008.25 32.2749H1023.17L1026 25.1725L1001 23Z" fill="#82A985" stroke="black" stroke-width="0.5"/>
<path d="M921.377 25.2259L914.846 56.0004L907.18 51.9239L909.342 37.659L898.831 30.3087L901.708 24.8982L911.534 33.5365L915.029 21.8504L921.377 25.2259Z" fill="#82A985" stroke="black" stroke-width="0.5"/>
<path d="M927 53V25.21L935.426 22.7234V30.912L949.47 20L955.551 25.21L937.299 36.1311L960 43.5727V53L935.426 45.8043V53H927Z" fill="#82A985" stroke="black" stroke-width="0.5"/>
<path d="M1174.24 23.9814L1187.97 52.9531L1188.65 54.3809H1175.56L1175.34 53.6924L1172.81 45.9561L1160.94 54.2021L1160.68 54.3809H1152.04L1151.96 53.4658L1149.69 26.7676L1149.6 25.6836H1157.12L1157.3 26.4482L1161.05 41.9902L1168.15 38.4717L1166.87 24.501L1166.77 23.4092H1173.97L1174.24 23.9814ZM1167.99 21.1416L1165.21 23.415L1164.94 23.6416H1159.74L1159.46 23.3955L1156.85 21.1211L1154.83 19.3672H1170.16L1167.99 21.1416Z" fill="#82A985"/>
<path d="M1174.24 23.9814L1174.47 23.8744L1174.47 23.8743L1174.24 23.9814ZM1187.97 52.9531L1187.75 53.0602L1187.75 53.0602L1187.97 52.9531ZM1188.65 54.3809V54.6309H1189.04L1188.87 54.2738L1188.65 54.3809ZM1175.56 54.3809L1175.32 54.4587L1175.38 54.6309H1175.56V54.3809ZM1175.34 53.6924L1175.1 53.7701L1175.1 53.7702L1175.34 53.6924ZM1172.81 45.9561L1173.04 45.8783L1172.94 45.5591L1172.66 45.7508L1172.81 45.9561ZM1160.94 54.2021L1160.8 53.9969L1160.8 53.9969L1160.94 54.2021ZM1160.68 54.3809V54.6309H1160.76L1160.83 54.5861L1160.68 54.3809ZM1152.04 54.3809L1151.79 54.4021L1151.81 54.6309H1152.04V54.3809ZM1151.96 53.4658L1151.71 53.487L1151.71 53.4871L1151.96 53.4658ZM1149.69 26.7676L1149.94 26.7464L1149.94 26.7463L1149.69 26.7676ZM1149.6 25.6836V25.4336H1149.32L1149.35 25.7049L1149.6 25.6836ZM1157.12 25.6836L1157.36 25.6249L1157.31 25.4336H1157.12V25.6836ZM1157.3 26.4482L1157.54 26.3896L1157.54 26.3896L1157.3 26.4482ZM1161.05 41.9902L1160.8 42.0488L1160.88 42.3532L1161.16 42.2143L1161.05 41.9902ZM1168.15 38.4717L1168.27 38.6957L1168.42 38.6196L1168.4 38.4488L1168.15 38.4717ZM1166.87 24.501L1167.12 24.4781L1167.12 24.478L1166.87 24.501ZM1166.77 23.4092V23.1592H1166.5L1166.52 23.4321L1166.77 23.4092ZM1173.97 23.4092L1174.2 23.302L1174.13 23.1592H1173.97V23.4092ZM1167.99 21.1416L1168.15 21.3351L1168.15 21.3351L1167.99 21.1416ZM1165.21 23.415L1165.06 23.2215L1165.06 23.2217L1165.21 23.415ZM1164.94 23.6416V23.8916H1165.03L1165.1 23.8349L1164.94 23.6416ZM1159.74 23.6416L1159.58 23.83L1159.65 23.8916H1159.74V23.6416ZM1159.46 23.3955L1159.62 23.2071L1159.62 23.207L1159.46 23.3955ZM1156.85 21.1211L1156.68 21.3096L1156.68 21.3096L1156.85 21.1211ZM1154.83 19.3672V19.1172H1154.17L1154.67 19.5557L1154.83 19.3672ZM1170.16 19.3672L1170.32 19.5606L1170.86 19.1172H1170.16V19.3672ZM1174.24 23.9814L1174.02 24.0885L1187.75 53.0602L1187.97 52.9531L1188.2 52.8461L1174.47 23.8744L1174.24 23.9814ZM1187.97 52.9531L1187.75 53.0602L1188.42 54.4879L1188.65 54.3809L1188.87 54.2738L1188.2 52.846L1187.97 52.9531ZM1188.65 54.3809V54.1309H1175.56V54.3809V54.6309H1188.65V54.3809ZM1175.56 54.3809L1175.8 54.303L1175.57 53.6145L1175.34 53.6924L1175.1 53.7702L1175.32 54.4587L1175.56 54.3809ZM1175.34 53.6924L1175.57 53.6147L1173.04 45.8783L1172.81 45.9561L1172.57 46.0338L1175.1 53.7701L1175.34 53.6924ZM1172.81 45.9561L1172.66 45.7508L1160.8 53.9969L1160.94 54.2021L1161.08 54.4074L1172.95 46.1614L1172.81 45.9561ZM1160.94 54.2021L1160.8 53.9969L1160.54 54.1756L1160.68 54.3809L1160.83 54.5861L1161.08 54.4074L1160.94 54.2021ZM1160.68 54.3809V54.1309H1152.04V54.3809V54.6309H1160.68V54.3809ZM1152.04 54.3809L1152.29 54.3596L1152.21 53.4446L1151.96 53.4658L1151.71 53.4871L1151.79 54.4021L1152.04 54.3809ZM1151.96 53.4658L1152.21 53.4446L1149.94 26.7464L1149.69 26.7676L1149.44 26.7888L1151.71 53.487L1151.96 53.4658ZM1149.69 26.7676L1149.94 26.7463L1149.84 25.6623L1149.6 25.6836L1149.35 25.7049L1149.44 26.7889L1149.69 26.7676ZM1149.6 25.6836V25.9336H1157.12V25.6836V25.4336H1149.6V25.6836ZM1157.12 25.6836L1156.87 25.7423L1157.06 26.5069L1157.3 26.4482L1157.54 26.3896L1157.36 25.6249L1157.12 25.6836ZM1157.3 26.4482L1157.06 26.5069L1160.8 42.0488L1161.05 41.9902L1161.29 41.9316L1157.54 26.3896L1157.3 26.4482ZM1161.05 41.9902L1161.16 42.2143L1168.27 38.6957L1168.15 38.4717L1168.04 38.2476L1160.94 41.7662L1161.05 41.9902ZM1168.15 38.4717L1168.4 38.4488L1167.12 24.4781L1166.87 24.501L1166.62 24.5239L1167.91 38.4946L1168.15 38.4717ZM1166.87 24.501L1167.12 24.478L1167.02 23.3862L1166.77 23.4092L1166.52 23.4321L1166.62 24.5239L1166.87 24.501ZM1166.77 23.4092V23.6592H1173.97V23.4092V23.1592H1166.77V23.4092ZM1173.97 23.4092L1173.75 23.5163L1174.02 24.0886L1174.24 23.9814L1174.47 23.8743L1174.2 23.302L1173.97 23.4092ZM1167.99 21.1416L1167.83 20.9481L1165.06 23.2215L1165.21 23.415L1165.37 23.6085L1168.15 21.3351L1167.99 21.1416ZM1165.21 23.415L1165.06 23.2217L1164.78 23.4483L1164.94 23.6416L1165.1 23.8349L1165.37 23.6084L1165.21 23.415ZM1164.94 23.6416V23.3916H1159.74V23.6416V23.8916H1164.94V23.6416ZM1159.74 23.6416L1159.91 23.4532L1159.62 23.2071L1159.46 23.3955L1159.3 23.5839L1159.58 23.83L1159.74 23.6416ZM1159.46 23.3955L1159.62 23.207L1157.01 20.9326L1156.85 21.1211L1156.68 21.3096L1159.3 23.584L1159.46 23.3955ZM1156.85 21.1211L1157.01 20.9326L1155 19.1787L1154.83 19.3672L1154.67 19.5557L1156.68 21.3096L1156.85 21.1211ZM1154.83 19.3672V19.6172H1170.16V19.3672V19.1172H1154.83V19.3672ZM1170.16 19.3672L1170 19.1737L1167.83 20.9481L1167.99 21.1416L1168.15 21.3351L1170.32 19.5606L1170.16 19.3672Z" fill="black"/>
<path d="M1034 53.3111L1034.7 24.3778L1043.97 25.6571L1045.68 38.254H1050.31L1051.82 25.6571L1060.89 23L1063 54L1050.31 53.3111L1051.82 41.9937H1045.68L1042.66 53.3111H1034Z" fill="#82A985" stroke="black" stroke-width="0.5"/>
<path d="M1070 53.3111L1070.7 24.3778L1079.97 25.6571L1081.68 38.254H1086.31L1087.82 25.6571L1096.89 23L1099 54L1086.31 53.3111L1087.82 41.9937H1081.68L1078.66 53.3111H1070Z" fill="#82A985" stroke="black" stroke-width="0.5"/>
<path d="M866 23L868.038 51.4672L885.698 53L896 50.4818L893.509 37.6715L889.208 36.6861C889.208 36.6861 880.257 42.0995 875.736 39.7518C871.214 37.4042 870.642 28.0365 870.642 28.0365L893.509 31.5401V24.7518L866 23Z" fill="#82A985" stroke="black" stroke-width="0.5"/>
<path d="M887.906 41.1663C885.928 40.1543 879.357 44.0526 878.057 44.9984C876.757 45.9443 875 47.7356 875 47.7356L887.226 48.3926C887.226 48.3926 891.002 47.4377 891.415 45.5459C891.829 43.6541 889.883 42.1783 887.906 41.1663Z" fill="#82A985" stroke="black" stroke-width="0.5"/>
<path d="M1455.72 34H1441V40.1277L1458 42L1455.72 34Z" fill="#82A985" stroke="black" stroke-width="0.5"/>
<rect x="2512" width="2515" height="69" fill="#2C3872"/>
<path d="M3089.85 21C3089.85 21 3092.31 41.9616 3084.09 43.9056C3082.15 44.3649 3079 43.9056 3079 43.9056L3078 52H3082.08V48.3833L3108.59 49.3306V52H3112V45.5417L3106.65 43.9056L3100.15 21H3089.85Z" fill="#82A985" stroke="black" stroke-width="0.5"/>
<path d="M3093.35 30.4629C3091.91 31.5733 3092 35.199 3092 35.199L3096.02 42.949L3099.97 39.849L3097.56 30.4629C3097.56 30.4629 3094.7 29.4213 3093.35 30.4629Z" fill="#82A985" stroke="black" stroke-width="0.5"/>
<path d="M2938 21L2940.67 49.8275L2963 52L2961.17 45.0647L2947.42 46.2345V39.5499L2952.83 38.4636V34.8706L2946.17 36.7089L2945.25 30.2749H2960.17L2963 23.1725L2938 21Z" fill="#82A985" stroke="black" stroke-width="0.5"/>
<path d="M2970 51V23.21L2978.43 20.7234V28.912L2992.47 18L2998.55 23.21L2980.3 34.1311L3003 41.5727V51L2978.43 43.8043V51H2970Z" fill="#82A985" stroke="black" stroke-width="0.5"/>
<path d="M3045 51.3111L3045.68 22.3778L3054.62 23.6571L3056.28 36.254H3060.75L3062.21 23.6571L3070.96 21L3073 52L3060.75 51.3111L3062.21 39.9937H3056.28L3053.36 51.3111H3045Z" fill="#82A985" stroke="black" stroke-width="0.5"/>
<path d="M3016.33 21.0827L3012.82 28.3258C3012.82 28.3258 3011.62 30.3302 3011.23 31.7943C3010.34 35.1365 3012.29 40.6696 3012.29 40.6696L3014.05 48.4227L3020.2 51.0751C3020.2 51.0751 3026.21 53.1562 3029.26 51.0751C3031.3 49.6833 3033.13 45.6683 3033.13 45.6683L3035.33 38.8333L3037 30.162C3037 30.162 3033.17 23.1569 3029.26 21.0827C3024.67 18.6466 3016.33 21.0827 3016.33 21.0827Z" fill="#82A985" stroke="black" stroke-width="0.5"/>
<path d="M3019 37.1813L3020.85 32.1826L3023.57 28L3028.67 28.6121L3029.29 37.6914L3026.91 43.8123L3020.23 42.5881L3019 37.1813Z" fill="#82A985" stroke="black" stroke-width="0.5"/>
<path d="M2925.81 20L2931.04 28.072L2925.81 31.406L2921.93 28.7739H2916.88L2914.98 38.1619L2923.37 42.8998L2929.96 38.1619L2936 41.9347L2928.69 50.9718C2928.69 50.9718 2911.77 51.8003 2907.31 44.4791C2903.18 37.6942 2910.11 24.4747 2910.11 24.4747L2925.81 20Z" fill="#82A985" stroke="black" stroke-width="0.5"/>
<path d="M3254.85 22C3254.85 22 3257.31 42.2854 3249.09 44.1667C3247.15 44.6112 3244 44.1667 3244 44.1667L3243 52H3247.08V48.5L3273.59 49.4167V52H3277V45.75L3271.65 44.1667L3265.15 22H3254.85Z" fill="#82A985" stroke="black" stroke-width="0.5"/>
<path d="M3258.35 31.448C3256.91 32.5226 3257 36.0313 3257 36.0313L3261.02 43.5313L3264.97 40.5313L3262.56 31.448C3262.56 31.448 3259.7 30.44 3258.35 31.448Z" fill="#82A985" stroke="black" stroke-width="0.5"/>
<path d="M3176 21L3178.67 49.8275L3201 52L3199.17 45.0647L3185.42 46.2345V39.5499L3190.83 38.4636V34.8706L3184.17 36.7089L3183.25 30.2749H3198.17L3201 23.1725L3176 21Z" fill="#82A985" stroke="black" stroke-width="0.5"/>
<path d="M3209 52.2889L3209.7 22.4222L3218.97 23.7429L3220.68 36.746H3225.31L3226.82 23.7429L3235.89 21L3238 53L3225.31 52.2889L3226.82 40.6063H3220.68L3217.66 52.2889H3209Z" fill="#82A985" stroke="black" stroke-width="0.5"/>
<path d="M3144.33 22.3881H3133.68L3145.25 39.199L3131 52H3140.5L3151.3 39.199L3153.45 52L3166.01 50.1493L3157.35 35.9602L3168 21H3161.57L3151.3 30.3308L3144.33 22.3881Z" fill="#82A985" stroke="black" stroke-width="0.5"/>
<path d="M2641 51L2642.75 21.6822L2654.63 20L2665 24.0853L2662.44 30.9341L2658.36 33.6977L2652.65 36.1008H2665V41.0271V51H2641Z" fill="#82A985" stroke="black" stroke-width="0.5"/>
<path d="M2648 30.5659V26H2652.43H2656.5L2654.41 30.5659H2648Z" fill="#82A985"/>
<path d="M2652.43 46.5465L2648 43.062L2651.26 40.6589H2660.35L2662.21 43.062L2652.43 46.5465Z" fill="#82A985"/>
<path d="M2648 30.5659V26H2652.43H2656.5L2654.41 30.5659H2648Z" stroke="black" stroke-width="0.5"/>
<path d="M2652.43 46.5465L2648 43.062L2651.26 40.6589H2660.35L2662.21 43.062L2652.43 46.5465Z" stroke="black" stroke-width="0.5"/>
<path d="M2778 50.8289V24.2378L2784.16 21L2785.38 37.8778L2799.32 38.4289L2799.92 43.1822V49.52L2791.6 52L2778 50.8289Z" fill="#82A985"/>
<path d="M2804.86 50.8289L2803.98 21.6889H2808.45L2814 50.8289H2804.86Z" fill="#82A985"/>
<path d="M2778 50.8289V24.2378L2784.16 21L2785.38 37.8778L2799.32 38.4289L2799.92 43.1822V49.52L2791.6 52L2778 50.8289Z" stroke="black" stroke-width="0.5"/>
<path d="M2804.86 50.8289L2803.98 21.6889H2808.45L2814 50.8289H2804.86Z" stroke="black" stroke-width="0.5"/>
<path d="M2785 47.5467L2786.08 43L2794.81 43.62L2793.8 47.5467H2785Z" fill="#82A985" stroke="black" stroke-width="0.5"/>
<path d="M2672 21L2674.67 49.8275L2697 52L2695.17 45.0647L2681.42 46.2345V39.5499L2686.83 38.4636V34.8706L2680.17 36.7089L2679.25 30.2749H2694.17L2697 23.1725L2672 21Z" fill="#82A985" stroke="black" stroke-width="0.5"/>
<path d="M2592.38 23.2259L2585.85 54.0004L2578.18 49.9239L2580.34 35.659L2569.83 28.3087L2572.71 22.8982L2582.53 31.5365L2586.03 19.8504L2592.38 23.2259Z" fill="#82A985" stroke="black" stroke-width="0.5"/>
<path d="M2598 51V23.21L2606.43 20.7234V28.912L2620.47 18L2626.55 23.21L2608.3 34.1311L2631 41.5727V51L2606.43 43.8043V51H2598Z" fill="#82A985" stroke="black" stroke-width="0.5"/>
<path d="M2845.24 21.9814L2858.97 50.9531L2859.65 52.3809H2846.56L2846.34 51.6924L2843.81 43.9561L2831.94 52.2021L2831.68 52.3809H2823.04L2822.96 51.4658L2820.69 24.7676L2820.6 23.6836H2828.12L2828.3 24.4482L2832.05 39.9902L2839.15 36.4717L2837.87 22.501L2837.77 21.4092H2844.97L2845.24 21.9814ZM2838.99 19.1416L2836.21 21.415L2835.94 21.6416H2830.74L2830.46 21.3955L2827.85 19.1211L2825.83 17.3672H2841.16L2838.99 19.1416Z" fill="#82A985"/>
<path d="M2845.24 21.9814L2845.47 21.8744L2845.47 21.8743L2845.24 21.9814ZM2858.97 50.9531L2858.75 51.0602L2858.75 51.0602L2858.97 50.9531ZM2859.65 52.3809V52.6309H2860.04L2859.87 52.2738L2859.65 52.3809ZM2846.56 52.3809L2846.32 52.4587L2846.38 52.6309H2846.56V52.3809ZM2846.34 51.6924L2846.1 51.7701L2846.1 51.7702L2846.34 51.6924ZM2843.81 43.9561L2844.04 43.8783L2843.94 43.5591L2843.66 43.7508L2843.81 43.9561ZM2831.94 52.2021L2831.8 51.9969L2831.8 51.9969L2831.94 52.2021ZM2831.68 52.3809V52.6309H2831.76L2831.83 52.5861L2831.68 52.3809ZM2823.04 52.3809L2822.79 52.4021L2822.81 52.6309H2823.04V52.3809ZM2822.96 51.4658L2822.71 51.487L2822.71 51.4871L2822.96 51.4658ZM2820.69 24.7676L2820.94 24.7464L2820.94 24.7463L2820.69 24.7676ZM2820.6 23.6836V23.4336H2820.32L2820.35 23.7049L2820.6 23.6836ZM2828.12 23.6836L2828.36 23.6249L2828.31 23.4336H2828.12V23.6836ZM2828.3 24.4482L2828.54 24.3896L2828.54 24.3896L2828.3 24.4482ZM2832.05 39.9902L2831.8 40.0488L2831.88 40.3532L2832.16 40.2143L2832.05 39.9902ZM2839.15 36.4717L2839.27 36.6957L2839.42 36.6196L2839.4 36.4488L2839.15 36.4717ZM2837.87 22.501L2838.12 22.4781L2838.12 22.478L2837.87 22.501ZM2837.77 21.4092V21.1592H2837.5L2837.52 21.4321L2837.77 21.4092ZM2844.97 21.4092L2845.2 21.302L2845.13 21.1592H2844.97V21.4092ZM2838.99 19.1416L2839.15 19.3351L2839.15 19.3351L2838.99 19.1416ZM2836.21 21.415L2836.06 21.2215L2836.06 21.2217L2836.21 21.415ZM2835.94 21.6416V21.8916H2836.03L2836.1 21.8349L2835.94 21.6416ZM2830.74 21.6416L2830.58 21.83L2830.65 21.8916H2830.74V21.6416ZM2830.46 21.3955L2830.62 21.2071L2830.62 21.207L2830.46 21.3955ZM2827.85 19.1211L2827.68 19.3096L2827.68 19.3096L2827.85 19.1211ZM2825.83 17.3672V17.1172H2825.17L2825.67 17.5557L2825.83 17.3672ZM2841.16 17.3672L2841.32 17.5606L2841.86 17.1172H2841.16V17.3672ZM2845.24 21.9814L2845.02 22.0885L2858.75 51.0602L2858.97 50.9531L2859.2 50.8461L2845.47 21.8744L2845.24 21.9814ZM2858.97 50.9531L2858.75 51.0602L2859.42 52.4879L2859.65 52.3809L2859.87 52.2738L2859.2 50.846L2858.97 50.9531ZM2859.65 52.3809V52.1309H2846.56V52.3809V52.6309H2859.65V52.3809ZM2846.56 52.3809L2846.8 52.303L2846.57 51.6145L2846.34 51.6924L2846.1 51.7702L2846.32 52.4587L2846.56 52.3809ZM2846.34 51.6924L2846.57 51.6147L2844.04 43.8783L2843.81 43.9561L2843.57 44.0338L2846.1 51.7701L2846.34 51.6924ZM2843.81 43.9561L2843.66 43.7508L2831.8 51.9969L2831.94 52.2021L2832.08 52.4074L2843.95 44.1614L2843.81 43.9561ZM2831.94 52.2021L2831.8 51.9969L2831.54 52.1756L2831.68 52.3809L2831.83 52.5861L2832.08 52.4074L2831.94 52.2021ZM2831.68 52.3809V52.1309H2823.04V52.3809V52.6309H2831.68V52.3809ZM2823.04 52.3809L2823.29 52.3596L2823.21 51.4446L2822.96 51.4658L2822.71 51.4871L2822.79 52.4021L2823.04 52.3809ZM2822.96 51.4658L2823.21 51.4446L2820.94 24.7464L2820.69 24.7676L2820.44 24.7888L2822.71 51.487L2822.96 51.4658ZM2820.69 24.7676L2820.94 24.7463L2820.84 23.6623L2820.6 23.6836L2820.35 23.7049L2820.44 24.7889L2820.69 24.7676ZM2820.6 23.6836V23.9336H2828.12V23.6836V23.4336H2820.6V23.6836ZM2828.12 23.6836L2827.87 23.7423L2828.06 24.5069L2828.3 24.4482L2828.54 24.3896L2828.36 23.6249L2828.12 23.6836ZM2828.3 24.4482L2828.06 24.5069L2831.8 40.0488L2832.05 39.9902L2832.29 39.9316L2828.54 24.3896L2828.3 24.4482ZM2832.05 39.9902L2832.16 40.2143L2839.27 36.6957L2839.15 36.4717L2839.04 36.2476L2831.94 39.7662L2832.05 39.9902ZM2839.15 36.4717L2839.4 36.4488L2838.12 22.4781L2837.87 22.501L2837.62 22.5239L2838.91 36.4946L2839.15 36.4717ZM2837.87 22.501L2838.12 22.478L2838.02 21.3862L2837.77 21.4092L2837.52 21.4321L2837.62 22.5239L2837.87 22.501ZM2837.77 21.4092V21.6592H2844.97V21.4092V21.1592H2837.77V21.4092ZM2844.97 21.4092L2844.75 21.5163L2845.02 22.0886L2845.24 21.9814L2845.47 21.8743L2845.2 21.302L2844.97 21.4092ZM2838.99 19.1416L2838.83 18.9481L2836.06 21.2215L2836.21 21.415L2836.37 21.6085L2839.15 19.3351L2838.99 19.1416ZM2836.21 21.415L2836.06 21.2217L2835.78 21.4483L2835.94 21.6416L2836.1 21.8349L2836.37 21.6084L2836.21 21.415ZM2835.94 21.6416V21.3916H2830.74V21.6416V21.8916H2835.94V21.6416ZM2830.74 21.6416L2830.91 21.4532L2830.62 21.2071L2830.46 21.3955L2830.3 21.5839L2830.58 21.83L2830.74 21.6416ZM2830.46 21.3955L2830.62 21.207L2828.01 18.9326L2827.85 19.1211L2827.68 19.3096L2830.3 21.584L2830.46 21.3955ZM2827.85 19.1211L2828.01 18.9326L2826 17.1787L2825.83 17.3672L2825.67 17.5557L2827.68 19.3096L2827.85 19.1211ZM2825.83 17.3672V17.6172H2841.16V17.3672V17.1172H2825.83V17.3672ZM2841.16 17.3672L2841 17.1737L2838.83 18.9481L2838.99 19.1416L2839.15 19.3351L2841.32 17.5606L2841.16 17.3672Z" fill="black"/>
<path d="M2705 51.3111L2705.7 22.3778L2714.97 23.6571L2716.68 36.254H2721.31L2722.82 23.6571L2731.89 21L2734 52L2721.31 51.3111L2722.82 39.9937H2716.68L2713.66 51.3111H2705Z" fill="#82A985" stroke="black" stroke-width="0.5"/>
<path d="M2741 51.3111L2741.7 22.3778L2750.97 23.6571L2752.68 36.254H2757.31L2758.82 23.6571L2767.89 21L2770 52L2757.31 51.3111L2758.82 39.9937H2752.68L2749.66 51.3111H2741Z" fill="#82A985" stroke="black" stroke-width="0.5"/>
<path d="M2537 21L2539.04 49.4672L2556.7 51L2567 48.4818L2564.51 35.6715L2560.21 34.6861C2560.21 34.6861 2551.26 40.0995 2546.74 37.7518C2542.21 35.4042 2541.64 26.0365 2541.64 26.0365L2564.51 29.5401V22.7518L2537 21Z" fill="#82A985" stroke="black" stroke-width="0.5"/>
<path d="M2558.91 39.1663C2556.93 38.1543 2550.36 42.0526 2549.06 42.9984C2547.76 43.9443 2546 45.7356 2546 45.7356L2558.23 46.3926C2558.23 46.3926 2562 45.4377 2562.42 43.5459C2562.83 41.6541 2560.88 40.1783 2558.91 39.1663Z" fill="#82A985" stroke="black" stroke-width="0.5"/>
<path d="M3126.72 32H3112V38.1277L3129 40L3126.72 32Z" fill="#82A985" stroke="black" stroke-width="0.5"/>
<path d="M4773.85 22C4773.85 22 4776.31 42.9616 4768.09 44.9056C4766.15 45.3649 4763 44.9056 4763 44.9056L4762 53H4766.08V49.3833L4792.59 50.3306V53H4796V46.5417L4790.65 44.9056L4784.15 22H4773.85Z" fill="#82A985" stroke="black" stroke-width="0.5"/>
<path d="M4777.35 31.4629C4775.91 32.5733 4776 36.199 4776 36.199L4780.02 43.949L4783.97 40.849L4781.56 31.4629C4781.56 31.4629 4778.7 30.4213 4777.35 31.4629Z" fill="#82A985" stroke="black" stroke-width="0.5"/>
<path d="M4622 22L4624.67 50.8275L4647 53L4645.17 46.0647L4631.42 47.2345V40.5499L4636.83 39.4636V35.8706L4630.17 37.7089L4629.25 31.2749H4644.17L4647 24.1725L4622 22Z" fill="#82A985" stroke="black" stroke-width="0.5"/>
<path d="M4654 52V24.21L4662.43 21.7234V29.912L4676.47 19L4682.55 24.21L4664.3 35.1311L4687 42.5727V52L4662.43 44.8043V52H4654Z" fill="#82A985" stroke="black" stroke-width="0.5"/>
<path d="M4729 52.3111L4729.68 23.3778L4738.62 24.6571L4740.28 37.254H4744.75L4746.21 24.6571L4754.96 22L4757 53L4744.75 52.3111L4746.21 40.9937H4740.28L4737.36 52.3111H4729Z" fill="#82A985" stroke="black" stroke-width="0.5"/>
<path d="M4700.33 22.0827L4696.82 29.3258C4696.82 29.3258 4695.62 31.3302 4695.23 32.7943C4694.34 36.1365 4696.29 41.6696 4696.29 41.6696L4698.05 49.4227L4704.2 52.0751C4704.2 52.0751 4710.21 54.1562 4713.26 52.0751C4715.3 50.6833 4717.13 46.6683 4717.13 46.6683L4719.33 39.8333L4721 31.162C4721 31.162 4717.17 24.1569 4713.26 22.0827C4708.67 19.6466 4700.33 22.0827 4700.33 22.0827Z" fill="#82A985" stroke="black" stroke-width="0.5"/>
<path d="M4703 38.1813L4704.85 33.1826L4707.57 29L4712.67 29.6121L4713.29 38.6914L4710.91 44.8123L4704.23 43.5881L4703 38.1813Z" fill="#82A985" stroke="black" stroke-width="0.5"/>
<path d="M4609.81 21L4615.04 29.072L4609.81 32.406L4605.93 29.7739H4600.88L4598.98 39.1619L4607.37 43.8998L4613.96 39.1619L4620 42.9347L4612.69 51.9718C4612.69 51.9718 4595.77 52.8003 4591.31 45.4791C4587.18 38.6942 4594.11 25.4747 4594.11 25.4747L4609.81 21Z" fill="#82A985" stroke="black" stroke-width="0.5"/>
<path d="M4938.85 23C4938.85 23 4941.31 43.2854 4933.09 45.1667C4931.15 45.6112 4928 45.1667 4928 45.1667L4927 53H4931.08V49.5L4957.59 50.4167V53H4961V46.75L4955.65 45.1667L4949.15 23H4938.85Z" fill="#82A985" stroke="black" stroke-width="0.5"/>
<path d="M4942.35 32.448C4940.91 33.5226 4941 37.0313 4941 37.0313L4945.02 44.5313L4948.97 41.5313L4946.56 32.448C4946.56 32.448 4943.7 31.44 4942.35 32.448Z" fill="#82A985" stroke="black" stroke-width="0.5"/>
<path d="M4860 22L4862.67 50.8275L4885 53L4883.17 46.0647L4869.42 47.2345V40.5499L4874.83 39.4636V35.8706L4868.17 37.7089L4867.25 31.2749H4882.17L4885 24.1725L4860 22Z" fill="#82A985" stroke="black" stroke-width="0.5"/>
<path d="M4893 53.2889L4893.7 23.4222L4902.97 24.7429L4904.68 37.746H4909.31L4910.82 24.7429L4919.89 22L4922 54L4909.31 53.2889L4910.82 41.6063H4904.68L4901.66 53.2889H4893Z" fill="#82A985" stroke="black" stroke-width="0.5"/>
<path d="M4828.33 23.3881H4817.68L4829.25 40.199L4815 53H4824.5L4835.3 40.199L4837.45 53L4850.01 51.1493L4841.35 36.9602L4852 22H4845.57L4835.3 31.3308L4828.33 23.3881Z" fill="#82A985" stroke="black" stroke-width="0.5"/>
<path d="M4325 52L4326.75 22.6822L4338.63 21L4349 25.0853L4346.44 31.9341L4342.36 34.6977L4336.65 37.1008H4349V42.0271V52H4325Z" fill="#82A985" stroke="black" stroke-width="0.5"/>
<path d="M4332 31.5659V27H4336.43H4340.5L4338.41 31.5659H4332Z" fill="#82A985"/>
<path d="M4336.43 47.5465L4332 44.062L4335.26 41.6589H4344.35L4346.21 44.062L4336.43 47.5465Z" fill="#82A985"/>
<path d="M4332 31.5659V27H4336.43H4340.5L4338.41 31.5659H4332Z" stroke="black" stroke-width="0.5"/>
<path d="M4336.43 47.5465L4332 44.062L4335.26 41.6589H4344.35L4346.21 44.062L4336.43 47.5465Z" stroke="black" stroke-width="0.5"/>
<path d="M4462 51.8289V25.2378L4468.16 22L4469.38 38.8778L4483.32 39.4289L4483.92 44.1822V50.52L4475.6 53L4462 51.8289Z" fill="#82A985"/>
<path d="M4488.86 51.8289L4487.98 22.6889H4492.45L4498 51.8289H4488.86Z" fill="#82A985"/>
<path d="M4462 51.8289V25.2378L4468.16 22L4469.38 38.8778L4483.32 39.4289L4483.92 44.1822V50.52L4475.6 53L4462 51.8289Z" stroke="black" stroke-width="0.5"/>
<path d="M4488.86 51.8289L4487.98 22.6889H4492.45L4498 51.8289H4488.86Z" stroke="black" stroke-width="0.5"/>
<path d="M4469 48.5467L4470.08 44L4478.81 44.62L4477.8 48.5467H4469Z" fill="#82A985" stroke="black" stroke-width="0.5"/>
<path d="M4356 22L4358.67 50.8275L4381 53L4379.17 46.0647L4365.42 47.2345V40.5499L4370.83 39.4636V35.8706L4364.17 37.7089L4363.25 31.2749H4378.17L4381 24.1725L4356 22Z" fill="#82A985" stroke="black" stroke-width="0.5"/>
<path d="M4276.38 24.2259L4269.85 55.0004L4262.18 50.9239L4264.34 36.659L4253.83 29.3087L4256.71 23.8982L4266.53 32.5365L4270.03 20.8504L4276.38 24.2259Z" fill="#82A985" stroke="black" stroke-width="0.5"/>
<path d="M4282 52V24.21L4290.43 21.7234V29.912L4304.47 19L4310.55 24.21L4292.3 35.1311L4315 42.5727V52L4290.43 44.8043V52H4282Z" fill="#82A985" stroke="black" stroke-width="0.5"/>
<path d="M4529.24 22.9814L4542.97 51.9531L4543.65 53.3809H4530.56L4530.34 52.6924L4527.81 44.9561L4515.94 53.2021L4515.68 53.3809H4507.04L4506.96 52.4658L4504.69 25.7676L4504.6 24.6836H4512.12L4512.3 25.4482L4516.05 40.9902L4523.15 37.4717L4521.87 23.501L4521.77 22.4092H4528.97L4529.24 22.9814ZM4522.99 20.1416L4520.21 22.415L4519.94 22.6416H4514.74L4514.46 22.3955L4511.85 20.1211L4509.83 18.3672H4525.16L4522.99 20.1416Z" fill="#82A985"/>
<path d="M4529.24 22.9814L4529.47 22.8744L4529.47 22.8743L4529.24 22.9814ZM4542.97 51.9531L4542.75 52.0602L4542.75 52.0602L4542.97 51.9531ZM4543.65 53.3809V53.6309H4544.04L4543.87 53.2738L4543.65 53.3809ZM4530.56 53.3809L4530.32 53.4587L4530.38 53.6309H4530.56V53.3809ZM4530.34 52.6924L4530.1 52.7701L4530.1 52.7702L4530.34 52.6924ZM4527.81 44.9561L4528.04 44.8783L4527.94 44.5591L4527.66 44.7508L4527.81 44.9561ZM4515.94 53.2021L4515.8 52.9969L4515.8 52.9969L4515.94 53.2021ZM4515.68 53.3809V53.6309H4515.76L4515.83 53.5861L4515.68 53.3809ZM4507.04 53.3809L4506.79 53.4021L4506.81 53.6309H4507.04V53.3809ZM4506.96 52.4658L4506.71 52.487L4506.71 52.4871L4506.96 52.4658ZM4504.69 25.7676L4504.94 25.7464L4504.94 25.7463L4504.69 25.7676ZM4504.6 24.6836V24.4336H4504.32L4504.35 24.7049L4504.6 24.6836ZM4512.12 24.6836L4512.36 24.6249L4512.31 24.4336H4512.12V24.6836ZM4512.3 25.4482L4512.54 25.3896L4512.54 25.3896L4512.3 25.4482ZM4516.05 40.9902L4515.8 41.0488L4515.88 41.3532L4516.16 41.2143L4516.05 40.9902ZM4523.15 37.4717L4523.27 37.6957L4523.42 37.6196L4523.4 37.4488L4523.15 37.4717ZM4521.87 23.501L4522.12 23.4781L4522.12 23.478L4521.87 23.501ZM4521.77 22.4092V22.1592H4521.5L4521.52 22.4321L4521.77 22.4092ZM4528.97 22.4092L4529.2 22.302L4529.13 22.1592H4528.97V22.4092ZM4522.99 20.1416L4523.15 20.3351L4523.15 20.3351L4522.99 20.1416ZM4520.21 22.415L4520.06 22.2215L4520.06 22.2217L4520.21 22.415ZM4519.94 22.6416V22.8916H4520.03L4520.1 22.8349L4519.94 22.6416ZM4514.74 22.6416L4514.58 22.83L4514.65 22.8916H4514.74V22.6416ZM4514.46 22.3955L4514.62 22.2071L4514.62 22.207L4514.46 22.3955ZM4511.85 20.1211L4511.68 20.3096L4511.68 20.3096L4511.85 20.1211ZM4509.83 18.3672V18.1172H4509.17L4509.67 18.5557L4509.83 18.3672ZM4525.16 18.3672L4525.32 18.5606L4525.86 18.1172H4525.16V18.3672ZM4529.24 22.9814L4529.02 23.0885L4542.75 52.0602L4542.97 51.9531L4543.2 51.8461L4529.47 22.8744L4529.24 22.9814ZM4542.97 51.9531L4542.75 52.0602L4543.42 53.4879L4543.65 53.3809L4543.87 53.2738L4543.2 51.846L4542.97 51.9531ZM4543.65 53.3809V53.1309H4530.56V53.3809V53.6309H4543.65V53.3809ZM4530.56 53.3809L4530.8 53.303L4530.57 52.6145L4530.34 52.6924L4530.1 52.7702L4530.32 53.4587L4530.56 53.3809ZM4530.34 52.6924L4530.57 52.6147L4528.04 44.8783L4527.81 44.9561L4527.57 45.0338L4530.1 52.7701L4530.34 52.6924ZM4527.81 44.9561L4527.66 44.7508L4515.8 52.9969L4515.94 53.2021L4516.08 53.4074L4527.95 45.1614L4527.81 44.9561ZM4515.94 53.2021L4515.8 52.9969L4515.54 53.1756L4515.68 53.3809L4515.83 53.5861L4516.08 53.4074L4515.94 53.2021ZM4515.68 53.3809V53.1309H4507.04V53.3809V53.6309H4515.68V53.3809ZM4507.04 53.3809L4507.29 53.3596L4507.21 52.4446L4506.96 52.4658L4506.71 52.4871L4506.79 53.4021L4507.04 53.3809ZM4506.96 52.4658L4507.21 52.4446L4504.94 25.7464L4504.69 25.7676L4504.44 25.7888L4506.71 52.487L4506.96 52.4658ZM4504.69 25.7676L4504.94 25.7463L4504.84 24.6623L4504.6 24.6836L4504.35 24.7049L4504.44 25.7889L4504.69 25.7676ZM4504.6 24.6836V24.9336H4512.12V24.6836V24.4336H4504.6V24.6836ZM4512.12 24.6836L4511.87 24.7423L4512.06 25.5069L4512.3 25.4482L4512.54 25.3896L4512.36 24.6249L4512.12 24.6836ZM4512.3 25.4482L4512.06 25.5069L4515.8 41.0488L4516.05 40.9902L4516.29 40.9316L4512.54 25.3896L4512.3 25.4482ZM4516.05 40.9902L4516.16 41.2143L4523.27 37.6957L4523.15 37.4717L4523.04 37.2476L4515.94 40.7662L4516.05 40.9902ZM4523.15 37.4717L4523.4 37.4488L4522.12 23.4781L4521.87 23.501L4521.62 23.5239L4522.91 37.4946L4523.15 37.4717ZM4521.87 23.501L4522.12 23.478L4522.02 22.3862L4521.77 22.4092L4521.52 22.4321L4521.62 23.5239L4521.87 23.501ZM4521.77 22.4092V22.6592H4528.97V22.4092V22.1592H4521.77V22.4092ZM4528.97 22.4092L4528.75 22.5163L4529.02 23.0886L4529.24 22.9814L4529.47 22.8743L4529.2 22.302L4528.97 22.4092ZM4522.99 20.1416L4522.83 19.9481L4520.06 22.2215L4520.21 22.415L4520.37 22.6085L4523.15 20.3351L4522.99 20.1416ZM4520.21 22.415L4520.06 22.2217L4519.78 22.4483L4519.94 22.6416L4520.1 22.8349L4520.37 22.6084L4520.21 22.415ZM4519.94 22.6416V22.3916H4514.74V22.6416V22.8916H4519.94V22.6416ZM4514.74 22.6416L4514.91 22.4532L4514.62 22.2071L4514.46 22.3955L4514.3 22.5839L4514.58 22.83L4514.74 22.6416ZM4514.46 22.3955L4514.62 22.207L4512.01 19.9326L4511.85 20.1211L4511.68 20.3096L4514.3 22.584L4514.46 22.3955ZM4511.85 20.1211L4512.01 19.9326L4510 18.1787L4509.83 18.3672L4509.67 18.5557L4511.68 20.3096L4511.85 20.1211ZM4509.83 18.3672V18.6172H4525.16V18.3672V18.1172H4509.83V18.3672ZM4525.16 18.3672L4525 18.1737L4522.83 19.9481L4522.99 20.1416L4523.15 20.3351L4525.32 18.5606L4525.16 18.3672Z" fill="black"/>
<path d="M4389 52.3111L4389.7 23.3778L4398.97 24.6571L4400.68 37.254H4405.31L4406.82 24.6571L4415.89 22L4418 53L4405.31 52.3111L4406.82 40.9937H4400.68L4397.66 52.3111H4389Z" fill="#82A985" stroke="black" stroke-width="0.5"/>
<path d="M4425 52.3111L4425.7 23.3778L4434.97 24.6571L4436.68 37.254H4441.31L4442.82 24.6571L4451.89 22L4454 53L4441.31 52.3111L4442.82 40.9937H4436.68L4433.66 52.3111H4425Z" fill="#82A985" stroke="black" stroke-width="0.5"/>
<path d="M4221 22L4223.04 50.4672L4240.7 52L4251 49.4818L4248.51 36.6715L4244.21 35.6861C4244.21 35.6861 4235.26 41.0995 4230.74 38.7518C4226.21 36.4042 4225.64 27.0365 4225.64 27.0365L4248.51 30.5401V23.7518L4221 22Z" fill="#82A985" stroke="black" stroke-width="0.5"/>
<path d="M4242.91 40.1663C4240.93 39.1543 4234.36 43.0526 4233.06 43.9984C4231.76 44.9443 4230 46.7356 4230 46.7356L4242.23 47.3926C4242.23 47.3926 4246 46.4377 4246.42 44.5459C4246.83 42.6541 4244.88 41.1783 4242.91 40.1663Z" fill="#82A985" stroke="black" stroke-width="0.5"/>
<path d="M4810.72 33H4796V39.1277L4813 41L4810.72 33Z" fill="#82A985" stroke="black" stroke-width="0.5"/>
<path d="M3930.85 23C3930.85 23 3933.31 43.9616 3925.09 45.9056C3923.15 46.3649 3920 45.9056 3920 45.9056L3919 54H3923.08V50.3833L3949.59 51.3306V54H3953V47.5417L3947.65 45.9056L3941.15 23H3930.85Z" fill="#82A985" stroke="black" stroke-width="0.5"/>
<path d="M3934.35 32.4629C3932.91 33.5733 3933 37.199 3933 37.199L3937.02 44.949L3940.97 41.849L3938.56 32.4629C3938.56 32.4629 3935.7 31.4213 3934.35 32.4629Z" fill="#82A985" stroke="black" stroke-width="0.5"/>
<path d="M3779 23L3781.67 51.8275L3804 54L3802.17 47.0647L3788.42 48.2345V41.5499L3793.83 40.4636V36.8706L3787.17 38.7089L3786.25 32.2749H3801.17L3804 25.1725L3779 23Z" fill="#82A985" stroke="black" stroke-width="0.5"/>
<path d="M3811 53V25.21L3819.43 22.7234V30.912L3833.47 20L3839.55 25.21L3821.3 36.1311L3844 43.5727V53L3819.43 45.8043V53H3811Z" fill="#82A985" stroke="black" stroke-width="0.5"/>
<path d="M3886 53.3111L3886.68 24.3778L3895.62 25.6571L3897.28 38.254H3901.75L3903.21 25.6571L3911.96 23L3914 54L3901.75 53.3111L3903.21 41.9937H3897.28L3894.36 53.3111H3886Z" fill="#82A985" stroke="black" stroke-width="0.5"/>
<path d="M3857.33 23.0827L3853.82 30.3258C3853.82 30.3258 3852.62 32.3302 3852.23 33.7943C3851.34 37.1365 3853.29 42.6696 3853.29 42.6696L3855.05 50.4227L3861.2 53.0751C3861.2 53.0751 3867.21 55.1562 3870.26 53.0751C3872.3 51.6833 3874.13 47.6683 3874.13 47.6683L3876.33 40.8333L3878 32.162C3878 32.162 3874.17 25.1569 3870.26 23.0827C3865.67 20.6466 3857.33 23.0827 3857.33 23.0827Z" fill="#82A985" stroke="black" stroke-width="0.5"/>
<path d="M3860 39.1813L3861.85 34.1826L3864.57 30L3869.67 30.6121L3870.29 39.6914L3867.91 45.8123L3861.23 44.5881L3860 39.1813Z" fill="#82A985" stroke="black" stroke-width="0.5"/>
<path d="M3766.81 22L3772.04 30.072L3766.81 33.406L3762.93 30.7739H3757.88L3755.98 40.1619L3764.37 44.8998L3770.96 40.1619L3777 43.9347L3769.69 52.9718C3769.69 52.9718 3752.77 53.8003 3748.31 46.4791C3744.18 39.6942 3751.11 26.4747 3751.11 26.4747L3766.81 22Z" fill="#82A985" stroke="black" stroke-width="0.5"/>
<path d="M4095.85 24C4095.85 24 4098.31 44.2854 4090.09 46.1667C4088.15 46.6112 4085 46.1667 4085 46.1667L4084 54H4088.08V50.5L4114.59 51.4167V54H4118V47.75L4112.65 46.1667L4106.15 24H4095.85Z" fill="#82A985" stroke="black" stroke-width="0.5"/>
<path d="M4099.35 33.448C4097.91 34.5226 4098 38.0313 4098 38.0313L4102.02 45.5313L4105.97 42.5313L4103.56 33.448C4103.56 33.448 4100.7 32.44 4099.35 33.448Z" fill="#82A985" stroke="black" stroke-width="0.5"/>
<path d="M4017 23L4019.67 51.8275L4042 54L4040.17 47.0647L4026.42 48.2345V41.5499L4031.83 40.4636V36.8706L4025.17 38.7089L4024.25 32.2749H4039.17L4042 25.1725L4017 23Z" fill="#82A985" stroke="black" stroke-width="0.5"/>
<path d="M4050 54.2889L4050.7 24.4222L4059.97 25.7429L4061.68 38.746H4066.31L4067.82 25.7429L4076.89 23L4079 55L4066.31 54.2889L4067.82 42.6063H4061.68L4058.66 54.2889H4050Z" fill="#82A985" stroke="black" stroke-width="0.5"/>
<path d="M3985.33 24.3881H3974.68L3986.25 41.199L3972 54H3981.5L3992.3 41.199L3994.45 54L4007.01 52.1493L3998.35 37.9602L4009 23H4002.57L3992.3 32.3308L3985.33 24.3881Z" fill="#82A985" stroke="black" stroke-width="0.5"/>
<path d="M3482 53L3483.75 23.6822L3495.63 22L3506 26.0853L3503.44 32.9341L3499.36 35.6977L3493.65 38.1008H3506V43.0271V53H3482Z" fill="#82A985" stroke="black" stroke-width="0.5"/>
<path d="M3489 32.5659V28H3493.43H3497.5L3495.41 32.5659H3489Z" fill="#82A985"/>
<path d="M3493.43 48.5465L3489 45.062L3492.26 42.6589H3501.35L3503.21 45.062L3493.43 48.5465Z" fill="#82A985"/>
<path d="M3489 32.5659V28H3493.43H3497.5L3495.41 32.5659H3489Z" stroke="black" stroke-width="0.5"/>
<path d="M3493.43 48.5465L3489 45.062L3492.26 42.6589H3501.35L3503.21 45.062L3493.43 48.5465Z" stroke="black" stroke-width="0.5"/>
<path d="M3619 52.8289V26.2378L3625.16 23L3626.38 39.8778L3640.32 40.4289L3640.92 45.1822V51.52L3632.6 54L3619 52.8289Z" fill="#82A985"/>
<path d="M3645.86 52.8289L3644.98 23.6889H3649.45L3655 52.8289H3645.86Z" fill="#82A985"/>
<path d="M3619 52.8289V26.2378L3625.16 23L3626.38 39.8778L3640.32 40.4289L3640.92 45.1822V51.52L3632.6 54L3619 52.8289Z" stroke="black" stroke-width="0.5"/>
<path d="M3645.86 52.8289L3644.98 23.6889H3649.45L3655 52.8289H3645.86Z" stroke="black" stroke-width="0.5"/>
<path d="M3626 49.5467L3627.08 45L3635.81 45.62L3634.8 49.5467H3626Z" fill="#82A985" stroke="black" stroke-width="0.5"/>
<path d="M3513 23L3515.67 51.8275L3538 54L3536.17 47.0647L3522.42 48.2345V41.5499L3527.83 40.4636V36.8706L3521.17 38.7089L3520.25 32.2749H3535.17L3538 25.1725L3513 23Z" fill="#82A985" stroke="black" stroke-width="0.5"/>
<path d="M3433.38 25.2259L3426.85 56.0004L3419.18 51.9239L3421.34 37.659L3410.83 30.3087L3413.71 24.8982L3423.53 33.5365L3427.03 21.8504L3433.38 25.2259Z" fill="#82A985" stroke="black" stroke-width="0.5"/>
<path d="M3439 53V25.21L3447.43 22.7234V30.912L3461.47 20L3467.55 25.21L3449.3 36.1311L3472 43.5727V53L3447.43 45.8043V53H3439Z" fill="#82A985" stroke="black" stroke-width="0.5"/>
<path d="M3686.24 23.9814L3699.97 52.9531L3700.65 54.3809H3687.56L3687.34 53.6924L3684.81 45.9561L3672.94 54.2021L3672.68 54.3809H3664.04L3663.96 53.4658L3661.69 26.7676L3661.6 25.6836H3669.12L3669.3 26.4482L3673.05 41.9902L3680.15 38.4717L3678.87 24.501L3678.77 23.4092H3685.97L3686.24 23.9814ZM3679.99 21.1416L3677.21 23.415L3676.94 23.6416H3671.74L3671.46 23.3955L3668.85 21.1211L3666.83 19.3672H3682.16L3679.99 21.1416Z" fill="#82A985"/>
<path d="M3686.24 23.9814L3686.47 23.8744L3686.47 23.8743L3686.24 23.9814ZM3699.97 52.9531L3699.75 53.0602L3699.75 53.0602L3699.97 52.9531ZM3700.65 54.3809V54.6309H3701.04L3700.87 54.2738L3700.65 54.3809ZM3687.56 54.3809L3687.32 54.4587L3687.38 54.6309H3687.56V54.3809ZM3687.34 53.6924L3687.1 53.7701L3687.1 53.7702L3687.34 53.6924ZM3684.81 45.9561L3685.04 45.8783L3684.94 45.5591L3684.66 45.7508L3684.81 45.9561ZM3672.94 54.2021L3672.8 53.9969L3672.8 53.9969L3672.94 54.2021ZM3672.68 54.3809V54.6309H3672.76L3672.83 54.5861L3672.68 54.3809ZM3664.04 54.3809L3663.79 54.4021L3663.81 54.6309H3664.04V54.3809ZM3663.96 53.4658L3663.71 53.487L3663.71 53.4871L3663.96 53.4658ZM3661.69 26.7676L3661.94 26.7464L3661.94 26.7463L3661.69 26.7676ZM3661.6 25.6836V25.4336H3661.32L3661.35 25.7049L3661.6 25.6836ZM3669.12 25.6836L3669.36 25.6249L3669.31 25.4336H3669.12V25.6836ZM3669.3 26.4482L3669.54 26.3896L3669.54 26.3896L3669.3 26.4482ZM3673.05 41.9902L3672.8 42.0488L3672.88 42.3532L3673.16 42.2143L3673.05 41.9902ZM3680.15 38.4717L3680.27 38.6957L3680.42 38.6196L3680.4 38.4488L3680.15 38.4717ZM3678.87 24.501L3679.12 24.4781L3679.12 24.478L3678.87 24.501ZM3678.77 23.4092V23.1592H3678.5L3678.52 23.4321L3678.77 23.4092ZM3685.97 23.4092L3686.2 23.302L3686.13 23.1592H3685.97V23.4092ZM3679.99 21.1416L3680.15 21.3351L3680.15 21.3351L3679.99 21.1416ZM3677.21 23.415L3677.06 23.2215L3677.06 23.2217L3677.21 23.415ZM3676.94 23.6416V23.8916H3677.03L3677.1 23.8349L3676.94 23.6416ZM3671.74 23.6416L3671.58 23.83L3671.65 23.8916H3671.74V23.6416ZM3671.46 23.3955L3671.62 23.2071L3671.62 23.207L3671.46 23.3955ZM3668.85 21.1211L3668.68 21.3096L3668.68 21.3096L3668.85 21.1211ZM3666.83 19.3672V19.1172H3666.17L3666.67 19.5557L3666.83 19.3672ZM3682.16 19.3672L3682.32 19.5606L3682.86 19.1172H3682.16V19.3672ZM3686.24 23.9814L3686.02 24.0885L3699.75 53.0602L3699.97 52.9531L3700.2 52.8461L3686.47 23.8744L3686.24 23.9814ZM3699.97 52.9531L3699.75 53.0602L3700.42 54.4879L3700.65 54.3809L3700.87 54.2738L3700.2 52.846L3699.97 52.9531ZM3700.65 54.3809V54.1309H3687.56V54.3809V54.6309H3700.65V54.3809ZM3687.56 54.3809L3687.8 54.303L3687.57 53.6145L3687.34 53.6924L3687.1 53.7702L3687.32 54.4587L3687.56 54.3809ZM3687.34 53.6924L3687.57 53.6147L3685.04 45.8783L3684.81 45.9561L3684.57 46.0338L3687.1 53.7701L3687.34 53.6924ZM3684.81 45.9561L3684.66 45.7508L3672.8 53.9969L3672.94 54.2021L3673.08 54.4074L3684.95 46.1614L3684.81 45.9561ZM3672.94 54.2021L3672.8 53.9969L3672.54 54.1756L3672.68 54.3809L3672.83 54.5861L3673.08 54.4074L3672.94 54.2021ZM3672.68 54.3809V54.1309H3664.04V54.3809V54.6309H3672.68V54.3809ZM3664.04 54.3809L3664.29 54.3596L3664.21 53.4446L3663.96 53.4658L3663.71 53.4871L3663.79 54.4021L3664.04 54.3809ZM3663.96 53.4658L3664.21 53.4446L3661.94 26.7464L3661.69 26.7676L3661.44 26.7888L3663.71 53.487L3663.96 53.4658ZM3661.69 26.7676L3661.94 26.7463L3661.84 25.6623L3661.6 25.6836L3661.35 25.7049L3661.44 26.7889L3661.69 26.7676ZM3661.6 25.6836V25.9336H3669.12V25.6836V25.4336H3661.6V25.6836ZM3669.12 25.6836L3668.87 25.7423L3669.06 26.5069L3669.3 26.4482L3669.54 26.3896L3669.36 25.6249L3669.12 25.6836ZM3669.3 26.4482L3669.06 26.5069L3672.8 42.0488L3673.05 41.9902L3673.29 41.9316L3669.54 26.3896L3669.3 26.4482ZM3673.05 41.9902L3673.16 42.2143L3680.27 38.6957L3680.15 38.4717L3680.04 38.2476L3672.94 41.7662L3673.05 41.9902ZM3680.15 38.4717L3680.4 38.4488L3679.12 24.4781L3678.87 24.501L3678.62 24.5239L3679.91 38.4946L3680.15 38.4717ZM3678.87 24.501L3679.12 24.478L3679.02 23.3862L3678.77 23.4092L3678.52 23.4321L3678.62 24.5239L3678.87 24.501ZM3678.77 23.4092V23.6592H3685.97V23.4092V23.1592H3678.77V23.4092ZM3685.97 23.4092L3685.75 23.5163L3686.02 24.0886L3686.24 23.9814L3686.47 23.8743L3686.2 23.302L3685.97 23.4092ZM3679.99 21.1416L3679.83 20.9481L3677.06 23.2215L3677.21 23.415L3677.37 23.6085L3680.15 21.3351L3679.99 21.1416ZM3677.21 23.415L3677.06 23.2217L3676.78 23.4483L3676.94 23.6416L3677.1 23.8349L3677.37 23.6084L3677.21 23.415ZM3676.94 23.6416V23.3916H3671.74V23.6416V23.8916H3676.94V23.6416ZM3671.74 23.6416L3671.91 23.4532L3671.62 23.2071L3671.46 23.3955L3671.3 23.5839L3671.58 23.83L3671.74 23.6416ZM3671.46 23.3955L3671.62 23.207L3669.01 20.9326L3668.85 21.1211L3668.68 21.3096L3671.3 23.584L3671.46 23.3955ZM3668.85 21.1211L3669.01 20.9326L3667 19.1787L3666.83 19.3672L3666.67 19.5557L3668.68 21.3096L3668.85 21.1211ZM3666.83 19.3672V19.6172H3682.16V19.3672V19.1172H3666.83V19.3672ZM3682.16 19.3672L3682 19.1737L3679.83 20.9481L3679.99 21.1416L3680.15 21.3351L3682.32 19.5606L3682.16 19.3672Z" fill="black"/>
<path d="M3546 53.3111L3546.7 24.3778L3555.97 25.6571L3557.68 38.254H3562.31L3563.82 25.6571L3572.89 23L3575 54L3562.31 53.3111L3563.82 41.9937H3557.68L3554.66 53.3111H3546Z" fill="#82A985" stroke="black" stroke-width="0.5"/>
<path d="M3582 53.3111L3582.7 24.3778L3591.97 25.6571L3593.68 38.254H3598.31L3599.82 25.6571L3608.89 23L3611 54L3598.31 53.3111L3599.82 41.9937H3593.68L3590.66 53.3111H3582Z" fill="#82A985" stroke="black" stroke-width="0.5"/>
<path d="M3378 23L3380.04 51.4672L3397.7 53L3408 50.4818L3405.51 37.6715L3401.21 36.6861C3401.21 36.6861 3392.26 42.0995 3387.74 39.7518C3383.21 37.4042 3382.64 28.0365 3382.64 28.0365L3405.51 31.5401V24.7518L3378 23Z" fill="#82A985" stroke="black" stroke-width="0.5"/>
<path d="M3399.91 41.1663C3397.93 40.1543 3391.36 44.0526 3390.06 44.9984C3388.76 45.9443 3387 47.7356 3387 47.7356L3399.23 48.3926C3399.23 48.3926 3403 47.4377 3403.42 45.5459C3403.83 43.6541 3401.88 42.1783 3399.91 41.1663Z" fill="#82A985" stroke="black" stroke-width="0.5"/>
<path d="M3967.72 34H3953V40.1277L3970 42L3967.72 34Z" fill="#82A985" stroke="black" stroke-width="0.5"/>
<rect x="5027" width="2515" height="69" fill="#2C3872"/>
<path d="M5604.85 21C5604.85 21 5607.31 41.9616 5599.09 43.9056C5597.15 44.3649 5594 43.9056 5594 43.9056L5593 52H5597.08V48.3833L5623.59 49.3306V52H5627V45.5417L5621.65 43.9056L5615.15 21H5604.85Z" fill="#82A985" stroke="black" stroke-width="0.5"/>
<path d="M5608.35 30.4629C5606.91 31.5733 5607 35.199 5607 35.199L5611.02 42.949L5614.97 39.849L5612.56 30.4629C5612.56 30.4629 5609.7 29.4213 5608.35 30.4629Z" fill="#82A985" stroke="black" stroke-width="0.5"/>
<path d="M5453 21L5455.67 49.8275L5478 52L5476.17 45.0647L5462.42 46.2345V39.5499L5467.83 38.4636V34.8706L5461.17 36.7089L5460.25 30.2749H5475.17L5478 23.1725L5453 21Z" fill="#82A985" stroke="black" stroke-width="0.5"/>
<path d="M5485 51V23.21L5493.43 20.7234V28.912L5507.47 18L5513.55 23.21L5495.3 34.1311L5518 41.5727V51L5493.43 43.8043V51H5485Z" fill="#82A985" stroke="black" stroke-width="0.5"/>
<path d="M5560 51.3111L5560.68 22.3778L5569.62 23.6571L5571.28 36.254H5575.75L5577.21 23.6571L5585.96 21L5588 52L5575.75 51.3111L5577.21 39.9937H5571.28L5568.36 51.3111H5560Z" fill="#82A985" stroke="black" stroke-width="0.5"/>
<path d="M5531.33 21.0827L5527.82 28.3258C5527.82 28.3258 5526.62 30.3302 5526.23 31.7943C5525.34 35.1365 5527.29 40.6696 5527.29 40.6696L5529.05 48.4227L5535.2 51.0751C5535.2 51.0751 5541.21 53.1562 5544.26 51.0751C5546.3 49.6833 5548.13 45.6683 5548.13 45.6683L5550.33 38.8333L5552 30.162C5552 30.162 5548.17 23.1569 5544.26 21.0827C5539.67 18.6466 5531.33 21.0827 5531.33 21.0827Z" fill="#82A985" stroke="black" stroke-width="0.5"/>
<path d="M5534 37.1813L5535.85 32.1826L5538.57 28L5543.67 28.6121L5544.29 37.6914L5541.91 43.8123L5535.23 42.5881L5534 37.1813Z" fill="#82A985" stroke="black" stroke-width="0.5"/>
<path d="M5440.81 20L5446.04 28.072L5440.81 31.406L5436.93 28.7739H5431.88L5429.98 38.1619L5438.37 42.8998L5444.96 38.1619L5451 41.9347L5443.69 50.9718C5443.69 50.9718 5426.77 51.8003 5422.31 44.4791C5418.18 37.6942 5425.11 24.4747 5425.11 24.4747L5440.81 20Z" fill="#82A985" stroke="black" stroke-width="0.5"/>
<path d="M5769.85 22C5769.85 22 5772.31 42.2854 5764.09 44.1667C5762.15 44.6112 5759 44.1667 5759 44.1667L5758 52H5762.08V48.5L5788.59 49.4167V52H5792V45.75L5786.65 44.1667L5780.15 22H5769.85Z" fill="#82A985" stroke="black" stroke-width="0.5"/>
<path d="M5773.35 31.448C5771.91 32.5226 5772 36.0313 5772 36.0313L5776.02 43.5313L5779.97 40.5313L5777.56 31.448C5777.56 31.448 5774.7 30.44 5773.35 31.448Z" fill="#82A985" stroke="black" stroke-width="0.5"/>
<path d="M5691 21L5693.67 49.8275L5716 52L5714.17 45.0647L5700.42 46.2345V39.5499L5705.83 38.4636V34.8706L5699.17 36.7089L5698.25 30.2749H5713.17L5716 23.1725L5691 21Z" fill="#82A985" stroke="black" stroke-width="0.5"/>
<path d="M5724 52.2889L5724.7 22.4222L5733.97 23.7429L5735.68 36.746H5740.31L5741.82 23.7429L5750.89 21L5753 53L5740.31 52.2889L5741.82 40.6063H5735.68L5732.66 52.2889H5724Z" fill="#82A985" stroke="black" stroke-width="0.5"/>
<path d="M5659.33 22.3881H5648.68L5660.25 39.199L5646 52H5655.5L5666.3 39.199L5668.45 52L5681.01 50.1493L5672.35 35.9602L5683 21H5676.57L5666.3 30.3308L5659.33 22.3881Z" fill="#82A985" stroke="black" stroke-width="0.5"/>
<path d="M5156 51L5157.75 21.6822L5169.63 20L5180 24.0853L5177.44 30.9341L5173.36 33.6977L5167.65 36.1008H5180V41.0271V51H5156Z" fill="#82A985" stroke="black" stroke-width="0.5"/>
<path d="M5163 30.5659V26H5167.43H5171.5L5169.41 30.5659H5163Z" fill="#82A985"/>
<path d="M5167.43 46.5465L5163 43.062L5166.26 40.6589H5175.35L5177.21 43.062L5167.43 46.5465Z" fill="#82A985"/>
<path d="M5163 30.5659V26H5167.43H5171.5L5169.41 30.5659H5163Z" stroke="black" stroke-width="0.5"/>
<path d="M5167.43 46.5465L5163 43.062L5166.26 40.6589H5175.35L5177.21 43.062L5167.43 46.5465Z" stroke="black" stroke-width="0.5"/>
<path d="M5293 50.8289V24.2378L5299.16 21L5300.38 37.8778L5314.32 38.4289L5314.92 43.1822V49.52L5306.6 52L5293 50.8289Z" fill="#82A985"/>
<path d="M5319.86 50.8289L5318.98 21.6889H5323.45L5329 50.8289H5319.86Z" fill="#82A985"/>
<path d="M5293 50.8289V24.2378L5299.16 21L5300.38 37.8778L5314.32 38.4289L5314.92 43.1822V49.52L5306.6 52L5293 50.8289Z" stroke="black" stroke-width="0.5"/>
<path d="M5319.86 50.8289L5318.98 21.6889H5323.45L5329 50.8289H5319.86Z" stroke="black" stroke-width="0.5"/>
<path d="M5300 47.5467L5301.08 43L5309.81 43.62L5308.8 47.5467H5300Z" fill="#82A985" stroke="black" stroke-width="0.5"/>
<path d="M5187 21L5189.67 49.8275L5212 52L5210.17 45.0647L5196.42 46.2345V39.5499L5201.83 38.4636V34.8706L5195.17 36.7089L5194.25 30.2749H5209.17L5212 23.1725L5187 21Z" fill="#82A985" stroke="black" stroke-width="0.5"/>
<path d="M5107.38 23.2259L5100.85 54.0004L5093.18 49.9239L5095.34 35.659L5084.83 28.3087L5087.71 22.8982L5097.53 31.5365L5101.03 19.8504L5107.38 23.2259Z" fill="#82A985" stroke="black" stroke-width="0.5"/>
<path d="M5113 51V23.21L5121.43 20.7234V28.912L5135.47 18L5141.55 23.21L5123.3 34.1311L5146 41.5727V51L5121.43 43.8043V51H5113Z" fill="#82A985" stroke="black" stroke-width="0.5"/>
<path d="M5360.24 21.9814L5373.97 50.9531L5374.65 52.3809H5361.56L5361.34 51.6924L5358.81 43.9561L5346.94 52.2021L5346.68 52.3809H5338.04L5337.96 51.4658L5335.69 24.7676L5335.6 23.6836H5343.12L5343.3 24.4482L5347.05 39.9902L5354.15 36.4717L5352.87 22.501L5352.77 21.4092H5359.97L5360.24 21.9814ZM5353.99 19.1416L5351.21 21.415L5350.94 21.6416H5345.74L5345.46 21.3955L5342.85 19.1211L5340.83 17.3672H5356.16L5353.99 19.1416Z" fill="#82A985"/>
<path d="M5360.24 21.9814L5360.47 21.8744L5360.47 21.8743L5360.24 21.9814ZM5373.97 50.9531L5373.75 51.0602L5373.75 51.0602L5373.97 50.9531ZM5374.65 52.3809V52.6309H5375.04L5374.87 52.2738L5374.65 52.3809ZM5361.56 52.3809L5361.32 52.4587L5361.38 52.6309H5361.56V52.3809ZM5361.34 51.6924L5361.1 51.7701L5361.1 51.7702L5361.34 51.6924ZM5358.81 43.9561L5359.04 43.8783L5358.94 43.5591L5358.66 43.7508L5358.81 43.9561ZM5346.94 52.2021L5346.8 51.9969L5346.8 51.9969L5346.94 52.2021ZM5346.68 52.3809V52.6309H5346.76L5346.83 52.5861L5346.68 52.3809ZM5338.04 52.3809L5337.79 52.4021L5337.81 52.6309H5338.04V52.3809ZM5337.96 51.4658L5337.71 51.487L5337.71 51.4871L5337.96 51.4658ZM5335.69 24.7676L5335.94 24.7464L5335.94 24.7463L5335.69 24.7676ZM5335.6 23.6836V23.4336H5335.32L5335.35 23.7049L5335.6 23.6836ZM5343.12 23.6836L5343.36 23.6249L5343.31 23.4336H5343.12V23.6836ZM5343.3 24.4482L5343.54 24.3896L5343.54 24.3896L5343.3 24.4482ZM5347.05 39.9902L5346.8 40.0488L5346.88 40.3532L5347.16 40.2143L5347.05 39.9902ZM5354.15 36.4717L5354.27 36.6957L5354.42 36.6196L5354.4 36.4488L5354.15 36.4717ZM5352.87 22.501L5353.12 22.4781L5353.12 22.478L5352.87 22.501ZM5352.77 21.4092V21.1592H5352.5L5352.52 21.4321L5352.77 21.4092ZM5359.97 21.4092L5360.2 21.302L5360.13 21.1592H5359.97V21.4092ZM5353.99 19.1416L5354.15 19.3351L5354.15 19.3351L5353.99 19.1416ZM5351.21 21.415L5351.06 21.2215L5351.06 21.2217L5351.21 21.415ZM5350.94 21.6416V21.8916H5351.03L5351.1 21.8349L5350.94 21.6416ZM5345.74 21.6416L5345.58 21.83L5345.65 21.8916H5345.74V21.6416ZM5345.46 21.3955L5345.62 21.2071L5345.62 21.207L5345.46 21.3955ZM5342.85 19.1211L5342.68 19.3096L5342.68 19.3096L5342.85 19.1211ZM5340.83 17.3672V17.1172H5340.17L5340.67 17.5557L5340.83 17.3672ZM5356.16 17.3672L5356.32 17.5606L5356.86 17.1172H5356.16V17.3672ZM5360.24 21.9814L5360.02 22.0885L5373.75 51.0602L5373.97 50.9531L5374.2 50.8461L5360.47 21.8744L5360.24 21.9814ZM5373.97 50.9531L5373.75 51.0602L5374.42 52.4879L5374.65 52.3809L5374.87 52.2738L5374.2 50.846L5373.97 50.9531ZM5374.65 52.3809V52.1309H5361.56V52.3809V52.6309H5374.65V52.3809ZM5361.56 52.3809L5361.8 52.303L5361.57 51.6145L5361.34 51.6924L5361.1 51.7702L5361.32 52.4587L5361.56 52.3809ZM5361.34 51.6924L5361.57 51.6147L5359.04 43.8783L5358.81 43.9561L5358.57 44.0338L5361.1 51.7701L5361.34 51.6924ZM5358.81 43.9561L5358.66 43.7508L5346.8 51.9969L5346.94 52.2021L5347.08 52.4074L5358.95 44.1614L5358.81 43.9561ZM5346.94 52.2021L5346.8 51.9969L5346.54 52.1756L5346.68 52.3809L5346.83 52.5861L5347.08 52.4074L5346.94 52.2021ZM5346.68 52.3809V52.1309H5338.04V52.3809V52.6309H5346.68V52.3809ZM5338.04 52.3809L5338.29 52.3596L5338.21 51.4446L5337.96 51.4658L5337.71 51.4871L5337.79 52.4021L5338.04 52.3809ZM5337.96 51.4658L5338.21 51.4446L5335.94 24.7464L5335.69 24.7676L5335.44 24.7888L5337.71 51.487L5337.96 51.4658ZM5335.69 24.7676L5335.94 24.7463L5335.84 23.6623L5335.6 23.6836L5335.35 23.7049L5335.44 24.7889L5335.69 24.7676ZM5335.6 23.6836V23.9336H5343.12V23.6836V23.4336H5335.6V23.6836ZM5343.12 23.6836L5342.87 23.7423L5343.06 24.5069L5343.3 24.4482L5343.54 24.3896L5343.36 23.6249L5343.12 23.6836ZM5343.3 24.4482L5343.06 24.5069L5346.8 40.0488L5347.05 39.9902L5347.29 39.9316L5343.54 24.3896L5343.3 24.4482ZM5347.05 39.9902L5347.16 40.2143L5354.27 36.6957L5354.15 36.4717L5354.04 36.2476L5346.94 39.7662L5347.05 39.9902ZM5354.15 36.4717L5354.4 36.4488L5353.12 22.4781L5352.87 22.501L5352.62 22.5239L5353.91 36.4946L5354.15 36.4717ZM5352.87 22.501L5353.12 22.478L5353.02 21.3862L5352.77 21.4092L5352.52 21.4321L5352.62 22.5239L5352.87 22.501ZM5352.77 21.4092V21.6592H5359.97V21.4092V21.1592H5352.77V21.4092ZM5359.97 21.4092L5359.75 21.5163L5360.02 22.0886L5360.24 21.9814L5360.47 21.8743L5360.2 21.302L5359.97 21.4092ZM5353.99 19.1416L5353.83 18.9481L5351.06 21.2215L5351.21 21.415L5351.37 21.6085L5354.15 19.3351L5353.99 19.1416ZM5351.21 21.415L5351.06 21.2217L5350.78 21.4483L5350.94 21.6416L5351.1 21.8349L5351.37 21.6084L5351.21 21.415ZM5350.94 21.6416V21.3916H5345.74V21.6416V21.8916H5350.94V21.6416ZM5345.74 21.6416L5345.91 21.4532L5345.62 21.2071L5345.46 21.3955L5345.3 21.5839L5345.58 21.83L5345.74 21.6416ZM5345.46 21.3955L5345.62 21.207L5343.01 18.9326L5342.85 19.1211L5342.68 19.3096L5345.3 21.584L5345.46 21.3955ZM5342.85 19.1211L5343.01 18.9326L5341 17.1787L5340.83 17.3672L5340.67 17.5557L5342.68 19.3096L5342.85 19.1211ZM5340.83 17.3672V17.6172H5356.16V17.3672V17.1172H5340.83V17.3672ZM5356.16 17.3672L5356 17.1737L5353.83 18.9481L5353.99 19.1416L5354.15 19.3351L5356.32 17.5606L5356.16 17.3672Z" fill="black"/>
<path d="M5220 51.3111L5220.7 22.3778L5229.97 23.6571L5231.68 36.254H5236.31L5237.82 23.6571L5246.89 21L5249 52L5236.31 51.3111L5237.82 39.9937H5231.68L5228.66 51.3111H5220Z" fill="#82A985" stroke="black" stroke-width="0.5"/>
<path d="M5256 51.3111L5256.7 22.3778L5265.97 23.6571L5267.68 36.254H5272.31L5273.82 23.6571L5282.89 21L5285 52L5272.31 51.3111L5273.82 39.9937H5267.68L5264.66 51.3111H5256Z" fill="#82A985" stroke="black" stroke-width="0.5"/>
<path d="M5052 21L5054.04 49.4672L5071.7 51L5082 48.4818L5079.51 35.6715L5075.21 34.6861C5075.21 34.6861 5066.26 40.0995 5061.74 37.7518C5057.21 35.4042 5056.64 26.0365 5056.64 26.0365L5079.51 29.5401V22.7518L5052 21Z" fill="#82A985" stroke="black" stroke-width="0.5"/>
<path d="M5073.91 39.1663C5071.93 38.1543 5065.36 42.0526 5064.06 42.9984C5062.76 43.9443 5061 45.7356 5061 45.7356L5073.23 46.3926C5073.23 46.3926 5077 45.4377 5077.42 43.5459C5077.83 41.6541 5075.88 40.1783 5073.91 39.1663Z" fill="#82A985" stroke="black" stroke-width="0.5"/>
<path d="M5641.72 32H5627V38.1277L5644 40L5641.72 32Z" fill="#82A985" stroke="black" stroke-width="0.5"/>
<path d="M7288.85 22C7288.85 22 7291.31 42.9616 7283.09 44.9056C7281.15 45.3649 7278 44.9056 7278 44.9056L7277 53H7281.08V49.3833L7307.59 50.3306V53H7311V46.5417L7305.65 44.9056L7299.15 22H7288.85Z" fill="#82A985" stroke="black" stroke-width="0.5"/>
<path d="M7292.35 31.4629C7290.91 32.5733 7291 36.199 7291 36.199L7295.02 43.949L7298.97 40.849L7296.56 31.4629C7296.56 31.4629 7293.7 30.4213 7292.35 31.4629Z" fill="#82A985" stroke="black" stroke-width="0.5"/>
<path d="M7137 22L7139.67 50.8275L7162 53L7160.17 46.0647L7146.42 47.2345V40.5499L7151.83 39.4636V35.8706L7145.17 37.7089L7144.25 31.2749H7159.17L7162 24.1725L7137 22Z" fill="#82A985" stroke="black" stroke-width="0.5"/>
<path d="M7169 52V24.21L7177.43 21.7234V29.912L7191.47 19L7197.55 24.21L7179.3 35.1311L7202 42.5727V52L7177.43 44.8043V52H7169Z" fill="#82A985" stroke="black" stroke-width="0.5"/>
<path d="M7244 52.3111L7244.68 23.3778L7253.62 24.6571L7255.28 37.254H7259.75L7261.21 24.6571L7269.96 22L7272 53L7259.75 52.3111L7261.21 40.9937H7255.28L7252.36 52.3111H7244Z" fill="#82A985" stroke="black" stroke-width="0.5"/>
<path d="M7215.33 22.0827L7211.82 29.3258C7211.82 29.3258 7210.62 31.3302 7210.23 32.7943C7209.34 36.1365 7211.29 41.6696 7211.29 41.6696L7213.05 49.4227L7219.2 52.0751C7219.2 52.0751 7225.21 54.1562 7228.26 52.0751C7230.3 50.6833 7232.13 46.6683 7232.13 46.6683L7234.33 39.8333L7236 31.162C7236 31.162 7232.17 24.1569 7228.26 22.0827C7223.67 19.6466 7215.33 22.0827 7215.33 22.0827Z" fill="#82A985" stroke="black" stroke-width="0.5"/>
<path d="M7218 38.1813L7219.85 33.1826L7222.57 29L7227.67 29.6121L7228.29 38.6914L7225.91 44.8123L7219.23 43.5881L7218 38.1813Z" fill="#82A985" stroke="black" stroke-width="0.5"/>
<path d="M7124.81 21L7130.04 29.072L7124.81 32.406L7120.93 29.7739H7115.88L7113.98 39.1619L7122.37 43.8998L7128.96 39.1619L7135 42.9347L7127.69 51.9718C7127.69 51.9718 7110.77 52.8003 7106.31 45.4791C7102.18 38.6942 7109.11 25.4747 7109.11 25.4747L7124.81 21Z" fill="#82A985" stroke="black" stroke-width="0.5"/>
<path d="M7453.85 23C7453.85 23 7456.31 43.2854 7448.09 45.1667C7446.15 45.6112 7443 45.1667 7443 45.1667L7442 53H7446.08V49.5L7472.59 50.4167V53H7476V46.75L7470.65 45.1667L7464.15 23H7453.85Z" fill="#82A985" stroke="black" stroke-width="0.5"/>
<path d="M7457.35 32.448C7455.91 33.5226 7456 37.0313 7456 37.0313L7460.02 44.5313L7463.97 41.5313L7461.56 32.448C7461.56 32.448 7458.7 31.44 7457.35 32.448Z" fill="#82A985" stroke="black" stroke-width="0.5"/>
<path d="M7375 22L7377.67 50.8275L7400 53L7398.17 46.0647L7384.42 47.2345V40.5499L7389.83 39.4636V35.8706L7383.17 37.7089L7382.25 31.2749H7397.17L7400 24.1725L7375 22Z" fill="#82A985" stroke="black" stroke-width="0.5"/>
<path d="M7408 53.2889L7408.7 23.4222L7417.97 24.7429L7419.68 37.746H7424.31L7425.82 24.7429L7434.89 22L7437 54L7424.31 53.2889L7425.82 41.6063H7419.68L7416.66 53.2889H7408Z" fill="#82A985" stroke="black" stroke-width="0.5"/>
<path d="M7343.33 23.3881H7332.68L7344.25 40.199L7330 53H7339.5L7350.3 40.199L7352.45 53L7365.01 51.1493L7356.35 36.9602L7367 22H7360.57L7350.3 31.3308L7343.33 23.3881Z" fill="#82A985" stroke="black" stroke-width="0.5"/>
<path d="M6840 52L6841.75 22.6822L6853.63 21L6864 25.0853L6861.44 31.9341L6857.36 34.6977L6851.65 37.1008H6864V42.0271V52H6840Z" fill="#82A985" stroke="black" stroke-width="0.5"/>
<path d="M6847 31.5659V27H6851.43H6855.5L6853.41 31.5659H6847Z" fill="#82A985"/>
<path d="M6851.43 47.5465L6847 44.062L6850.26 41.6589H6859.35L6861.21 44.062L6851.43 47.5465Z" fill="#82A985"/>
<path d="M6847 31.5659V27H6851.43H6855.5L6853.41 31.5659H6847Z" stroke="black" stroke-width="0.5"/>
<path d="M6851.43 47.5465L6847 44.062L6850.26 41.6589H6859.35L6861.21 44.062L6851.43 47.5465Z" stroke="black" stroke-width="0.5"/>
<path d="M6977 51.8289V25.2378L6983.16 22L6984.38 38.8778L6998.32 39.4289L6998.92 44.1822V50.52L6990.6 53L6977 51.8289Z" fill="#82A985"/>
<path d="M7003.86 51.8289L7002.98 22.6889H7007.45L7013 51.8289H7003.86Z" fill="#82A985"/>
<path d="M6977 51.8289V25.2378L6983.16 22L6984.38 38.8778L6998.32 39.4289L6998.92 44.1822V50.52L6990.6 53L6977 51.8289Z" stroke="black" stroke-width="0.5"/>
<path d="M7003.86 51.8289L7002.98 22.6889H7007.45L7013 51.8289H7003.86Z" stroke="black" stroke-width="0.5"/>
<path d="M6984 48.5467L6985.08 44L6993.81 44.62L6992.8 48.5467H6984Z" fill="#82A985" stroke="black" stroke-width="0.5"/>
<path d="M6871 22L6873.67 50.8275L6896 53L6894.17 46.0647L6880.42 47.2345V40.5499L6885.83 39.4636V35.8706L6879.17 37.7089L6878.25 31.2749H6893.17L6896 24.1725L6871 22Z" fill="#82A985" stroke="black" stroke-width="0.5"/>
<path d="M6791.38 24.2259L6784.85 55.0004L6777.18 50.9239L6779.34 36.659L6768.83 29.3087L6771.71 23.8982L6781.53 32.5365L6785.03 20.8504L6791.38 24.2259Z" fill="#82A985" stroke="black" stroke-width="0.5"/>
<path d="M6797 52V24.21L6805.43 21.7234V29.912L6819.47 19L6825.55 24.21L6807.3 35.1311L6830 42.5727V52L6805.43 44.8043V52H6797Z" fill="#82A985" stroke="black" stroke-width="0.5"/>
<path d="M7044.24 22.9814L7057.97 51.9531L7058.65 53.3809H7045.56L7045.34 52.6924L7042.81 44.9561L7030.94 53.2021L7030.68 53.3809H7022.04L7021.96 52.4658L7019.69 25.7676L7019.6 24.6836H7027.12L7027.3 25.4482L7031.05 40.9902L7038.15 37.4717L7036.87 23.501L7036.77 22.4092H7043.97L7044.24 22.9814ZM7037.99 20.1416L7035.21 22.415L7034.94 22.6416H7029.74L7029.46 22.3955L7026.85 20.1211L7024.83 18.3672H7040.16L7037.99 20.1416Z" fill="#82A985"/>
<path d="M7044.24 22.9814L7044.47 22.8744L7044.47 22.8743L7044.24 22.9814ZM7057.97 51.9531L7057.75 52.0602L7057.75 52.0602L7057.97 51.9531ZM7058.65 53.3809V53.6309H7059.04L7058.87 53.2738L7058.65 53.3809ZM7045.56 53.3809L7045.32 53.4587L7045.38 53.6309H7045.56V53.3809ZM7045.34 52.6924L7045.1 52.7701L7045.1 52.7702L7045.34 52.6924ZM7042.81 44.9561L7043.04 44.8783L7042.94 44.5591L7042.66 44.7508L7042.81 44.9561ZM7030.94 53.2021L7030.8 52.9969L7030.8 52.9969L7030.94 53.2021ZM7030.68 53.3809V53.6309H7030.76L7030.83 53.5861L7030.68 53.3809ZM7022.04 53.3809L7021.79 53.4021L7021.81 53.6309H7022.04V53.3809ZM7021.96 52.4658L7021.71 52.487L7021.71 52.4871L7021.96 52.4658ZM7019.69 25.7676L7019.94 25.7464L7019.94 25.7463L7019.69 25.7676ZM7019.6 24.6836V24.4336H7019.32L7019.35 24.7049L7019.6 24.6836ZM7027.12 24.6836L7027.36 24.6249L7027.31 24.4336H7027.12V24.6836ZM7027.3 25.4482L7027.54 25.3896L7027.54 25.3896L7027.3 25.4482ZM7031.05 40.9902L7030.8 41.0488L7030.88 41.3532L7031.16 41.2143L7031.05 40.9902ZM7038.15 37.4717L7038.27 37.6957L7038.42 37.6196L7038.4 37.4488L7038.15 37.4717ZM7036.87 23.501L7037.12 23.4781L7037.12 23.478L7036.87 23.501ZM7036.77 22.4092V22.1592H7036.5L7036.52 22.4321L7036.77 22.4092ZM7043.97 22.4092L7044.2 22.302L7044.13 22.1592H7043.97V22.4092ZM7037.99 20.1416L7038.15 20.3351L7038.15 20.3351L7037.99 20.1416ZM7035.21 22.415L7035.06 22.2215L7035.06 22.2217L7035.21 22.415ZM7034.94 22.6416V22.8916H7035.03L7035.1 22.8349L7034.94 22.6416ZM7029.74 22.6416L7029.58 22.83L7029.65 22.8916H7029.74V22.6416ZM7029.46 22.3955L7029.62 22.2071L7029.62 22.207L7029.46 22.3955ZM7026.85 20.1211L7026.68 20.3096L7026.68 20.3096L7026.85 20.1211ZM7024.83 18.3672V18.1172H7024.17L7024.67 18.5557L7024.83 18.3672ZM7040.16 18.3672L7040.32 18.5606L7040.86 18.1172H7040.16V18.3672ZM7044.24 22.9814L7044.02 23.0885L7057.75 52.0602L7057.97 51.9531L7058.2 51.8461L7044.47 22.8744L7044.24 22.9814ZM7057.97 51.9531L7057.75 52.0602L7058.42 53.4879L7058.65 53.3809L7058.87 53.2738L7058.2 51.846L7057.97 51.9531ZM7058.65 53.3809V53.1309H7045.56V53.3809V53.6309H7058.65V53.3809ZM7045.56 53.3809L7045.8 53.303L7045.57 52.6145L7045.34 52.6924L7045.1 52.7702L7045.32 53.4587L7045.56 53.3809ZM7045.34 52.6924L7045.57 52.6147L7043.04 44.8783L7042.81 44.9561L7042.57 45.0338L7045.1 52.7701L7045.34 52.6924ZM7042.81 44.9561L7042.66 44.7508L7030.8 52.9969L7030.94 53.2021L7031.08 53.4074L7042.95 45.1614L7042.81 44.9561ZM7030.94 53.2021L7030.8 52.9969L7030.54 53.1756L7030.68 53.3809L7030.83 53.5861L7031.08 53.4074L7030.94 53.2021ZM7030.68 53.3809V53.1309H7022.04V53.3809V53.6309H7030.68V53.3809ZM7022.04 53.3809L7022.29 53.3596L7022.21 52.4446L7021.96 52.4658L7021.71 52.4871L7021.79 53.4021L7022.04 53.3809ZM7021.96 52.4658L7022.21 52.4446L7019.94 25.7464L7019.69 25.7676L7019.44 25.7888L7021.71 52.487L7021.96 52.4658ZM7019.69 25.7676L7019.94 25.7463L7019.84 24.6623L7019.6 24.6836L7019.35 24.7049L7019.44 25.7889L7019.69 25.7676ZM7019.6 24.6836V24.9336H7027.12V24.6836V24.4336H7019.6V24.6836ZM7027.12 24.6836L7026.87 24.7423L7027.06 25.5069L7027.3 25.4482L7027.54 25.3896L7027.36 24.6249L7027.12 24.6836ZM7027.3 25.4482L7027.06 25.5069L7030.8 41.0488L7031.05 40.9902L7031.29 40.9316L7027.54 25.3896L7027.3 25.4482ZM7031.05 40.9902L7031.16 41.2143L7038.27 37.6957L7038.15 37.4717L7038.04 37.2476L7030.94 40.7662L7031.05 40.9902ZM7038.15 37.4717L7038.4 37.4488L7037.12 23.4781L7036.87 23.501L7036.62 23.5239L7037.91 37.4946L7038.15 37.4717ZM7036.87 23.501L7037.12 23.478L7037.02 22.3862L7036.77 22.4092L7036.52 22.4321L7036.62 23.5239L7036.87 23.501ZM7036.77 22.4092V22.6592H7043.97V22.4092V22.1592H7036.77V22.4092ZM7043.97 22.4092L7043.75 22.5163L7044.02 23.0886L7044.24 22.9814L7044.47 22.8743L7044.2 22.302L7043.97 22.4092ZM7037.99 20.1416L7037.83 19.9481L7035.06 22.2215L7035.21 22.415L7035.37 22.6085L7038.15 20.3351L7037.99 20.1416ZM7035.21 22.415L7035.06 22.2217L7034.78 22.4483L7034.94 22.6416L7035.1 22.8349L7035.37 22.6084L7035.21 22.415ZM7034.94 22.6416V22.3916H7029.74V22.6416V22.8916H7034.94V22.6416ZM7029.74 22.6416L7029.91 22.4532L7029.62 22.2071L7029.46 22.3955L7029.3 22.5839L7029.58 22.83L7029.74 22.6416ZM7029.46 22.3955L7029.62 22.207L7027.01 19.9326L7026.85 20.1211L7026.68 20.3096L7029.3 22.584L7029.46 22.3955ZM7026.85 20.1211L7027.01 19.9326L7025 18.1787L7024.83 18.3672L7024.67 18.5557L7026.68 20.3096L7026.85 20.1211ZM7024.83 18.3672V18.6172H7040.16V18.3672V18.1172H7024.83V18.3672ZM7040.16 18.3672L7040 18.1737L7037.83 19.9481L7037.99 20.1416L7038.15 20.3351L7040.32 18.5606L7040.16 18.3672Z" fill="black"/>
<path d="M6904 52.3111L6904.7 23.3778L6913.97 24.6571L6915.68 37.254H6920.31L6921.82 24.6571L6930.89 22L6933 53L6920.31 52.3111L6921.82 40.9937H6915.68L6912.66 52.3111H6904Z" fill="#82A985" stroke="black" stroke-width="0.5"/>
<path d="M6940 52.3111L6940.7 23.3778L6949.97 24.6571L6951.68 37.254H6956.31L6957.82 24.6571L6966.89 22L6969 53L6956.31 52.3111L6957.82 40.9937H6951.68L6948.66 52.3111H6940Z" fill="#82A985" stroke="black" stroke-width="0.5"/>
<path d="M6736 22L6738.04 50.4672L6755.7 52L6766 49.4818L6763.51 36.6715L6759.21 35.6861C6759.21 35.6861 6750.26 41.0995 6745.74 38.7518C6741.21 36.4042 6740.64 27.0365 6740.64 27.0365L6763.51 30.5401V23.7518L6736 22Z" fill="#82A985" stroke="black" stroke-width="0.5"/>
<path d="M6757.91 40.1663C6755.93 39.1543 6749.36 43.0526 6748.06 43.9984C6746.76 44.9443 6745 46.7356 6745 46.7356L6757.23 47.3926C6757.23 47.3926 6761 46.4377 6761.42 44.5459C6761.83 42.6541 6759.88 41.1783 6757.91 40.1663Z" fill="#82A985" stroke="black" stroke-width="0.5"/>
<path d="M7325.72 33H7311V39.1277L7328 41L7325.72 33Z" fill="#82A985" stroke="black" stroke-width="0.5"/>
<path d="M6445.85 23C6445.85 23 6448.31 43.9616 6440.09 45.9056C6438.15 46.3649 6435 45.9056 6435 45.9056L6434 54H6438.08V50.3833L6464.59 51.3306V54H6468V47.5417L6462.65 45.9056L6456.15 23H6445.85Z" fill="#82A985" stroke="black" stroke-width="0.5"/>
<path d="M6449.35 32.4629C6447.91 33.5733 6448 37.199 6448 37.199L6452.02 44.949L6455.97 41.849L6453.56 32.4629C6453.56 32.4629 6450.7 31.4213 6449.35 32.4629Z" fill="#82A985" stroke="black" stroke-width="0.5"/>
<path d="M6294 23L6296.67 51.8275L6319 54L6317.17 47.0647L6303.42 48.2345V41.5499L6308.83 40.4636V36.8706L6302.17 38.7089L6301.25 32.2749H6316.17L6319 25.1725L6294 23Z" fill="#82A985" stroke="black" stroke-width="0.5"/>
<path d="M6326 53V25.21L6334.43 22.7234V30.912L6348.47 20L6354.55 25.21L6336.3 36.1311L6359 43.5727V53L6334.43 45.8043V53H6326Z" fill="#82A985" stroke="black" stroke-width="0.5"/>
<path d="M6401 53.3111L6401.68 24.3778L6410.62 25.6571L6412.28 38.254H6416.75L6418.21 25.6571L6426.96 23L6429 54L6416.75 53.3111L6418.21 41.9937H6412.28L6409.36 53.3111H6401Z" fill="#82A985" stroke="black" stroke-width="0.5"/>
<path d="M6372.33 23.0827L6368.82 30.3258C6368.82 30.3258 6367.62 32.3302 6367.23 33.7943C6366.34 37.1365 6368.29 42.6696 6368.29 42.6696L6370.05 50.4227L6376.2 53.0751C6376.2 53.0751 6382.21 55.1562 6385.26 53.0751C6387.3 51.6833 6389.13 47.6683 6389.13 47.6683L6391.33 40.8333L6393 32.162C6393 32.162 6389.17 25.1569 6385.26 23.0827C6380.67 20.6466 6372.33 23.0827 6372.33 23.0827Z" fill="#82A985" stroke="black" stroke-width="0.5"/>
<path d="M6375 39.1813L6376.85 34.1826L6379.57 30L6384.67 30.6121L6385.29 39.6914L6382.91 45.8123L6376.23 44.5881L6375 39.1813Z" fill="#82A985" stroke="black" stroke-width="0.5"/>
<path d="M6281.81 22L6287.04 30.072L6281.81 33.406L6277.93 30.7739H6272.88L6270.98 40.1619L6279.37 44.8998L6285.96 40.1619L6292 43.9347L6284.69 52.9718C6284.69 52.9718 6267.77 53.8003 6263.31 46.4791C6259.18 39.6942 6266.11 26.4747 6266.11 26.4747L6281.81 22Z" fill="#82A985" stroke="black" stroke-width="0.5"/>
<path d="M6610.85 24C6610.85 24 6613.31 44.2854 6605.09 46.1667C6603.15 46.6112 6600 46.1667 6600 46.1667L6599 54H6603.08V50.5L6629.59 51.4167V54H6633V47.75L6627.65 46.1667L6621.15 24H6610.85Z" fill="#82A985" stroke="black" stroke-width="0.5"/>
<path d="M6614.35 33.448C6612.91 34.5226 6613 38.0313 6613 38.0313L6617.02 45.5313L6620.97 42.5313L6618.56 33.448C6618.56 33.448 6615.7 32.44 6614.35 33.448Z" fill="#82A985" stroke="black" stroke-width="0.5"/>
<path d="M6532 23L6534.67 51.8275L6557 54L6555.17 47.0647L6541.42 48.2345V41.5499L6546.83 40.4636V36.8706L6540.17 38.7089L6539.25 32.2749H6554.17L6557 25.1725L6532 23Z" fill="#82A985" stroke="black" stroke-width="0.5"/>
<path d="M6565 54.2889L6565.7 24.4222L6574.97 25.7429L6576.68 38.746H6581.31L6582.82 25.7429L6591.89 23L6594 55L6581.31 54.2889L6582.82 42.6063H6576.68L6573.66 54.2889H6565Z" fill="#82A985" stroke="black" stroke-width="0.5"/>
<path d="M6500.33 24.3881H6489.68L6501.25 41.199L6487 54H6496.5L6507.3 41.199L6509.45 54L6522.01 52.1493L6513.35 37.9602L6524 23H6517.57L6507.3 32.3308L6500.33 24.3881Z" fill="#82A985" stroke="black" stroke-width="0.5"/>
<path d="M5997 53L5998.75 23.6822L6010.63 22L6021 26.0853L6018.44 32.9341L6014.36 35.6977L6008.65 38.1008H6021V43.0271V53H5997Z" fill="#82A985" stroke="black" stroke-width="0.5"/>
<path d="M6004 32.5659V28H6008.43H6012.5L6010.41 32.5659H6004Z" fill="#82A985"/>
<path d="M6008.43 48.5465L6004 45.062L6007.26 42.6589H6016.35L6018.21 45.062L6008.43 48.5465Z" fill="#82A985"/>
<path d="M6004 32.5659V28H6008.43H6012.5L6010.41 32.5659H6004Z" stroke="black" stroke-width="0.5"/>
<path d="M6008.43 48.5465L6004 45.062L6007.26 42.6589H6016.35L6018.21 45.062L6008.43 48.5465Z" stroke="black" stroke-width="0.5"/>
<path d="M6134 52.8289V26.2378L6140.16 23L6141.38 39.8778L6155.32 40.4289L6155.92 45.1822V51.52L6147.6 54L6134 52.8289Z" fill="#82A985"/>
<path d="M6160.86 52.8289L6159.98 23.6889H6164.45L6170 52.8289H6160.86Z" fill="#82A985"/>
<path d="M6134 52.8289V26.2378L6140.16 23L6141.38 39.8778L6155.32 40.4289L6155.92 45.1822V51.52L6147.6 54L6134 52.8289Z" stroke="black" stroke-width="0.5"/>
<path d="M6160.86 52.8289L6159.98 23.6889H6164.45L6170 52.8289H6160.86Z" stroke="black" stroke-width="0.5"/>
<path d="M6141 49.5467L6142.08 45L6150.81 45.62L6149.8 49.5467H6141Z" fill="#82A985" stroke="black" stroke-width="0.5"/>
<path d="M6028 23L6030.67 51.8275L6053 54L6051.17 47.0647L6037.42 48.2345V41.5499L6042.83 40.4636V36.8706L6036.17 38.7089L6035.25 32.2749H6050.17L6053 25.1725L6028 23Z" fill="#82A985" stroke="black" stroke-width="0.5"/>
<path d="M5948.38 25.2259L5941.85 56.0004L5934.18 51.9239L5936.34 37.659L5925.83 30.3087L5928.71 24.8982L5938.53 33.5365L5942.03 21.8504L5948.38 25.2259Z" fill="#82A985" stroke="black" stroke-width="0.5"/>
<path d="M5954 53V25.21L5962.43 22.7234V30.912L5976.47 20L5982.55 25.21L5964.3 36.1311L5987 43.5727V53L5962.43 45.8043V53H5954Z" fill="#82A985" stroke="black" stroke-width="0.5"/>
<path d="M6201.24 23.9814L6214.97 52.9531L6215.65 54.3809H6202.56L6202.34 53.6924L6199.81 45.9561L6187.94 54.2021L6187.68 54.3809H6179.04L6178.96 53.4658L6176.69 26.7676L6176.6 25.6836H6184.12L6184.3 26.4482L6188.05 41.9902L6195.15 38.4717L6193.87 24.501L6193.77 23.4092H6200.97L6201.24 23.9814ZM6194.99 21.1416L6192.21 23.415L6191.94 23.6416H6186.74L6186.46 23.3955L6183.85 21.1211L6181.83 19.3672H6197.16L6194.99 21.1416Z" fill="#82A985"/>
<path d="M6201.24 23.9814L6201.47 23.8744L6201.47 23.8743L6201.24 23.9814ZM6214.97 52.9531L6214.75 53.0602L6214.75 53.0602L6214.97 52.9531ZM6215.65 54.3809V54.6309H6216.04L6215.87 54.2738L6215.65 54.3809ZM6202.56 54.3809L6202.32 54.4587L6202.38 54.6309H6202.56V54.3809ZM6202.34 53.6924L6202.1 53.7701L6202.1 53.7702L6202.34 53.6924ZM6199.81 45.9561L6200.04 45.8783L6199.94 45.5591L6199.66 45.7508L6199.81 45.9561ZM6187.94 54.2021L6187.8 53.9969L6187.8 53.9969L6187.94 54.2021ZM6187.68 54.3809V54.6309H6187.76L6187.83 54.5861L6187.68 54.3809ZM6179.04 54.3809L6178.79 54.4021L6178.81 54.6309H6179.04V54.3809ZM6178.96 53.4658L6178.71 53.487L6178.71 53.4871L6178.96 53.4658ZM6176.69 26.7676L6176.94 26.7464L6176.94 26.7463L6176.69 26.7676ZM6176.6 25.6836V25.4336H6176.32L6176.35 25.7049L6176.6 25.6836ZM6184.12 25.6836L6184.36 25.6249L6184.31 25.4336H6184.12V25.6836ZM6184.3 26.4482L6184.54 26.3896L6184.54 26.3896L6184.3 26.4482ZM6188.05 41.9902L6187.8 42.0488L6187.88 42.3532L6188.16 42.2143L6188.05 41.9902ZM6195.15 38.4717L6195.27 38.6957L6195.42 38.6196L6195.4 38.4488L6195.15 38.4717ZM6193.87 24.501L6194.12 24.4781L6194.12 24.478L6193.87 24.501ZM6193.77 23.4092V23.1592H6193.5L6193.52 23.4321L6193.77 23.4092ZM6200.97 23.4092L6201.2 23.302L6201.13 23.1592H6200.97V23.4092ZM6194.99 21.1416L6195.15 21.3351L6195.15 21.3351L6194.99 21.1416ZM6192.21 23.415L6192.06 23.2215L6192.06 23.2217L6192.21 23.415ZM6191.94 23.6416V23.8916H6192.03L6192.1 23.8349L6191.94 23.6416ZM6186.74 23.6416L6186.58 23.83L6186.65 23.8916H6186.74V23.6416ZM6186.46 23.3955L6186.62 23.2071L6186.62 23.207L6186.46 23.3955ZM6183.85 21.1211L6183.68 21.3096L6183.68 21.3096L6183.85 21.1211ZM6181.83 19.3672V19.1172H6181.17L6181.67 19.5557L6181.83 19.3672ZM6197.16 19.3672L6197.32 19.5606L6197.86 19.1172H6197.16V19.3672ZM6201.24 23.9814L6201.02 24.0885L6214.75 53.0602L6214.97 52.9531L6215.2 52.8461L6201.47 23.8744L6201.24 23.9814ZM6214.97 52.9531L6214.75 53.0602L6215.42 54.4879L6215.65 54.3809L6215.87 54.2738L6215.2 52.846L6214.97 52.9531ZM6215.65 54.3809V54.1309H6202.56V54.3809V54.6309H6215.65V54.3809ZM6202.56 54.3809L6202.8 54.303L6202.57 53.6145L6202.34 53.6924L6202.1 53.7702L6202.32 54.4587L6202.56 54.3809ZM6202.34 53.6924L6202.57 53.6147L6200.04 45.8783L6199.81 45.9561L6199.57 46.0338L6202.1 53.7701L6202.34 53.6924ZM6199.81 45.9561L6199.66 45.7508L6187.8 53.9969L6187.94 54.2021L6188.08 54.4074L6199.95 46.1614L6199.81 45.9561ZM6187.94 54.2021L6187.8 53.9969L6187.54 54.1756L6187.68 54.3809L6187.83 54.5861L6188.08 54.4074L6187.94 54.2021ZM6187.68 54.3809V54.1309H6179.04V54.3809V54.6309H6187.68V54.3809ZM6179.04 54.3809L6179.29 54.3596L6179.21 53.4446L6178.96 53.4658L6178.71 53.4871L6178.79 54.4021L6179.04 54.3809ZM6178.96 53.4658L6179.21 53.4446L6176.94 26.7464L6176.69 26.7676L6176.44 26.7888L6178.71 53.487L6178.96 53.4658ZM6176.69 26.7676L6176.94 26.7463L6176.84 25.6623L6176.6 25.6836L6176.35 25.7049L6176.44 26.7889L6176.69 26.7676ZM6176.6 25.6836V25.9336H6184.12V25.6836V25.4336H6176.6V25.6836ZM6184.12 25.6836L6183.87 25.7423L6184.06 26.5069L6184.3 26.4482L6184.54 26.3896L6184.36 25.6249L6184.12 25.6836ZM6184.3 26.4482L6184.06 26.5069L6187.8 42.0488L6188.05 41.9902L6188.29 41.9316L6184.54 26.3896L6184.3 26.4482ZM6188.05 41.9902L6188.16 42.2143L6195.27 38.6957L6195.15 38.4717L6195.04 38.2476L6187.94 41.7662L6188.05 41.9902ZM6195.15 38.4717L6195.4 38.4488L6194.12 24.4781L6193.87 24.501L6193.62 24.5239L6194.91 38.4946L6195.15 38.4717ZM6193.87 24.501L6194.12 24.478L6194.02 23.3862L6193.77 23.4092L6193.52 23.4321L6193.62 24.5239L6193.87 24.501ZM6193.77 23.4092V23.6592H6200.97V23.4092V23.1592H6193.77V23.4092ZM6200.97 23.4092L6200.75 23.5163L6201.02 24.0886L6201.24 23.9814L6201.47 23.8743L6201.2 23.302L6200.97 23.4092ZM6194.99 21.1416L6194.83 20.9481L6192.06 23.2215L6192.21 23.415L6192.37 23.6085L6195.15 21.3351L6194.99 21.1416ZM6192.21 23.415L6192.06 23.2217L6191.78 23.4483L6191.94 23.6416L6192.1 23.8349L6192.37 23.6084L6192.21 23.415ZM6191.94 23.6416V23.3916H6186.74V23.6416V23.8916H6191.94V23.6416ZM6186.74 23.6416L6186.91 23.4532L6186.62 23.2071L6186.46 23.3955L6186.3 23.5839L6186.58 23.83L6186.74 23.6416ZM6186.46 23.3955L6186.62 23.207L6184.01 20.9326L6183.85 21.1211L6183.68 21.3096L6186.3 23.584L6186.46 23.3955ZM6183.85 21.1211L6184.01 20.9326L6182 19.1787L6181.83 19.3672L6181.67 19.5557L6183.68 21.3096L6183.85 21.1211ZM6181.83 19.3672V19.6172H6197.16V19.3672V19.1172H6181.83V19.3672ZM6197.16 19.3672L6197 19.1737L6194.83 20.9481L6194.99 21.1416L6195.15 21.3351L6197.32 19.5606L6197.16 19.3672Z" fill="black"/>
<path d="M6061 53.3111L6061.7 24.3778L6070.97 25.6571L6072.68 38.254H6077.31L6078.82 25.6571L6087.89 23L6090 54L6077.31 53.3111L6078.82 41.9937H6072.68L6069.66 53.3111H6061Z" fill="#82A985" stroke="black" stroke-width="0.5"/>
<path d="M6097 53.3111L6097.7 24.3778L6106.97 25.6571L6108.68 38.254H6113.31L6114.82 25.6571L6123.89 23L6126 54L6113.31 53.3111L6114.82 41.9937H6108.68L6105.66 53.3111H6097Z" fill="#82A985" stroke="black" stroke-width="0.5"/>
<path d="M5893 23L5895.04 51.4672L5912.7 53L5923 50.4818L5920.51 37.6715L5916.21 36.6861C5916.21 36.6861 5907.26 42.0995 5902.74 39.7518C5898.21 37.4042 5897.64 28.0365 5897.64 28.0365L5920.51 31.5401V24.7518L5893 23Z" fill="#82A985" stroke="black" stroke-width="0.5"/>
<path d="M5914.91 41.1663C5912.93 40.1543 5906.36 44.0526 5905.06 44.9984C5903.76 45.9443 5902 47.7356 5902 47.7356L5914.23 48.3926C5914.23 48.3926 5918 47.4377 5918.42 45.5459C5918.83 43.6541 5916.88 42.1783 5914.91 41.1663Z" fill="#82A985" stroke="black" stroke-width="0.5"/>
<path d="M6482.72 34H6468V40.1277L6485 42L6482.72 34Z" fill="#82A985" stroke="black" stroke-width="0.5"/>
</svg>
