<svg width="1056" height="265" viewBox="0 0 1056 265" fill="none" xmlns="http://www.w3.org/2000/svg">
<rect width="264" height="265" fill="#FFF7E8"/>
<path d="M67.2903 93.3506L68 120H24L25.4194 93L67.2903 93.3506Z" fill="#82A985"/>
<path d="M67.2903 93.3506L68 120H24L25.4194 93L67.2903 93.3506Z" stroke="black" stroke-width="2"/>
<path d="M67.2903 93.3506L68 120H24L25.4194 93L67.2903 93.3506Z" stroke="black" stroke-opacity="0.2" stroke-width="2"/>
<path d="M28.8745 142.857L26 195H73.0693L70.9134 186.071H109L107.922 115H95.3463L93.1905 122.5V157.143L73.7879 161.429L73.0693 142.857H28.8745Z" fill="#82A985"/>
<path d="M28.8745 142.857L26 195H73.0693L70.9134 186.071H109L107.922 115H95.3463L93.1905 122.5V157.143L73.7879 161.429L73.0693 142.857H28.8745Z" stroke="black" stroke-width="2"/>
<path d="M28.8745 142.857L26 195H73.0693L70.9134 186.071H109L107.922 115H95.3463L93.1905 122.5V157.143L73.7879 161.429L73.0693 142.857H28.8745Z" stroke="black" stroke-opacity="0.2" stroke-width="2"/>
<path d="M115.672 31.2973L110 57.2973H122.761V84H205C205 84 205.022 64.7728 199.328 54.4865C194.007 44.8743 188.096 41.2227 179.123 34.8108C166.398 25.7179 142.257 19 142.257 19L115.672 31.2973Z" fill="#82A985"/>
<path d="M115.672 31.2973L110 57.2973H122.761V84H205C205 84 205.022 64.7728 199.328 54.4865C194.007 44.8743 188.096 41.2227 179.123 34.8108C166.398 25.7179 142.257 19 142.257 19L115.672 31.2973Z" stroke="black" stroke-width="2"/>
<path d="M115.672 31.2973L110 57.2973H122.761V84H205C205 84 205.022 64.7728 199.328 54.4865C194.007 44.8743 188.096 41.2227 179.123 34.8108C166.398 25.7179 142.257 19 142.257 19L115.672 31.2973Z" stroke="black" stroke-opacity="0.2" stroke-width="2"/>
<path d="M173.884 167L171.721 157.803L171 115H255C255 115 253.284 137.679 248.871 151.435C246.877 157.651 242.742 167 242.742 167H173.884Z" fill="#82A985"/>
<path d="M173.884 167L171.721 157.803L171 115H255C255 115 253.284 137.679 248.871 151.435C246.877 157.651 242.742 167 242.742 167H173.884Z" stroke="black" stroke-width="2"/>
<path d="M173.884 167L171.721 157.803L171 115H255C255 115 253.284 137.679 248.871 151.435C246.877 157.651 242.742 167 242.742 167H173.884Z" stroke="black" stroke-opacity="0.2" stroke-width="2"/>
<path d="M176.368 225.768L171 200H239L225.4 234L176.368 225.768Z" fill="#82A985"/>
<path d="M176.368 225.768L171 200H239L225.4 234L176.368 225.768Z" stroke="black" stroke-width="2"/>
<path d="M176.368 225.768L171 200H239L225.4 234L176.368 225.768Z" stroke="black" stroke-opacity="0.2" stroke-width="2"/>
<path d="M136.903 207H90.7742L89 241H144L136.903 207Z" fill="#82A985"/>
<path d="M136.903 207H90.7742L89 241H144L136.903 207Z" stroke="black" stroke-width="2"/>
<path d="M136.903 207H90.7742L89 241H144L136.903 207Z" stroke="black" stroke-opacity="0.2" stroke-width="2"/>
<rect x="264" width="264" height="265" fill="#FFF7E8"/>
<path d="M343.29 95.3506L344 122H300L301.419 95L343.29 95.3506Z" fill="#82A985"/>
<path d="M343.29 95.3506L344 122H300L301.419 95L343.29 95.3506Z" stroke="black" stroke-width="2"/>
<path d="M343.29 95.3506L344 122H300L301.419 95L343.29 95.3506Z" stroke="black" stroke-opacity="0.2" stroke-width="2"/>
<path d="M305.84 142.857L303 195H349.502L347.372 186.071H385L383.935 115H371.511L369.381 122.5V157.143L350.212 161.429L349.502 142.857H305.84Z" fill="#82A985"/>
<path d="M305.84 142.857L303 195H349.502L347.372 186.071H385L383.935 115H371.511L369.381 122.5V157.143L350.212 161.429L349.502 142.857H305.84Z" stroke="black" stroke-width="2"/>
<path d="M305.84 142.857L303 195H349.502L347.372 186.071H385L383.935 115H371.511L369.381 122.5V157.143L350.212 161.429L349.502 142.857H305.84Z" stroke="black" stroke-opacity="0.2" stroke-width="2"/>
<path d="M377.672 52.4865L372 78.8865H384.761V106H467C467 106 467.022 86.477 461.328 76.0324C456.007 66.2723 450.096 62.5646 441.123 56.0541C428.398 46.8212 404.257 40 404.257 40L377.672 52.4865Z" fill="#82A985"/>
<path d="M377.672 52.4865L372 78.8865H384.761V106H467C467 106 467.022 86.477 461.328 76.0324C456.007 66.2723 450.096 62.5646 441.123 56.0541C428.398 46.8212 404.257 40 404.257 40L377.672 52.4865Z" stroke="black" stroke-width="2"/>
<path d="M377.672 52.4865L372 78.8865H384.761V106H467C467 106 467.022 86.477 461.328 76.0324C456.007 66.2723 450.096 62.5646 441.123 56.0541C428.398 46.8212 404.257 40 404.257 40L377.672 52.4865Z" stroke="black" stroke-opacity="0.2" stroke-width="2"/>
<path d="M414.884 173L412.721 163.803L412 121H496C496 121 494.284 143.679 489.871 157.435C487.877 163.651 483.742 173 483.742 173H414.884Z" fill="#82A985"/>
<path d="M414.884 173L412.721 163.803L412 121H496C496 121 494.284 143.679 489.871 157.435C487.877 163.651 483.742 173 483.742 173H414.884Z" stroke="black" stroke-width="2"/>
<path d="M414.884 173L412.721 163.803L412 121H496C496 121 494.284 143.679 489.871 157.435C487.877 163.651 483.742 173 483.742 173H414.884Z" stroke="black" stroke-opacity="0.2" stroke-width="2"/>
<path d="M424.368 213.526L419 187H487L473.4 222L424.368 213.526Z" fill="#82A985"/>
<path d="M424.368 213.526L419 187H487L473.4 222L424.368 213.526Z" stroke="black" stroke-width="2"/>
<path d="M424.368 213.526L419 187H487L473.4 222L424.368 213.526Z" stroke="black" stroke-opacity="0.2" stroke-width="2"/>
<path d="M405.903 195H359.774L358 229H413L405.903 195Z" fill="#82A985"/>
<path d="M405.903 195H359.774L358 229H413L405.903 195Z" stroke="black" stroke-width="2"/>
<path d="M405.903 195H359.774L358 229H413L405.903 195Z" stroke="black" stroke-opacity="0.2" stroke-width="2"/>
<rect x="528" width="264" height="265" fill="#FFF7E8"/>
<path d="M594 70.4V96H635L633.598 64L594 70.4Z" fill="#82A985"/>
<path d="M594 70.4V96H635L633.598 64L594 70.4Z" stroke="black" stroke-width="2"/>
<path d="M594 70.4V96H635L633.598 64L594 70.4Z" stroke="black" stroke-opacity="0.2" stroke-width="2"/>
<path d="M621.274 103.351L622 130H577L578.452 103L621.274 103.351Z" fill="#82A985"/>
<path d="M621.274 103.351L622 130H577L578.452 103L621.274 103.351Z" stroke="black" stroke-width="2"/>
<path d="M621.274 103.351L622 130H577L578.452 103L621.274 103.351Z" stroke="black" stroke-opacity="0.2" stroke-width="2"/>
<path d="M582.874 134.509L580 186H627.069L624.913 177.183H663L661.922 107H649.346L647.19 114.406V148.616L627.788 152.848L627.069 134.509H582.874Z" fill="#82A985"/>
<path d="M582.874 134.509L580 186H627.069L624.913 177.183H663L661.922 107H649.346L647.19 114.406V148.616L627.788 152.848L627.069 134.509H582.874Z" stroke="black" stroke-width="2"/>
<path d="M582.874 134.509L580 186H627.069L624.913 177.183H663L661.922 107H649.346L647.19 114.406V148.616L627.788 152.848L627.069 134.509H582.874Z" stroke="black" stroke-opacity="0.2" stroke-width="2"/>
<path d="M665.731 61.2973L660 87.2973H672.896V114H756C756 114 756.023 94.7728 750.269 84.4865C744.892 74.8743 738.918 71.2227 729.851 64.8108C716.992 55.7179 692.597 49 692.597 49L665.731 61.2973Z" fill="#82A985"/>
<path d="M665.731 61.2973L660 87.2973H672.896V114H756C756 114 756.023 94.7728 750.269 84.4865C744.892 74.8743 738.918 71.2227 729.851 64.8108C716.992 55.7179 692.597 49 692.597 49L665.731 61.2973Z" stroke="black" stroke-width="2"/>
<path d="M665.731 61.2973L660 87.2973H672.896V114H756C756 114 756.023 94.7728 750.269 84.4865C744.892 74.8743 738.918 71.2227 729.851 64.8108C716.992 55.7179 692.597 49 692.597 49L665.731 61.2973Z" stroke="black" stroke-opacity="0.2" stroke-width="2"/>
<path d="M678.884 173L676.721 163.803L676 121H760C760 121 758.284 143.679 753.871 157.435C751.877 163.651 747.742 173 747.742 173H678.884Z" fill="#82A985"/>
<path d="M678.884 173L676.721 163.803L676 121H760C760 121 758.284 143.679 753.871 157.435C751.877 163.651 747.742 173 747.742 173H678.884Z" stroke="black" stroke-width="2"/>
<path d="M678.884 173L676.721 163.803L676 121H760C760 121 758.284 143.679 753.871 157.435C751.877 163.651 747.742 173 747.742 173H678.884Z" stroke="black" stroke-opacity="0.2" stroke-width="2"/>
<path d="M674.368 204.768L669 179H737L723.4 213L674.368 204.768Z" fill="#82A985"/>
<path d="M674.368 204.768L669 179H737L723.4 213L674.368 204.768Z" stroke="black" stroke-width="2"/>
<path d="M674.368 204.768L669 179H737L723.4 213L674.368 204.768Z" stroke="black" stroke-opacity="0.2" stroke-width="2"/>
<path d="M641.903 191H595.774L594 225H649L641.903 191Z" fill="#82A985"/>
<path d="M641.903 191H595.774L594 225H649L641.903 191Z" stroke="black" stroke-width="2"/>
<path d="M641.903 191H595.774L594 225H649L641.903 191Z" stroke="black" stroke-opacity="0.2" stroke-width="2"/>
<rect x="792" width="264" height="265" fill="#FFF7E8"/>
<path d="M849 64.4V90H891L889.564 58L849 64.4Z" fill="#82A985"/>
<path d="M849 64.4V90H891L889.564 58L849 64.4Z" stroke="black" stroke-width="2"/>
<path d="M849 64.4V90H891L889.564 58L849 64.4Z" stroke="black" stroke-opacity="0.2" stroke-width="2"/>
<path d="M890.29 91.3506L891 118H847L848.419 91L890.29 91.3506Z" fill="#82A985"/>
<path d="M890.29 91.3506L891 118H847L848.419 91L890.29 91.3506Z" stroke="black" stroke-width="2"/>
<path d="M890.29 91.3506L891 118H847L848.419 91L890.29 91.3506Z" stroke="black" stroke-opacity="0.2" stroke-width="2"/>
<path d="M846.874 118.857L844 171H891.069L888.913 162.071H927L925.922 91H913.346L911.19 98.5V133.143L891.788 137.429L891.069 118.857H846.874Z" fill="#82A985"/>
<path d="M846.874 118.857L844 171H891.069L888.913 162.071H927L925.922 91H913.346L911.19 98.5V133.143L891.788 137.429L891.069 118.857H846.874Z" stroke="black" stroke-width="2"/>
<path d="M846.874 118.857L844 171H891.069L888.913 162.071H927L925.922 91H913.346L911.19 98.5V133.143L891.788 137.429L891.069 118.857H846.874Z" stroke="black" stroke-opacity="0.2" stroke-width="2"/>
<path d="M919.672 64.4865L914 90.8865H926.761V118H1009C1009 118 1009.02 98.477 1003.33 88.0324C998.007 78.2723 992.096 74.5646 983.123 68.0541C970.398 58.8212 946.257 52 946.257 52L919.672 64.4865Z" fill="#82A985"/>
<path d="M919.672 64.4865L914 90.8865H926.761V118H1009C1009 118 1009.02 98.477 1003.33 88.0324C998.007 78.2723 992.096 74.5646 983.123 68.0541C970.398 58.8212 946.257 52 946.257 52L919.672 64.4865Z" stroke="black" stroke-width="2"/>
<path d="M919.672 64.4865L914 90.8865H926.761V118H1009C1009 118 1009.02 98.477 1003.33 88.0324C998.007 78.2723 992.096 74.5646 983.123 68.0541C970.398 58.8212 946.257 52 946.257 52L919.672 64.4865Z" stroke="black" stroke-opacity="0.2" stroke-width="2"/>
<path d="M929.815 170L927.704 160.803L927 118H1009C1009 118 1007.33 140.679 1003.02 154.435C1001.07 160.651 997.034 170 997.034 170H929.815Z" fill="#82A985"/>
<path d="M929.815 170L927.704 160.803L927 118H1009C1009 118 1007.33 140.679 1003.02 154.435C1001.07 160.651 997.034 170 997.034 170H929.815Z" stroke="black" stroke-width="2"/>
<path d="M929.815 170L927.704 160.803L927 118H1009C1009 118 1007.33 140.679 1003.02 154.435C1001.07 160.651 997.034 170 997.034 170H929.815Z" stroke="black" stroke-opacity="0.2" stroke-width="2"/>
<path d="M934.368 196.768L929 171H997L983.4 205L934.368 196.768Z" fill="#82A985"/>
<path d="M934.368 196.768L929 171H997L983.4 205L934.368 196.768Z" stroke="black" stroke-width="2"/>
<path d="M934.368 196.768L929 171H997L983.4 205L934.368 196.768Z" stroke="black" stroke-opacity="0.2" stroke-width="2"/>
<path d="M890.903 172H844.774L843 205H898L890.903 172Z" fill="#82A985"/>
<path d="M890.903 172H844.774L843 205H898L890.903 172Z" stroke="black" stroke-width="2"/>
<path d="M890.903 172H844.774L843 205H898L890.903 172Z" stroke="black" stroke-opacity="0.2" stroke-width="2"/>
</svg>
