<svg width="2125" height="534" viewBox="0 0 2125 534" fill="none" xmlns="http://www.w3.org/2000/svg">
<rect width="531" height="534" fill="#FFF7E8"/>
<path d="M134.565 187.714L136 242H47L49.871 187L134.565 187.714Z" fill="#82A985"/>
<path d="M134.565 187.714L136 242H47L49.871 187L134.565 187.714Z" stroke="black" stroke-width="2"/>
<path d="M134.565 187.714L136 242H47L49.871 187L134.565 187.714Z" stroke="black" stroke-opacity="0.2" stroke-width="2"/>
<path d="M58.7489 287.062L53 392H147.139L142.827 374.031H219L216.844 231H191.693L187.381 246.094V315.812L148.576 324.438L147.139 287.062H58.7489Z" fill="#82A985"/>
<path d="M58.7489 287.062L53 392H147.139L142.827 374.031H219L216.844 231H191.693L187.381 246.094V315.812L148.576 324.438L147.139 287.062H58.7489Z" stroke="black" stroke-width="2"/>
<path d="M58.7489 287.062L53 392H147.139L142.827 374.031H219L216.844 231H191.693L187.381 246.094V315.812L148.576 324.438L147.139 287.062H58.7489Z" stroke="black" stroke-opacity="0.2" stroke-width="2"/>
<path d="M232.463 62.1622L221 115.362H246.791V170H413C413 170 413.045 130.658 401.537 109.611C390.783 89.9427 378.836 82.471 360.701 69.3514C334.984 50.7459 286.194 37 286.194 37L232.463 62.1622Z" fill="#82A985"/>
<path d="M232.463 62.1622L221 115.362H246.791V170H413C413 170 413.045 130.658 401.537 109.611C390.783 89.9427 378.836 82.471 360.701 69.3514C334.984 50.7459 286.194 37 286.194 37L232.463 62.1622Z" stroke="black" stroke-width="2"/>
<path d="M232.463 62.1622L221 115.362H246.791V170H413C413 170 413.045 130.658 401.537 109.611C390.783 89.9427 378.836 82.471 360.701 69.3514C334.984 50.7459 286.194 37 286.194 37L232.463 62.1622Z" stroke="black" stroke-opacity="0.2" stroke-width="2"/>
<path d="M350.734 337L346.433 318.252L345 231H512C512 231 508.589 277.231 499.815 305.272C495.851 317.942 487.631 337 487.631 337H350.734Z" fill="#82A985"/>
<path d="M350.734 337L346.433 318.252L345 231H512C512 231 508.589 277.231 499.815 305.272C495.851 317.942 487.631 337 487.631 337H350.734Z" stroke="black" stroke-width="2"/>
<path d="M350.734 337L346.433 318.252L345 231H512C512 231 508.589 277.231 499.815 305.272C495.851 317.942 487.631 337 487.631 337H350.734Z" stroke="black" stroke-opacity="0.2" stroke-width="2"/>
<path d="M355.737 453.537L345 402H481L453.8 470L355.737 453.537Z" fill="#82A985"/>
<path d="M355.737 453.537L345 402H481L453.8 470L355.737 453.537Z" stroke="black" stroke-width="2"/>
<path d="M355.737 453.537L345 402H481L453.8 470L355.737 453.537Z" stroke="black" stroke-opacity="0.2" stroke-width="2"/>
<path d="M274.677 416H181.581L178 484H289L274.677 416Z" fill="#82A985"/>
<path d="M274.677 416H181.581L178 484H289L274.677 416Z" stroke="black" stroke-width="2"/>
<path d="M274.677 416H181.581L178 484H289L274.677 416Z" stroke="black" stroke-opacity="0.2" stroke-width="2"/>
<rect x="531" width="531" height="534" fill="#FFF7E8"/>
<path d="M690.565 191.714L692 246H603L605.871 191L690.565 191.714Z" fill="#82A985"/>
<path d="M690.565 191.714L692 246H603L605.871 191L690.565 191.714Z" stroke="black" stroke-width="2"/>
<path d="M690.565 191.714L692 246H603L605.871 191L690.565 191.714Z" stroke="black" stroke-opacity="0.2" stroke-width="2"/>
<path d="M614.714 287.062L609 392H702.571L698.286 374.031H774L771.857 231H746.857L742.571 246.094V315.812L704 324.438L702.571 287.062H614.714Z" fill="#82A985"/>
<path d="M614.714 287.062L609 392H702.571L698.286 374.031H774L771.857 231H746.857L742.571 246.094V315.812L704 324.438L702.571 287.062H614.714Z" stroke="black" stroke-width="2"/>
<path d="M614.714 287.062L609 392H702.571L698.286 374.031H774L771.857 231H746.857L742.571 246.094V315.812L704 324.438L702.571 287.062H614.714Z" stroke="black" stroke-opacity="0.2" stroke-width="2"/>
<path d="M759.463 105.162L748 158.362H773.791V213H940C940 213 940.045 173.658 928.537 152.611C917.783 132.943 905.836 125.471 887.701 112.351C861.984 93.7459 813.194 80 813.194 80L759.463 105.162Z" fill="#82A985"/>
<path d="M759.463 105.162L748 158.362H773.791V213H940C940 213 940.045 173.658 928.537 152.611C917.783 132.943 905.836 125.471 887.701 112.351C861.984 93.7459 813.194 80 813.194 80L759.463 105.162Z" stroke="black" stroke-width="2"/>
<path d="M759.463 105.162L748 158.362H773.791V213H940C940 213 940.045 173.658 928.537 152.611C917.783 132.943 905.836 125.471 887.701 112.351C861.984 93.7459 813.194 80 813.194 80L759.463 105.162Z" stroke="black" stroke-opacity="0.2" stroke-width="2"/>
<path d="M835.734 348L831.433 329.429L830 243H997C997 243 993.589 288.795 984.815 316.571C980.851 329.122 972.631 348 972.631 348H835.734Z" fill="#82A985"/>
<path d="M835.734 348L831.433 329.429L830 243H997C997 243 993.589 288.795 984.815 316.571C980.851 329.122 972.631 348 972.631 348H835.734Z" stroke="black" stroke-width="2"/>
<path d="M835.734 348L831.433 329.429L830 243H997C997 243 993.589 288.795 984.815 316.571C980.851 329.122 972.631 348 972.631 348H835.734Z" stroke="black" stroke-opacity="0.2" stroke-width="2"/>
<path d="M854.737 429.537L844 378H980L952.8 446L854.737 429.537Z" fill="#82A985"/>
<path d="M854.737 429.537L844 378H980L952.8 446L854.737 429.537Z" stroke="black" stroke-width="2"/>
<path d="M854.737 429.537L844 378H980L952.8 446L854.737 429.537Z" stroke="black" stroke-opacity="0.2" stroke-width="2"/>
<path d="M815.677 392H722.581L719 460H830L815.677 392Z" fill="#82A985"/>
<path d="M815.677 392H722.581L719 460H830L815.677 392Z" stroke="black" stroke-width="2"/>
<path d="M815.677 392H722.581L719 460H830L815.677 392Z" stroke="black" stroke-opacity="0.2" stroke-width="2"/>
<rect x="1062" width="531" height="534" fill="#FFF7E8"/>
<path d="M1194 140.8V192H1278L1275.13 128L1194 140.8Z" fill="#82A985"/>
<path d="M1194 140.8V192H1278L1275.13 128L1194 140.8Z" stroke="black" stroke-width="2"/>
<path d="M1194 140.8V192H1278L1275.13 128L1194 140.8Z" stroke="black" stroke-opacity="0.2" stroke-width="2"/>
<path d="M1248.56 207.714L1250 262H1161L1163.87 207L1248.56 207.714Z" fill="#82A985"/>
<path d="M1248.56 207.714L1250 262H1161L1163.87 207L1248.56 207.714Z" stroke="black" stroke-width="2"/>
<path d="M1248.56 207.714L1250 262H1161L1163.87 207L1248.56 207.714Z" stroke="black" stroke-opacity="0.2" stroke-width="2"/>
<path d="M1172.75 270.062L1167 375H1261.14L1256.83 357.031H1333L1330.84 214H1305.69L1301.38 229.094V298.812L1262.58 307.438L1261.14 270.062H1172.75Z" fill="#82A985"/>
<path d="M1172.75 270.062L1167 375H1261.14L1256.83 357.031H1333L1330.84 214H1305.69L1301.38 229.094V298.812L1262.58 307.438L1261.14 270.062H1172.75Z" stroke="black" stroke-width="2"/>
<path d="M1172.75 270.062L1167 375H1261.14L1256.83 357.031H1333L1330.84 214H1305.69L1301.38 229.094V298.812L1262.58 307.438L1261.14 270.062H1172.75Z" stroke="black" stroke-opacity="0.2" stroke-width="2"/>
<path d="M1339.46 122.973L1328 175.773H1353.79V230H1520C1520 230 1520.05 190.954 1508.54 170.065C1497.78 150.545 1485.84 143.129 1467.7 130.108C1441.98 111.642 1393.19 98 1393.19 98L1339.46 122.973Z" fill="#82A985"/>
<path d="M1339.46 122.973L1328 175.773H1353.79V230H1520C1520 230 1520.05 190.954 1508.54 170.065C1497.78 150.545 1485.84 143.129 1467.7 130.108C1441.98 111.642 1393.19 98 1393.19 98L1339.46 122.973Z" stroke="black" stroke-width="2"/>
<path d="M1339.46 122.973L1328 175.773H1353.79V230H1520C1520 230 1520.05 190.954 1508.54 170.065C1497.78 150.545 1485.84 143.129 1467.7 130.108C1441.98 111.642 1393.19 98 1393.19 98L1339.46 122.973Z" stroke="black" stroke-opacity="0.2" stroke-width="2"/>
<path d="M1366.73 348L1362.43 329.429L1361 243H1528C1528 243 1524.59 288.795 1515.82 316.571C1511.85 329.122 1503.63 348 1503.63 348H1366.73Z" fill="#82A985"/>
<path d="M1366.73 348L1362.43 329.429L1361 243H1528C1528 243 1524.59 288.795 1515.82 316.571C1511.85 329.122 1503.63 348 1503.63 348H1366.73Z" stroke="black" stroke-width="2"/>
<path d="M1366.73 348L1362.43 329.429L1361 243H1528C1528 243 1524.59 288.795 1515.82 316.571C1511.85 329.122 1503.63 348 1503.63 348H1366.73Z" stroke="black" stroke-opacity="0.2" stroke-width="2"/>
<path d="M1356.82 411.537L1346 360H1483L1455.6 428L1356.82 411.537Z" fill="#82A985"/>
<path d="M1356.82 411.537L1346 360H1483L1455.6 428L1356.82 411.537Z" stroke="black" stroke-width="2"/>
<path d="M1356.82 411.537L1346 360H1483L1455.6 428L1356.82 411.537Z" stroke="black" stroke-opacity="0.2" stroke-width="2"/>
<path d="M1291.55 385H1197.61L1194 453H1306L1291.55 385Z" fill="#82A985"/>
<path d="M1291.55 385H1197.61L1194 453H1306L1291.55 385Z" stroke="black" stroke-width="2"/>
<path d="M1291.55 385H1197.61L1194 453H1306L1291.55 385Z" stroke="black" stroke-opacity="0.2" stroke-width="2"/>
<rect x="1593" width="532" height="534" fill="#FFF7E8"/>
<path d="M1708 130V182H1791L1788.16 117L1708 130Z" fill="#82A985"/>
<path d="M1708 130V182H1791L1788.16 117L1708 130Z" stroke="black" stroke-width="2"/>
<path d="M1708 130V182H1791L1788.16 117L1708 130Z" stroke="black" stroke-opacity="0.2" stroke-width="2"/>
<path d="M1791.56 182.727L1793 238H1704L1706.87 182L1791.56 182.727Z" fill="#82A985"/>
<path d="M1791.56 182.727L1793 238H1704L1706.87 182L1791.56 182.727Z" stroke="black" stroke-width="2"/>
<path d="M1791.56 182.727L1793 238H1704L1706.87 182L1791.56 182.727Z" stroke="black" stroke-opacity="0.2" stroke-width="2"/>
<path d="M1704.75 239.062L1699 344H1793.14L1788.83 326.031H1865L1862.84 183H1837.69L1833.38 198.094V267.812L1794.58 276.438L1793.14 239.062H1704.75Z" fill="#82A985"/>
<path d="M1704.75 239.062L1699 344H1793.14L1788.83 326.031H1865L1862.84 183H1837.69L1833.38 198.094V267.812L1794.58 276.438L1793.14 239.062H1704.75Z" stroke="black" stroke-width="2"/>
<path d="M1704.75 239.062L1699 344H1793.14L1788.83 326.031H1865L1862.84 183H1837.69L1833.38 198.094V267.812L1794.58 276.438L1793.14 239.062H1704.75Z" stroke="black" stroke-opacity="0.2" stroke-width="2"/>
<path d="M1848.52 130.162L1837 183.362H1862.93V238H2030C2030 238 2030.05 198.658 2018.48 177.611C2007.67 157.943 1995.66 150.471 1977.43 137.351C1951.58 118.746 1902.53 105 1902.53 105L1848.52 130.162Z" fill="#82A985"/>
<path d="M1848.52 130.162L1837 183.362H1862.93V238H2030C2030 238 2030.05 198.658 2018.48 177.611C2007.67 157.943 1995.66 150.471 1977.43 137.351C1951.58 118.746 1902.53 105 1902.53 105L1848.52 130.162Z" stroke="black" stroke-width="2"/>
<path d="M1848.52 130.162L1837 183.362H1862.93V238H2030C2030 238 2030.05 198.658 2018.48 177.611C2007.67 157.943 1995.66 150.471 1977.43 137.351C1951.58 118.746 1902.53 105 1902.53 105L1848.52 130.162Z" stroke="black" stroke-opacity="0.2" stroke-width="2"/>
<path d="M1868.73 343L1864.43 324.429L1863 238H2030C2030 238 2026.59 283.795 2017.82 311.571C2013.85 324.122 2005.63 343 2005.63 343H1868.73Z" fill="#82A985"/>
<path d="M1868.73 343L1864.43 324.429L1863 238H2030C2030 238 2026.59 283.795 2017.82 311.571C2013.85 324.122 2005.63 343 2005.63 343H1868.73Z" stroke="black" stroke-width="2"/>
<path d="M1868.73 343L1864.43 324.429L1863 238H2030C2030 238 2026.59 283.795 2017.82 311.571C2013.85 324.122 2005.63 343 2005.63 343H1868.73Z" stroke="black" stroke-opacity="0.2" stroke-width="2"/>
<path d="M1880.74 395.537L1870 344H2006L1978.8 412L1880.74 395.537Z" fill="#82A985"/>
<path d="M1880.74 395.537L1870 344H2006L1978.8 412L1880.74 395.537Z" stroke="black" stroke-width="2"/>
<path d="M1880.74 395.537L1870 344H2006L1978.8 412L1880.74 395.537Z" stroke="black" stroke-opacity="0.2" stroke-width="2"/>
<path d="M1792.55 345H1698.61L1695 413H1807L1792.55 345Z" fill="#82A985"/>
<path d="M1792.55 345H1698.61L1695 413H1807L1792.55 345Z" stroke="black" stroke-width="2"/>
<path d="M1792.55 345H1698.61L1695 413H1807L1792.55 345Z" stroke="black" stroke-opacity="0.2" stroke-width="2"/>
</svg>
