<svg width="1476" height="371" viewBox="0 0 1476 371" fill="none" xmlns="http://www.w3.org/2000/svg">
<rect width="369" height="371" fill="#FFF7E8"/>
<path d="M94 130.494L95 168H33L35 130L94 130.494Z" fill="#82A985"/>
<path d="M94 130.494L95 168H33L35 130L94 130.494Z" stroke="black" stroke-width="2"/>
<path d="M94 130.494L95 168H33L35 130L94 130.494Z" stroke="black" stroke-opacity="0.2" stroke-width="2"/>
<path d="M40.9827 199.652L37 272H102.216L99.2294 259.612H152L150.506 161H133.082L130.095 171.406V219.473L103.212 225.42L102.216 199.652H40.9827Z" fill="#82A985"/>
<path d="M40.9827 199.652L37 272H102.216L99.2294 259.612H152L150.506 161H133.082L130.095 171.406V219.473L103.212 225.42L102.216 199.652H40.9827Z" stroke="black" stroke-width="2"/>
<path d="M40.9827 199.652L37 272H102.216L99.2294 259.612H152L150.506 161H133.082L130.095 171.406V219.473L103.212 225.42L102.216 199.652H40.9827Z" stroke="black" stroke-opacity="0.2" stroke-width="2"/>
<path d="M161.94 43.4054L154 80.2054H171.866V118H287C287 118 287.031 90.7862 279.06 76.227C271.61 62.622 263.334 57.4536 250.772 48.3784C232.958 35.5084 199.16 26 199.16 26L161.94 43.4054Z" fill="#82A985"/>
<path d="M161.94 43.4054L154 80.2054H171.866V118H287C287 118 287.031 90.7862 279.06 76.227C271.61 62.622 263.334 57.4536 250.772 48.3784C232.958 35.5084 199.16 26 199.16 26L161.94 43.4054Z" stroke="black" stroke-width="2"/>
<path d="M161.94 43.4054L154 80.2054H171.866V118H287C287 118 287.031 90.7862 279.06 76.227C271.61 62.622 263.334 57.4536 250.772 48.3784C232.958 35.5084 199.16 26 199.16 26L161.94 43.4054Z" stroke="black" stroke-opacity="0.2" stroke-width="2"/>
<path d="M243.017 234L240.004 221.088L239 161H356C356 161 353.61 192.838 347.464 212.15C344.686 220.875 338.927 234 338.927 234H243.017Z" fill="#82A985"/>
<path d="M243.017 234L240.004 221.088L239 161H356C356 161 353.61 192.838 347.464 212.15C344.686 220.875 338.927 234 338.927 234H243.017Z" stroke="black" stroke-width="2"/>
<path d="M243.017 234L240.004 221.088L239 161H356C356 161 353.61 192.838 347.464 212.15C344.686 220.875 338.927 234 338.927 234H243.017Z" stroke="black" stroke-opacity="0.2" stroke-width="2"/>
<path d="M246.5 315.379L239 279H334L315 327L246.5 315.379Z" fill="#82A985"/>
<path d="M246.5 315.379L239 279H334L315 327L246.5 315.379Z" stroke="black" stroke-width="2"/>
<path d="M246.5 315.379L239 279H334L315 327L246.5 315.379Z" stroke="black" stroke-opacity="0.2" stroke-width="2"/>
<path d="M191.065 289H126.484L124 337H201L191.065 289Z" fill="#82A985"/>
<path d="M191.065 289H126.484L124 337H201L191.065 289Z" stroke="black" stroke-width="2"/>
<path d="M191.065 289H126.484L124 337H201L191.065 289Z" stroke="black" stroke-opacity="0.2" stroke-width="2"/>
<rect x="369" width="369" height="371" fill="#FFF7E8"/>
<path d="M480 133.494L481 171H419L421 133L480 133.494Z" fill="#82A985"/>
<path d="M480 133.494L481 171H419L421 133L480 133.494Z" stroke="black" stroke-width="2"/>
<path d="M480 133.494L481 171H419L421 133L480 133.494Z" stroke="black" stroke-opacity="0.2" stroke-width="2"/>
<path d="M426.983 199.652L423 272H488.216L485.229 259.612H538L536.506 161H519.082L516.095 171.406V219.473L489.212 225.42L488.216 199.652H426.983Z" fill="#82A985"/>
<path d="M426.983 199.652L423 272H488.216L485.229 259.612H538L536.506 161H519.082L516.095 171.406V219.473L489.212 225.42L488.216 199.652H426.983Z" stroke="black" stroke-width="2"/>
<path d="M426.983 199.652L423 272H488.216L485.229 259.612H538L536.506 161H519.082L516.095 171.406V219.473L489.212 225.42L488.216 199.652H426.983Z" stroke="black" stroke-opacity="0.2" stroke-width="2"/>
<path d="M527.94 73.4054L520 110.205H537.866V148H653C653 148 653.031 120.786 645.06 106.227C637.61 92.622 629.334 87.4536 616.772 78.3784C598.958 65.5084 565.16 56 565.16 56L527.94 73.4054Z" fill="#82A985"/>
<path d="M527.94 73.4054L520 110.205H537.866V148H653C653 148 653.031 120.786 645.06 106.227C637.61 92.622 629.334 87.4536 616.772 78.3784C598.958 65.5084 565.16 56 565.16 56L527.94 73.4054Z" stroke="black" stroke-width="2"/>
<path d="M527.94 73.4054L520 110.205H537.866V148H653C653 148 653.031 120.786 645.06 106.227C637.61 92.622 629.334 87.4536 616.772 78.3784C598.958 65.5084 565.16 56 565.16 56L527.94 73.4054Z" stroke="black" stroke-opacity="0.2" stroke-width="2"/>
<path d="M580.017 242L577.004 229.088L576 169H693C693 169 690.61 200.838 684.464 220.15C681.686 228.875 675.927 242 675.927 242H580.017Z" fill="#82A985"/>
<path d="M580.017 242L577.004 229.088L576 169H693C693 169 690.61 200.838 684.464 220.15C681.686 228.875 675.927 242 675.927 242H580.017Z" stroke="black" stroke-width="2"/>
<path d="M580.017 242L577.004 229.088L576 169H693C693 169 690.61 200.838 684.464 220.15C681.686 228.875 675.927 242 675.927 242H580.017Z" stroke="black" stroke-opacity="0.2" stroke-width="2"/>
<path d="M593.5 298.379L586 262H681L662 310L593.5 298.379Z" fill="#82A985"/>
<path d="M593.5 298.379L586 262H681L662 310L593.5 298.379Z" stroke="black" stroke-width="2"/>
<path d="M593.5 298.379L586 262H681L662 310L593.5 298.379Z" stroke="black" stroke-opacity="0.2" stroke-width="2"/>
<path d="M567.065 272H502.484L500 320H577L567.065 272Z" fill="#82A985"/>
<path d="M567.065 272H502.484L500 320H577L567.065 272Z" stroke="black" stroke-width="2"/>
<path d="M567.065 272H502.484L500 320H577L567.065 272Z" stroke="black" stroke-opacity="0.2" stroke-width="2"/>
<rect x="738" width="369" height="371" fill="#FFF7E8"/>
<path d="M830 98V134H888L886.017 89L830 98Z" fill="#82A985"/>
<path d="M830 98V134H888L886.017 89L830 98Z" stroke="black" stroke-width="2"/>
<path d="M830 98V134H888L886.017 89L830 98Z" stroke="black" stroke-opacity="0.2" stroke-width="2"/>
<path d="M868 144.494L869 182H807L809 144L868 144.494Z" fill="#82A985"/>
<path d="M868 144.494L869 182H807L809 144L868 144.494Z" stroke="black" stroke-width="2"/>
<path d="M868 144.494L869 182H807L809 144L868 144.494Z" stroke="black" stroke-opacity="0.2" stroke-width="2"/>
<path d="M814.983 187.652L811 260H876.216L873.229 247.612H926L924.506 149H907.082L904.095 159.406V207.473L877.212 213.42L876.216 187.652H814.983Z" fill="#82A985"/>
<path d="M814.983 187.652L811 260H876.216L873.229 247.612H926L924.506 149H907.082L904.095 159.406V207.473L877.212 213.42L876.216 187.652H814.983Z" stroke="black" stroke-width="2"/>
<path d="M814.983 187.652L811 260H876.216L873.229 247.612H926L924.506 149H907.082L904.095 159.406V207.473L877.212 213.42L876.216 187.652H814.983Z" stroke="black" stroke-opacity="0.2" stroke-width="2"/>
<path d="M930.94 85.4054L923 122.205H940.866V160H1056C1056 160 1056.03 132.786 1048.06 118.227C1040.61 104.622 1032.33 99.4536 1019.77 90.3784C1001.96 77.5084 968.16 68 968.16 68L930.94 85.4054Z" fill="#82A985"/>
<path d="M930.94 85.4054L923 122.205H940.866V160H1056C1056 160 1056.03 132.786 1048.06 118.227C1040.61 104.622 1032.33 99.4536 1019.77 90.3784C1001.96 77.5084 968.16 68 968.16 68L930.94 85.4054Z" stroke="black" stroke-width="2"/>
<path d="M930.94 85.4054L923 122.205H940.866V160H1056C1056 160 1056.03 132.786 1048.06 118.227C1040.61 104.622 1032.33 99.4536 1019.77 90.3784C1001.96 77.5084 968.16 68 968.16 68L930.94 85.4054Z" stroke="black" stroke-opacity="0.2" stroke-width="2"/>
<path d="M949.017 242L946.004 229.088L945 169H1062C1062 169 1059.61 200.838 1053.46 220.15C1050.69 228.875 1044.93 242 1044.93 242H949.017Z" fill="#82A985"/>
<path d="M949.017 242L946.004 229.088L945 169H1062C1062 169 1059.61 200.838 1053.46 220.15C1050.69 228.875 1044.93 242 1044.93 242H949.017Z" stroke="black" stroke-width="2"/>
<path d="M949.017 242L946.004 229.088L945 169H1062C1062 169 1059.61 200.838 1053.46 220.15C1050.69 228.875 1044.93 242 1044.93 242H949.017Z" stroke="black" stroke-opacity="0.2" stroke-width="2"/>
<path d="M942.5 286.379L935 250H1030L1011 298L942.5 286.379Z" fill="#82A985"/>
<path d="M942.5 286.379L935 250H1030L1011 298L942.5 286.379Z" stroke="black" stroke-width="2"/>
<path d="M942.5 286.379L935 250H1030L1011 298L942.5 286.379Z" stroke="black" stroke-opacity="0.2" stroke-width="2"/>
<path d="M897.065 267H832.484L830 315H907L897.065 267Z" fill="#82A985"/>
<path d="M897.065 267H832.484L830 315H907L897.065 267Z" stroke="black" stroke-width="2"/>
<path d="M897.065 267H832.484L830 315H907L897.065 267Z" stroke="black" stroke-opacity="0.2" stroke-width="2"/>
<rect x="1107" width="369" height="371" fill="#FFF7E8"/>
<path d="M1186 90V126H1245L1242.98 81L1186 90Z" fill="#82A985"/>
<path d="M1186 90V126H1245L1242.98 81L1186 90Z" stroke="black" stroke-width="2"/>
<path d="M1186 90V126H1245L1242.98 81L1186 90Z" stroke="black" stroke-opacity="0.2" stroke-width="2"/>
<path d="M1245 127.494L1246 165H1184L1186 127L1245 127.494Z" fill="#82A985"/>
<path d="M1245 127.494L1246 165H1184L1186 127L1245 127.494Z" stroke="black" stroke-width="2"/>
<path d="M1245 127.494L1246 165H1184L1186 127L1245 127.494Z" stroke="black" stroke-opacity="0.2" stroke-width="2"/>
<path d="M1184.02 166L1180 239H1245.78L1242.77 226.5H1296L1294.49 127H1276.92L1273.9 137.5V186L1246.79 192L1245.78 166H1184.02Z" fill="#82A985"/>
<path d="M1184.02 166L1180 239H1245.78L1242.77 226.5H1296L1294.49 127H1276.92L1273.9 137.5V186L1246.79 192L1245.78 166H1184.02Z" stroke="black" stroke-width="2"/>
<path d="M1184.02 166L1180 239H1245.78L1242.77 226.5H1296L1294.49 127H1276.92L1273.9 137.5V186L1246.79 192L1245.78 166H1184.02Z" stroke="black" stroke-opacity="0.2" stroke-width="2"/>
<path d="M1284.94 90.4054L1277 127.205H1294.87V165H1410C1410 165 1410.03 137.786 1402.06 123.227C1394.61 109.622 1386.33 104.454 1373.77 95.3784C1355.96 82.5084 1322.16 73 1322.16 73L1284.94 90.4054Z" fill="#82A985"/>
<path d="M1284.94 90.4054L1277 127.205H1294.87V165H1410C1410 165 1410.03 137.786 1402.06 123.227C1394.61 109.622 1386.33 104.454 1373.77 95.3784C1355.96 82.5084 1322.16 73 1322.16 73L1284.94 90.4054Z" stroke="black" stroke-width="2"/>
<path d="M1284.94 90.4054L1277 127.205H1294.87V165H1410C1410 165 1410.03 137.786 1402.06 123.227C1394.61 109.622 1386.33 104.454 1373.77 95.3784C1355.96 82.5084 1322.16 73 1322.16 73L1284.94 90.4054Z" stroke="black" stroke-opacity="0.2" stroke-width="2"/>
<path d="M1298.98 238L1296 225.088L1295 165H1411C1411 165 1408.63 196.838 1402.54 216.15C1399.78 224.875 1394.07 238 1394.07 238H1298.98Z" fill="#82A985"/>
<path d="M1298.98 238L1296 225.088L1295 165H1411C1411 165 1408.63 196.838 1402.54 216.15C1399.78 224.875 1394.07 238 1394.07 238H1298.98Z" stroke="black" stroke-width="2"/>
<path d="M1298.98 238L1296 225.088L1295 165H1411C1411 165 1408.63 196.838 1402.54 216.15C1399.78 224.875 1394.07 238 1394.07 238H1298.98Z" stroke="black" stroke-opacity="0.2" stroke-width="2"/>
<path d="M1306.5 274.621L1299 239H1394L1375 286L1306.5 274.621Z" fill="#82A985"/>
<path d="M1306.5 274.621L1299 239H1394L1375 286L1306.5 274.621Z" stroke="black" stroke-width="2"/>
<path d="M1306.5 274.621L1299 239H1394L1375 286L1306.5 274.621Z" stroke="black" stroke-opacity="0.2" stroke-width="2"/>
<path d="M1245.06 240H1180.48L1178 287H1255L1245.06 240Z" fill="#82A985"/>
<path d="M1245.06 240H1180.48L1178 287H1255L1245.06 240Z" stroke="black" stroke-width="2"/>
<path d="M1245.06 240H1180.48L1178 287H1255L1245.06 240Z" stroke="black" stroke-opacity="0.2" stroke-width="2"/>
</svg>
