<svg width="88" height="105" viewBox="0 0 88 105" fill="none" xmlns="http://www.w3.org/2000/svg">
<path d="M27.5067 6.16333L1.26758 102.157C1.26758 102.157 16.2723 104.101 23.8111 103.996C31.3498 103.89 43.0284 102.157 43.0284 102.157C43.0284 102.157 46.7722 95.9124 50.4198 93.3299C54.0673 90.7474 61.1371 89.2842 61.1371 89.2842L56.3328 99.9501C56.3328 99.9501 59.1938 101.458 61.1371 102.157C63.0805 102.856 80.1281 104.032 82.2024 102.157C84.2766 100.282 86.2676 96.2722 86.2676 96.2722L78.5067 54.7118C78.5067 54.7118 75.0306 40.5688 70.3763 32.6443C65.722 24.7198 50.4198 11.3124 50.4198 11.3124C50.4198 11.3124 40.3598 0.555805 36.3763 1.01425C32.3928 1.47269 27.5067 6.16333 27.5067 6.16333Z" fill="#2C3872" stroke="black" stroke-width="2"/>
<path d="M40.9735 19C40.9735 19 38.106 47.0835 43.93 57.2647C49.754 67.4459 59.7026 81.9805 66.843 76.7576C73.9835 71.5348 70.4118 63.087 69.43 54.3222C68.4481 45.5575 65.1808 38.0926 60.1908 30.4159C55.2009 22.7392 40.9735 19 40.9735 19Z" fill="#2C3872" stroke="black" stroke-width="2"/>
</svg>
