<svg width="120" height="112" viewBox="0 0 120 112" fill="none" xmlns="http://www.w3.org/2000/svg">
<path d="M74.0518 14.7939L117.058 109.448L117.699 110.862H81.6416L81.4219 110.161L72.6025 82.0449L33.0967 110.672L32.835 110.862H8.37109L8.2959 109.943L1.17188 22.7188L1.08398 21.6377H20.6416L20.8203 22.4121L33.1943 75.9141L59.1572 62.5049L54.9961 15.2959L54.8994 14.208H73.7852L74.0518 14.7939ZM55.0576 2.76074L46.3506 10.1904L46.0703 10.4297H31.332L31.0459 10.1699L22.8662 2.74023L20.9512 1H57.1211L55.0576 2.76074Z" fill="#2C3872"/>
<path d="M74.0518 14.7939L74.9622 14.3803L74.962 14.3798L74.0518 14.7939ZM117.058 109.448L117.968 109.035L117.968 109.035L117.058 109.448ZM117.699 110.862V111.862H119.251L118.61 110.449L117.699 110.862ZM81.6416 110.862L80.6874 111.161L80.907 111.862H81.6416V110.862ZM81.4219 110.161L82.3761 109.862L82.376 109.862L81.4219 110.161ZM72.6025 82.0449L73.5567 81.7456L73.1409 80.4199L72.0158 81.2352L72.6025 82.0449ZM33.0967 110.672L32.5099 109.862L32.5083 109.863L33.0967 110.672ZM32.835 110.862V111.862H33.1603L33.4233 111.671L32.835 110.862ZM8.37109 110.862L7.37442 110.944L7.44958 111.862H8.37109V110.862ZM8.2959 109.943L7.29922 110.025L7.29923 110.025L8.2959 109.943ZM1.17188 22.7188L0.175164 22.7998L0.175194 22.8002L1.17188 22.7188ZM1.08398 21.6377V20.6377H-0.000615906L0.087273 21.7187L1.08398 21.6377ZM20.6416 21.6377L21.616 21.4128L21.4371 20.6377H20.6416V21.6377ZM20.8203 22.4121L19.8459 22.637L19.846 22.6374L20.8203 22.4121ZM33.1943 75.9141L32.2201 76.1394L32.51 77.393L33.6532 76.8026L33.1943 75.9141ZM59.1572 62.5049L59.6161 63.3934L60.2123 63.0855L60.1534 62.4171L59.1572 62.5049ZM54.9961 15.2959L55.9922 15.2081L55.9922 15.2074L54.9961 15.2959ZM54.8994 14.208V13.208H53.8066L53.9033 14.2965L54.8994 14.208ZM73.7852 14.208L74.6954 13.7939L74.4288 13.208H73.7852V14.208ZM55.0576 2.76074L54.4085 2.00004L54.4085 2.00004L55.0576 2.76074ZM46.3506 10.1904L45.7015 9.42973L45.7013 9.42987L46.3506 10.1904ZM46.0703 10.4297V11.4297H46.4391L46.7196 11.1903L46.0703 10.4297ZM31.332 10.4297L30.6599 11.1701L30.9458 11.4297H31.332V10.4297ZM31.0459 10.1699L30.3735 10.9101L30.3737 10.9103L31.0459 10.1699ZM22.8662 2.74023L22.1937 3.48031L22.1939 3.48046L22.8662 2.74023ZM20.9512 1V0H18.3638L20.2786 1.74008L20.9512 1ZM57.1211 1L57.7702 1.7607L59.8336 0H57.1211V1ZM74.0518 14.7939L73.1413 15.2076L116.147 109.862L117.058 109.448L117.968 109.035L74.9622 14.3803L74.0518 14.7939ZM117.058 109.448L116.147 109.861L116.789 111.275L117.699 110.862L118.61 110.449L117.968 109.035L117.058 109.448ZM117.699 110.862V109.862H81.6416V110.862V111.862H117.699V110.862ZM81.6416 110.862L82.5958 110.563L82.3761 109.862L81.4219 110.161L80.4676 110.46L80.6874 111.161L81.6416 110.862ZM81.4219 110.161L82.376 109.862L73.5567 81.7456L72.6025 82.0449L71.6484 82.3442L80.4677 110.46L81.4219 110.161ZM72.6025 82.0449L72.0158 81.2352L32.5099 109.862L33.0967 110.672L33.6834 111.482L73.1893 82.8547L72.6025 82.0449ZM33.0967 110.672L32.5083 109.863L32.2466 110.054L32.835 110.862L33.4233 111.671L33.685 111.48L33.0967 110.672ZM32.835 110.862V109.862H8.37109V110.862V111.862H32.835V110.862ZM8.37109 110.862L9.36776 110.781L9.29257 109.862L8.2959 109.943L7.29923 110.025L7.37442 110.944L8.37109 110.862ZM8.2959 109.943L9.29258 109.862L2.16856 22.6373L1.17188 22.7188L0.175194 22.8002L7.29922 110.025L8.2959 109.943ZM1.17188 22.7188L2.16859 22.6377L2.0807 21.5567L1.08398 21.6377L0.087273 21.7187L0.175164 22.7998L1.17188 22.7188ZM1.08398 21.6377V22.6377H20.6416V21.6377V20.6377H1.08398V21.6377ZM20.6416 21.6377L19.6672 21.8626L19.8459 22.637L20.8203 22.4121L21.7947 22.1872L21.616 21.4128L20.6416 21.6377ZM20.8203 22.4121L19.846 22.6374L32.2201 76.1394L33.1943 75.9141L34.1686 75.6887L21.7946 22.1868L20.8203 22.4121ZM33.1943 75.9141L33.6532 76.8026L59.6161 63.3934L59.1572 62.5049L58.6983 61.6164L32.7355 75.0256L33.1943 75.9141ZM59.1572 62.5049L60.1534 62.4171L55.9922 15.2081L54.9961 15.2959L54 15.3837L58.1611 62.5927L59.1572 62.5049ZM54.9961 15.2959L55.9922 15.2074L55.8955 14.1195L54.8994 14.208L53.9033 14.2965L54 15.3844L54.9961 15.2959ZM54.8994 14.208V15.208H73.7852V14.208V13.208H54.8994V14.208ZM73.7852 14.208L72.8749 14.6222L73.1415 15.2081L74.0518 14.7939L74.962 14.3798L74.6954 13.7939L73.7852 14.208ZM55.0576 2.76074L54.4085 2.00004L45.7015 9.42973L46.3506 10.1904L46.9997 10.9511L55.7067 3.52144L55.0576 2.76074ZM46.3506 10.1904L45.7013 9.42987L45.4211 9.66912L46.0703 10.4297L46.7196 11.1903L46.9998 10.951L46.3506 10.1904ZM46.0703 10.4297V9.42969H31.332V10.4297V11.4297H46.0703V10.4297ZM31.332 10.4297L32.0042 9.68929L31.7181 9.42952L31.0459 10.1699L30.3737 10.9103L30.6599 11.1701L31.332 10.4297ZM31.0459 10.1699L31.7183 9.42969L23.5386 2.00001L22.8662 2.74023L22.1939 3.48046L30.3735 10.9101L31.0459 10.1699ZM22.8662 2.74023L23.5387 2.00016L21.6237 0.259923L20.9512 1L20.2786 1.74008L22.1937 3.48031L22.8662 2.74023ZM20.9512 1V2H57.1211V1V0H20.9512V1ZM57.1211 1L56.472 0.239297L54.4085 2.00004L55.0576 2.76074L55.7067 3.52145L57.7702 1.7607L57.1211 1Z" fill="black"/>
</svg>
