<svg width="130" height="112" viewBox="0 0 130 112" fill="none" xmlns="http://www.w3.org/2000/svg">
<path d="M1 58.2683C1 58.2683 8.91843 69.6288 16.3901 73.6888C28.9108 80.4925 52.8627 73.6888 52.8627 73.6888L41.4782 106.22L69.3069 110.233V83.6171V65.6617C69.3069 65.6617 110.798 90.5007 124.964 73.6888C137.872 58.3711 115.688 23.2024 115.688 23.2024H80.0589V7.14813L58.1333 1.2334L52.8627 23.2024H1V58.2683Z" fill="#2C3872" stroke="black" stroke-width="2"/>
<path d="M17 39.6132L33.4443 36.2334L42.088 39.6132V47.0067H21.6381L17 39.6132Z" fill="#2C3872"/>
<path d="M69.9168 47.0067L80.6688 39.6132H99.2213L106.389 47.0067L99.2213 58.2024H80.6688L69.9168 47.0067Z" fill="#2C3872"/>
<path d="M17 39.6132L33.4443 36.2334L42.088 39.6132V47.0067H21.6381L17 39.6132Z" stroke="black" stroke-width="2"/>
<path d="M69.9168 47.0067L80.6688 39.6132H99.2213L106.389 47.0067L99.2213 58.2024H80.6688L69.9168 47.0067Z" stroke="black" stroke-width="2"/>
</svg>
