<svg width="98" height="91" viewBox="0 0 98 91" fill="none" xmlns="http://www.w3.org/2000/svg">
<path d="M1.04688 89.0664L4.34468 18.0987V8.24667L27.4293 4.57305L29.0782 49.9924L40.1259 47.6546V27.6167L44.5779 8.24667L59.9127 1.06641C59.9127 1.06641 85.6257 8.61477 92.8908 22.1063C99.9919 35.2931 92.8908 60.5123 92.8908 60.5123L81.6783 89.0664L53.6469 84.5579L49.1949 64.1859H27.4293L32.5409 89.0664H1.04688Z" fill="#2C3872" stroke="black" stroke-width="2"/>
<path d="M57.0307 54.1234C53.6697 48.2042 59.9987 36.9241 59.9987 36.9241C59.9987 36.9241 66.5546 28.2686 72.5304 28.074C79.9431 27.8327 85.1238 33.3456 86.8758 40.5978C89.3039 50.6481 70.057 60.9697 70.057 60.9697C70.057 60.9697 59.8779 59.1378 57.0307 54.1234Z" fill="#2C3872" stroke="black" stroke-width="2"/>
</svg>
