<svg width="90" height="108" viewBox="0 0 90 108" fill="none" xmlns="http://www.w3.org/2000/svg">
<path d="M1.09375 107L8.67502 23.186L74.3004 15.7907L87.0938 34.416H31.1819L24.7852 60.7106H41.1323V72.7623H24.7852V84.2662H87.0938L70.7466 107H1.09375Z" fill="#2C3872"/>
<path d="M17.9147 10.3127V1H24.7852V10.3127H17.9147Z" fill="#2C3872"/>
<path d="M35.2095 10.3127V1H44.686V10.3127H35.2095Z" fill="#2C3872"/>
<path d="M1.09375 107L8.67502 23.186L74.3004 15.7907L87.0938 34.416H31.1819L24.7852 60.7106H41.1323V72.7623H24.7852V84.2662H87.0938L70.7466 107H1.09375Z" stroke="black" stroke-width="2"/>
<path d="M17.9147 10.3127V1H24.7852V10.3127H17.9147Z" stroke="black" stroke-width="2"/>
<path d="M35.2095 10.3127V1H44.686V10.3127H35.2095Z" stroke="black" stroke-width="2"/>
</svg>
