<svg width="88" height="115" viewBox="0 0 88 115" fill="none" xmlns="http://www.w3.org/2000/svg">
<path d="M27.5067 16.1633L1.26758 112.157C1.26758 112.157 16.2723 114.101 23.8111 113.996C31.3498 113.89 43.0284 112.157 43.0284 112.157C43.0284 112.157 46.7722 105.912 50.4198 103.33C54.0673 100.747 61.1371 99.2842 61.1371 99.2842L56.3328 109.95C56.3328 109.95 59.1938 111.458 61.1371 112.157C63.0805 112.856 80.1281 114.032 82.2024 112.157C84.2766 110.282 86.2676 106.272 86.2676 106.272L78.5067 64.7118C78.5067 64.7118 75.0306 50.5688 70.3763 42.6443C65.722 34.7198 50.4198 21.3124 50.4198 21.3124C50.4198 21.3124 40.3598 10.5558 36.3763 11.0142C32.3928 11.4727 27.5067 16.1633 27.5067 16.1633Z" fill="#B44B47" stroke="black" stroke-width="2"/>
<path d="M40.9735 29C40.9735 29 38.106 57.0835 43.93 67.2647C49.754 77.4459 59.7026 91.9805 66.843 86.7576C73.9835 81.5348 70.4118 73.087 69.43 64.3222C68.4481 55.5575 65.1808 48.0926 60.1908 40.4159C55.2009 32.7392 40.9735 29 40.9735 29Z" fill="#B44B47" stroke="black" stroke-width="2"/>
<path d="M33.4277 41.173C32.4326 47.4852 39.8445 66.8373 39.8445 66.8373L67.4949 58.4167C67.4949 58.4167 65.1107 51.1395 63.0174 46.7192C60.9241 42.2989 59.405 37.1795 54.7845 32.9982C50.164 28.8169 45.7022 23.8688 39.8246 26.1783C33.9471 28.4878 34.4228 34.8608 33.4277 41.173Z" fill="black"/>
<path d="M38.2676 0L13.2676 22H38.2676V0Z" fill="black"/>
</svg>
