<svg width="130" height="134" viewBox="0 0 130 134" fill="none" xmlns="http://www.w3.org/2000/svg">
<path d="M43.9512 20.5333H53L30.7012 0L0 16.8L17.7744 28L32.9634 10.08L43.9512 20.5333Z" fill="black"/>
<path d="M83.9287 29.7939L126.935 124.448L127.576 125.862H91.5186L91.2988 125.161L82.4795 97.0449L42.9736 125.672L42.7119 125.862H18.248L18.1729 124.943L11.0488 37.7188L10.9609 36.6377H30.5186L30.6973 37.4121L43.0713 90.9141L69.0342 77.5049L64.873 30.2959L64.7764 29.208H83.6621L83.9287 29.7939ZM64.9346 17.7607L56.2275 25.1904L55.9473 25.4297H41.209L40.9229 25.1699L32.7432 17.7402L30.8281 16H66.998L64.9346 17.7607Z" fill="#F5DE91"/>
<path d="M83.9287 29.7939L84.8391 29.3803L84.8389 29.3798L83.9287 29.7939ZM126.935 124.448L127.845 124.035L127.845 124.035L126.935 124.448ZM127.576 125.862V126.862H129.128L128.487 125.449L127.576 125.862ZM91.5186 125.862L90.5643 126.161L90.784 126.862H91.5186V125.862ZM91.2988 125.161L92.2531 124.862L92.253 124.862L91.2988 125.161ZM82.4795 97.0449L83.4337 96.7456L83.0178 95.4199L81.8927 96.2352L82.4795 97.0449ZM42.9736 125.672L42.3869 124.862L42.3853 124.863L42.9736 125.672ZM42.7119 125.862V126.862H43.0372L43.3003 126.671L42.7119 125.862ZM18.248 125.862L17.2514 125.944L17.3265 126.862H18.248V125.862ZM18.1729 124.943L17.1762 125.025L17.1762 125.025L18.1729 124.943ZM11.0488 37.7188L10.0521 37.7998L10.0521 37.8002L11.0488 37.7188ZM10.9609 36.6377V35.6377H9.87634L9.96423 36.7187L10.9609 36.6377ZM30.5186 36.6377L31.4929 36.4128L31.3141 35.6377H30.5186V36.6377ZM30.6973 37.4121L29.7229 37.637L29.723 37.6374L30.6973 37.4121ZM43.0713 90.9141L42.097 91.1394L42.3869 92.393L43.5302 91.8026L43.0713 90.9141ZM69.0342 77.5049L69.4931 78.3934L70.0892 78.0855L70.0303 77.4171L69.0342 77.5049ZM64.873 30.2959L65.8692 30.2081L65.8691 30.2074L64.873 30.2959ZM64.7764 29.208V28.208H63.6836L63.7803 29.2965L64.7764 29.208ZM83.6621 29.208L84.5723 28.7939L84.3058 28.208H83.6621V29.208ZM64.9346 17.7607L64.2855 17L64.2855 17L64.9346 17.7607ZM56.2275 25.1904L55.5784 24.4297L55.5783 24.4299L56.2275 25.1904ZM55.9473 25.4297V26.4297H56.316L56.5965 26.1903L55.9473 25.4297ZM41.209 25.4297L40.5368 26.1701L40.8228 26.4297H41.209V25.4297ZM40.9229 25.1699L40.2505 25.9101L40.2507 25.9103L40.9229 25.1699ZM32.7432 17.7402L32.0706 18.4803L32.0708 18.4805L32.7432 17.7402ZM30.8281 16V15H28.2407L30.1556 16.7401L30.8281 16ZM66.998 16L67.6471 16.7607L69.7106 15H66.998V16ZM83.9287 29.7939L83.0183 30.2076L126.024 124.862L126.935 124.448L127.845 124.035L84.8391 29.3803L83.9287 29.7939ZM126.935 124.448L126.024 124.861L126.666 126.275L127.576 125.862L128.487 125.449L127.845 124.035L126.935 124.448ZM127.576 125.862V124.862H91.5186V125.862V126.862H127.576V125.862ZM91.5186 125.862L92.4728 125.563L92.2531 124.862L91.2988 125.161L90.3446 125.46L90.5643 126.161L91.5186 125.862ZM91.2988 125.161L92.253 124.862L83.4337 96.7456L82.4795 97.0449L81.5253 97.3442L90.3447 125.46L91.2988 125.161ZM82.4795 97.0449L81.8927 96.2352L42.3869 124.862L42.9736 125.672L43.5604 126.482L83.0663 97.8547L82.4795 97.0449ZM42.9736 125.672L42.3853 124.863L42.1236 125.054L42.7119 125.862L43.3003 126.671L43.562 126.48L42.9736 125.672ZM42.7119 125.862V124.862H18.248V125.862V126.862H42.7119V125.862ZM18.248 125.862L19.2447 125.781L19.1695 124.862L18.1729 124.943L17.1762 125.025L17.2514 125.944L18.248 125.862ZM18.1729 124.943L19.1695 124.862L12.0455 37.6373L11.0488 37.7188L10.0521 37.8002L17.1762 125.025L18.1729 124.943ZM11.0488 37.7188L12.0455 37.6377L11.9576 36.5567L10.9609 36.6377L9.96423 36.7187L10.0521 37.7998L11.0488 37.7188ZM10.9609 36.6377V37.6377H30.5186V36.6377V35.6377H10.9609V36.6377ZM30.5186 36.6377L29.5442 36.8626L29.7229 37.637L30.6973 37.4121L31.6717 37.1872L31.4929 36.4128L30.5186 36.6377ZM30.6973 37.4121L29.723 37.6374L42.097 91.1394L43.0713 90.9141L44.0456 90.6887L31.6715 37.1868L30.6973 37.4121ZM43.0713 90.9141L43.5302 91.8026L69.4931 78.3934L69.0342 77.5049L68.5753 76.6164L42.6124 90.0256L43.0713 90.9141ZM69.0342 77.5049L70.0303 77.4171L65.8692 30.2081L64.873 30.2959L63.8769 30.3837L68.038 77.5927L69.0342 77.5049ZM64.873 30.2959L65.8691 30.2074L65.7724 29.1195L64.7764 29.208L63.7803 29.2965L63.877 30.3844L64.873 30.2959ZM64.7764 29.208V30.208H83.6621V29.208V28.208H64.7764V29.208ZM83.6621 29.208L82.7519 29.6222L83.0185 30.2081L83.9287 29.7939L84.8389 29.3798L84.5723 28.7939L83.6621 29.208ZM64.9346 17.7607L64.2855 17L55.5784 24.4297L56.2275 25.1904L56.8766 25.9511L65.5837 18.5214L64.9346 17.7607ZM56.2275 25.1904L55.5783 24.4299L55.298 24.6691L55.9473 25.4297L56.5965 26.1903L56.8768 25.951L56.2275 25.1904ZM55.9473 25.4297V24.4297H41.209V25.4297V26.4297H55.9473V25.4297ZM41.209 25.4297L41.8812 24.6893L41.595 24.4295L40.9229 25.1699L40.2507 25.9103L40.5368 26.1701L41.209 25.4297ZM40.9229 25.1699L41.5952 24.4297L33.4155 17L32.7432 17.7402L32.0708 18.4805L40.2505 25.9101L40.9229 25.1699ZM32.7432 17.7402L33.4157 17.0002L31.5006 15.2599L30.8281 16L30.1556 16.7401L32.0706 18.4803L32.7432 17.7402ZM30.8281 16V17H66.998V16V15H30.8281V16ZM66.998 16L66.3489 15.2393L64.2855 17L64.9346 17.7607L65.5837 18.5214L67.6471 16.7607L66.998 16Z" fill="black"/>
<path d="M90 134V120.928V119.294C90 119.294 103.767 119.564 107.377 117.007C110.987 114.449 107.377 109 107.377 109H116.557C116.557 109 113.135 114.831 116.557 117.007C119.98 119.182 130 119.294 130 119.294V134H90Z" fill="black"/>
</svg>
