<svg width="95" height="110" viewBox="0 0 95 110" fill="none" xmlns="http://www.w3.org/2000/svg">
<path d="M1.02539 105.822L3.2615 14.3556L32.6504 18.4L38.0809 58.2222H52.7754L57.5671 18.4L86.3171 10L93.0254 108L52.7754 105.822L57.5671 70.0444H38.0809L28.4976 105.822H1.02539Z" fill="#82A985" stroke="black" stroke-width="2"/>
<path d="M7.93403 1.47174C3.57019 4.78315 2.02539 14.345 2.02539 14.345H7.93403C7.93403 14.345 8.5999 8.48725 11.2823 6.70151C13.9646 4.91578 21.13 8.10953 21.13 8.10953C21.13 8.10953 24.7849 10.3336 25.463 12.7359C26.1411 15.1382 21.13 21.184 21.13 21.184L28.2204 24L37.0833 21.184C37.0833 21.184 39.203 13.1889 37.0833 8.91411C34.9636 4.63931 25.463 1.47174 25.463 1.47174C25.463 1.47174 12.2979 -1.83967 7.93403 1.47174Z" fill="black"/>
<path d="M62.934 82.4717C58.5702 85.7831 57.0254 95.345 57.0254 95.345H62.934C62.934 95.345 63.5999 89.4872 66.2823 87.7015C68.9646 85.9158 76.13 89.1095 76.13 89.1095C76.13 89.1095 79.7849 91.3336 80.463 93.7359C81.1411 96.1382 76.13 102.184 76.13 102.184L83.2204 105L92.0833 102.184C92.0833 102.184 94.203 94.1889 92.0833 89.9141C89.9636 85.6393 80.463 82.4717 80.463 82.4717C80.463 82.4717 67.2979 79.1603 62.934 82.4717Z" fill="black"/>
</svg>
