<svg width="82" height="94" viewBox="0 0 82 94" fill="none" xmlns="http://www.w3.org/2000/svg">
<path d="M17.2503 4.09808L6.53462 24.8233C6.53462 24.8233 2.90306 30.5588 1.71256 34.748C-1.0052 44.3115 4.92727 60.1437 4.92727 60.1437L10.2851 82.3284L29.0376 89.9179C29.0376 89.9179 47.3434 95.8727 56.6305 89.9179C62.8415 85.9355 68.4178 74.447 68.4178 74.447L75.1151 54.8894L80.2051 30.0775C80.2051 30.0775 68.5379 10.0331 56.6305 4.09808C42.6453 -2.8726 17.2503 4.09808 17.2503 4.09808Z" fill="#B44B47" stroke="black" stroke-width="2"/>
<path d="M25.2012 50.6952L30.8269 36.3919L39.1316 24.4238L54.6694 26.1753L56.5446 52.1547L49.3115 69.669L28.9517 66.1661L25.2012 50.6952Z" fill="#B44B47" stroke="black" stroke-width="2"/>
<path d="M46.7633 18.0297C39.6575 17.6471 34.8415 21.0065 29.7867 25.6741C24.732 30.3418 21.7211 35.0023 20.1195 41.2361C18.5179 47.4699 18.7399 51.5855 20.1195 57.8901C21.499 64.1947 23.9248 72.0501 29.7867 75.6362C35.6486 79.2223 40.5524 78.3216 46.7633 75.6362C52.9742 72.9507 57.5231 66.3612 61.3821 57.8901C65.2411 49.419 69.1439 41.2126 65.6262 31.9535C62.1086 22.6944 53.8691 18.4123 46.7633 18.0297Z" fill="black"/>
</svg>
