<svg width="107" height="114" viewBox="0 0 107 114" fill="none" xmlns="http://www.w3.org/2000/svg">
<path d="M12.7648 10.211L1.10156 107.136L23.7419 112V55.3734C23.7419 55.3734 47.9532 69.9262 64.5632 68.2273C83.2408 66.3169 100.799 60.9552 105.384 42.5195C109.164 27.3216 91.32 5 91.32 5L12.7648 10.211Z" fill="#B44B47" stroke="black" stroke-width="2"/>
<path d="M36.8594 46.2156L39.6037 30.5825C39.6037 30.5825 47.0087 29.6696 51.6099 30.5825C61.6813 32.5808 72.8781 46.2156 72.8781 46.2156H36.8594Z" fill="#B44B47" stroke="black" stroke-width="2"/>
<path d="M82.9102 47.9999L29.4109 47.9999C29.4109 47.9999 32.7042 29.8004 39.6373 26.5913C47.5707 22.9192 54.2939 20.4872 61.9441 24.7178C67.8776 27.9991 82.9102 47.9999 82.9102 47.9999Z" fill="black"/>
<path d="M11.4179 14.2C12.4222 18.2989 11.4179 25 11.4179 25C11.4179 25 16.3117 18.0675 20.107 14.2C23.9024 10.3325 39.9102 0 39.9102 0C39.9102 0 28.043 6.67478 20.107 6.6C12.1711 6.52522 0.910156 0 0.910156 0C0.910156 0 10.4136 10.1011 11.4179 14.2Z" fill="black"/>
</svg>
