<svg width="115" height="111" viewBox="0 0 115 111" fill="none" xmlns="http://www.w3.org/2000/svg">
<path d="M70.322 1.16309L88.6346 29.2848L70.322 40.9002L56.7454 31.7301H39.0643L32.4339 64.4369L61.7972 80.9431L84.8458 64.4369L106 77.5807L80.4255 109.065C80.4255 109.065 21.1886 111.951 5.59642 86.4452C-8.85369 62.8075 15.3842 16.7523 15.3842 16.7523L70.322 1.16309Z" fill="#82A985" stroke="black" stroke-width="2"/>
<path d="M92.341 69.5454L90.1681 72.789L94.1085 77.4073L98.8148 73.8823L109.583 79.8594L113.7 73.7137L89.3477 56.1631L84.0869 64.0159L92.341 69.5454Z" fill="black"/>
<path d="M81.4306 31.5321L79.1089 28.3934L73.4329 30.5474L75.1661 36.1662L65.9105 44.2908L70.3097 50.2377L95.0391 33.2227L89.4179 25.6237L81.4306 31.5321Z" fill="black"/>
</svg>
