<svg width="113" height="122" viewBox="0 0 113 122" fill="none" xmlns="http://www.w3.org/2000/svg">
<path d="M13.5391 20.5039L20.1957 115.394L77.8862 120.504L111.539 112.11L103.403 69.409L89.3504 66.1243C89.3504 66.1243 60.1129 84.1688 45.3428 76.3433C30.5728 68.5179 28.7013 37.2922 28.7013 37.2922L103.403 48.9711V26.3433L13.5391 20.5039Z" fill="#F5DE91" stroke="black" stroke-width="2"/>
<path d="M85.6976 81.0583C79.2375 77.6851 57.7707 90.6791 53.524 93.832C49.2773 96.9848 43.5391 102.956 43.5391 102.956L83.4787 105.146C83.4787 105.146 95.8112 101.963 97.1617 95.6568C98.5122 89.3508 92.1576 84.4315 85.6976 81.0583Z" fill="#F5DE91" stroke="black" stroke-width="2"/>
<path d="M104.72 106.656L37.3929 107.203C37.3929 107.203 48.0272 90.6371 57.9214 85.3858C69.2431 79.3768 78.852 75.4276 89.9301 82.6975C98.5225 88.336 104.72 106.656 104.72 106.656Z" fill="black"/>
<path d="M15.8785 -8.34465e-05L23.826 10.3783L24.8195 11.6756C24.8195 11.6756 19.1905 15.6466 19.312 18.7743C19.4336 21.9021 24.1799 25.1311 24.1799 25.1311L20.5355 27.9219C20.5355 27.9219 18.3491 22.2523 15.6677 21.5651C12.9863 20.8779 8.94048 23.8353 8.94048 23.8353L-0.000467539 12.1596L15.8785 -8.34465e-05Z" fill="black"/>
</svg>
