<svg width="127" height="121" viewBox="0 0 127 121" fill="none" xmlns="http://www.w3.org/2000/svg">
<path d="M7 23.0303L17.4118 46.936L49.448 49.2929L59.0588 120H89.7602L73.4751 55.3535L125 62.4242L117.258 20L7 23.0303Z" fill="#F5DE91" stroke="black" stroke-width="2"/>
<path d="M91.5078 43.2C92.5121 47.2989 91.5078 54 91.5078 54C91.5078 54 96.4016 47.0675 100.197 43.2C103.992 39.3325 120 29 120 29C120 29 108.133 35.6748 100.197 35.6C92.261 35.5252 81 29 81 29C81 29 90.5035 39.1011 91.5078 43.2Z" fill="black"/>
<path d="M52.2439 21.2667H63L36.4939 0L0 17.4L21.128 29L39.1829 10.44L52.2439 21.2667Z" fill="black"/>
</svg>
