<svg width="130" height="112" viewBox="0 0 130 112" fill="none" xmlns="http://www.w3.org/2000/svg">
<path d="M1 58.2683C1 58.2683 8.91843 69.6288 16.3901 73.6888C28.9108 80.4925 52.8627 73.6888 52.8627 73.6888L41.4782 106.22L69.3069 110.233V83.6171V65.6617C69.3069 65.6617 110.798 90.5007 124.964 73.6888C137.872 58.3711 115.688 23.2024 115.688 23.2024H80.0589V7.14813L58.1333 1.2334L52.8627 23.2024H1V58.2683Z" fill="#B44B47" stroke="black" stroke-width="2"/>
<path d="M17 39.6132L33.4443 36.2334L42.088 39.6132V47.0067H21.6381L17 39.6132Z" fill="#B44B47"/>
<path d="M69.9168 47.0067L80.6688 39.6132H99.2213L106.389 47.0067L99.2213 58.2024H80.6688L69.9168 47.0067Z" fill="#B44B47"/>
<path d="M17 39.6132L33.4443 36.2334L42.088 39.6132V47.0067H21.6381L17 39.6132Z" stroke="black" stroke-width="2"/>
<path d="M69.9168 47.0067L80.6688 39.6132H99.2213L106.389 47.0067L99.2213 58.2024H80.6688L69.9168 47.0067Z" stroke="black" stroke-width="2"/>
<path d="M94.1849 28.2522C87.2272 28.0099 82.5114 30.1375 77.562 33.0937C72.6126 36.0499 69.6644 39.0015 68.0962 42.9496C66.5279 46.8977 66.7453 49.5042 68.0962 53.4971C69.447 57.49 71.8222 62.4651 77.562 64.7363C83.3018 67.0075 88.1034 66.4371 94.1849 64.7363C100.266 63.0355 104.721 58.8622 108.499 53.4971C112.278 48.1321 116.099 42.9347 112.655 37.0706C109.21 31.2065 101.143 28.4945 94.1849 28.2522Z" fill="black"/>
<path d="M29.6906 32.2851C23.0187 32.7487 16.5975 34.5216 13.7915 38.7855C10.9855 43.0495 10.2407 46.9025 11.8041 51.7865C13.3675 56.6705 17.3785 59.6495 22.7347 61.5372C28.091 63.425 37.8391 61.0651 42.0124 59.3026L42.0588 59.283C46.2148 57.5279 50.1068 55.8843 52.1481 51.7865C54.1971 47.6735 52.266 43.0545 49.3658 38.7855C46.4656 34.5166 36.3625 31.8215 29.6906 32.2851Z" fill="black"/>
</svg>
