<svg width="120" height="118" viewBox="0 0 120 118" fill="none" xmlns="http://www.w3.org/2000/svg">
<path d="M1.10352 106.978L10.7645 17L35.1904 20.4138L22.066 73.8153L42.4817 76.7414V64.5493H53.601V82.3498H74.0166V17L91.1512 20.4138L108.104 116L1.10352 106.978Z" fill="#F5DE91" stroke="black" stroke-width="2"/>
<path d="M82.9272 3.26776C76.867 6.04843 72.5743 16.9402 72.5743 16.9402L79.6321 18.47C79.6321 18.47 81.9268 11.7249 85.588 10.3105C89.2491 8.89622 96.9905 14.5229 96.9905 14.5229C96.9905 14.5229 100.787 18.0956 100.982 21.108C101.177 24.1205 93.644 29.9627 93.644 29.9627L101.393 35.1239L112.7 34.093C112.7 34.093 117.278 25.2004 115.841 19.6034C114.403 14.0065 103.865 7.80608 103.865 7.80608C103.865 7.80608 88.9873 0.487093 82.9272 3.26776Z" fill="black"/>
</svg>
