<svg width="104" height="94" viewBox="0 0 104 94" fill="none" xmlns="http://www.w3.org/2000/svg">
<path d="M1.35352 30.3329L6.44781 13.7874L21.5092 1.04297L62.0421 5.7383L57.8338 22.7309L54.0684 44.4189H67.8009L102.354 52.468V92.043L28.3754 88.242L40.1145 16.6941C40.1145 16.6941 32.2046 14.1494 28.3754 16.6941C23.8004 19.7344 24.6101 30.3329 24.6101 30.3329H1.35352Z" fill="#B44B47" stroke="black" stroke-width="2"/>
<path d="M54.451 77.792C54.451 77.792 49.7317 65.796 54.451 61.6937C58.5148 58.1612 62.8318 61.3435 68.1834 61.6937C75.5203 62.1739 86.7887 64.6004 86.7887 64.6004L83.0233 77.792H54.451Z" fill="#B44B47" stroke="black" stroke-width="2"/>
<path d="M95.8626 81.6867L38.6212 81.1389C38.6212 81.1389 47.3884 63.9723 55.7145 58.639C65.2418 52.5362 73.3468 48.5613 82.8878 56.3567C90.288 62.403 95.8626 81.6867 95.8626 81.6867Z" fill="black"/>
</svg>
