<svg width="121" height="103" viewBox="0 0 121 103" fill="none" xmlns="http://www.w3.org/2000/svg">
<path d="M1 97.8072V12.0294L21.1842 1.58496L25.1767 56.0294L70.8684 57.8072L72.8647 73.1405V93.585L45.5827 101.585L1 97.8072Z" fill="#F5DE91"/>
<path d="M89.0564 97.8072L86.1729 3.80718H100.812L119 97.8072H89.0564Z" fill="#F5DE91"/>
<path d="M1 97.8072V12.0294L21.1842 1.58496L25.1767 56.0294L70.8684 57.8072L72.8647 73.1405V93.585L45.5827 101.585L1 97.8072Z" stroke="black" stroke-width="2"/>
<path d="M89.0564 97.8072L86.1729 3.80718H100.812L119 97.8072H89.0564Z" stroke="black" stroke-width="2"/>
<path d="M22 87.2516L25.5489 72.585L54.1617 74.585L50.8346 87.2516H22Z" fill="#F5DE91" stroke="black" stroke-width="2"/>
<path d="M35.6906 66.6366C29.0187 67.1002 22.5975 68.8732 19.7915 73.1371C16.9855 77.401 16.2407 81.2541 17.8041 86.1381C19.3675 91.0221 23.3785 94.001 28.7347 95.8888C34.091 97.7765 43.8391 95.4166 48.0124 93.6541L48.0588 93.6345C52.2148 91.8795 56.1068 90.2358 58.1481 86.1381C60.1971 82.025 58.266 77.406 55.3658 73.1371C52.4656 68.8682 42.3625 66.173 35.6906 66.6366Z" fill="black"/>
</svg>
