<svg width="81" height="111" viewBox="0 0 81 111" fill="none" xmlns="http://www.w3.org/2000/svg">
<path d="M1.06055 110L6.74016 14.4806L45.3615 9L79.0605 22.3101L70.7304 44.624L57.478 53.6279L38.9246 61.4574H79.0605V77.5078V110H1.06055Z" fill="#82A985" stroke="black" stroke-width="2"/>
<path d="M24.0605 44.876V30H38.4489H51.7013L44.8858 44.876H24.0605Z" fill="#82A985"/>
<path d="M38.4489 96.9419L24.0605 85.5892L34.6625 77.7597H64.1965L70.2547 85.5892L38.4489 96.9419Z" fill="#82A985"/>
<path d="M24.0605 44.876V30H38.4489H51.7013L44.8858 44.876H24.0605Z" stroke="black" stroke-width="2"/>
<path d="M38.4489 96.9419L24.0605 85.5892L34.6625 77.7597H64.1965L70.2547 85.5892L38.4489 96.9419Z" stroke="black" stroke-width="2"/>
<path d="M63.4557 46.2896L7.3858 46.5265C7.3858 46.5265 16.183 32.0669 24.4044 27.5065C33.8119 22.2882 41.8002 18.8664 51.0525 25.2684C58.2286 30.2339 63.4557 46.2896 63.4557 46.2896Z" fill="black"/>
<path d="M78.343 96.6736L8.52013 104.985C8.52013 104.985 17.0504 84.466 26.5276 77.2179C37.372 68.9241 46.7501 63.2261 59.3546 70.4361C69.1308 76.0283 78.343 96.6736 78.343 96.6736Z" fill="black"/>
<path d="M11.8481 13.8939H5.06055C5.06055 13.8939 13.5727 1.64477 21.787 0.191602C30.0014 -1.26157 47.316 5.85073 44.8162 11.4025C42.3165 16.9544 37.3619 19.6246 31.4835 18.8765C25.6052 18.1285 24.2125 6.34478 20.0901 6.91817C15.9678 7.49156 11.8481 13.8939 11.8481 13.8939Z" fill="black"/>
</svg>
