<svg width="98" height="107" viewBox="0 0 98 107" fill="none" xmlns="http://www.w3.org/2000/svg">
<path d="M43.002 1.07324L10.1415 19.1198L30.0252 28.4221H55.3508L72.9322 35.1198V52.7942H61.8392L48.2345 54.4686V58.3756H72.9322V79.957L45.3043 89.2593L34.4206 71.3988L7.00195 68.9802L16.002 101.352L85.281 105.073L97.002 63.957V16.3291L43.002 1.07324Z" fill="#B44B47" stroke="black" stroke-width="2"/>
<path d="M21.6672 28.9499L22.5365 25.1438L17.2051 22.2399L14.0706 27.2148L1.87724 25.4835L0.230049 32.6951L29.248 40.377L31.3528 31.1622L21.6672 28.9499Z" fill="black"/>
<path d="M16.937 65.5253V69.4294L22.7812 71.0732L24.7292 65.5253L37.002 64.4979V57.1006L7.00195 56.0732V65.5253H16.937Z" fill="black"/>
</svg>
