<svg width="102" height="105" viewBox="0 0 102 105" fill="none" xmlns="http://www.w3.org/2000/svg">
<path d="M6 103L9.29781 32.0323V22.1803L32.3825 18.5066L34.0314 63.926L45.079 61.5882V41.5503L49.5311 22.1803L64.8659 15C64.8659 15 90.5788 22.5484 97.844 36.0398C104.945 49.2267 97.844 74.4459 97.844 74.4459L86.6314 103L58.6 98.4915L54.148 78.1195H32.3825L37.4941 103H6Z" fill="#F5DE91" stroke="black" stroke-width="2"/>
<path d="M61.9838 68.057C58.6228 62.1378 64.9518 50.8577 64.9518 50.8577C64.9518 50.8577 71.5078 42.2022 77.4835 42.0076C84.8963 41.7663 90.0769 47.2792 91.8289 54.5313C94.257 64.5817 75.0101 74.9033 75.0101 74.9033C75.0101 74.9033 64.8311 73.0714 61.9838 68.057Z" fill="#F5DE91" stroke="black" stroke-width="2"/>
<path d="M78.8713 36.0228C72.5057 35.7294 68.1913 38.305 63.6631 41.8835C59.1349 45.462 56.4376 49.0351 55.0029 53.8143C53.5681 58.5936 53.767 61.7489 55.0029 66.5824C56.2387 71.4159 58.4118 77.4384 63.6631 80.1877C68.9144 82.9371 73.3074 82.2466 78.8713 80.1877C84.4352 78.1289 88.5102 73.077 91.9673 66.5824C95.4243 60.0879 98.9206 53.7963 95.7693 46.6977C92.6181 39.5991 85.2369 36.3161 78.8713 36.0228Z" fill="black"/>
<path d="M13.3673 18.3673L15.3594 21.7249L21.2243 20.1567L20.0688 14.3913L30.0995 7.24557L26.325 0.883732L0 15.3076L4.8229 23.4366L13.3673 18.3673Z" fill="black"/>
</svg>
