<svg width="93" height="118" viewBox="0 0 93 118" fill="none" xmlns="http://www.w3.org/2000/svg">
<path d="M85.7559 27.7503V112.033L61.5941 116.457L66.0685 84.6023L44.8152 112.033L2.75586 108.051L57.1197 69.1173H30.2734L17.9688 45.005C17.9688 45.005 21.4811 25.6376 30.2734 18.0169C46.8215 3.67397 85.7559 27.7503 85.7559 27.7503Z" fill="#82A985" stroke="black" stroke-width="2"/>
<path d="M36.1474 50.4987L54.045 55.3654L69.0342 50.4987L66.5733 40.9865L54.045 33.9076C54.045 33.9076 44.1243 30.6438 39.5032 33.9076C34.0655 37.7482 36.1474 50.4987 36.1474 50.4987Z" fill="#82A985" stroke="black" stroke-width="2"/>
<path d="M52.4465 27.5087C45.7746 27.9723 39.3533 29.7453 36.5473 34.0092C33.7413 38.2731 32.9965 42.1261 34.5599 47.0101C36.1233 51.8941 40.1343 54.8731 45.4906 56.7608C50.8468 58.6486 60.5949 56.2887 64.7683 54.5262L64.8147 54.5066C68.9707 52.7515 72.8627 51.1079 74.904 47.0101C76.9529 42.8971 75.0218 38.2781 72.1217 34.0092C69.2215 29.7402 59.1184 27.0451 52.4465 27.5087Z" fill="black"/>
<path d="M57.8593 14.2051L51.3161 12.9715L69.8862 3.0401L90.0855 17.8388L75.8987 22.4908L67.0498 9.09949L57.8593 14.2051Z" fill="black"/>
</svg>
