<svg width="108" height="112" viewBox="0 0 108 112" fill="none" xmlns="http://www.w3.org/2000/svg">
<path d="M10.1892 13.148L6 108H40.6306L28.9009 31.1229H99L90.6216 9L10.1892 13.148Z" fill="#B44B47" stroke="black" stroke-width="2"/>
<path d="M79.5078 14.2C80.5121 18.2989 79.5078 25 79.5078 25C79.5078 25 84.4016 18.0675 88.1969 14.2C91.9922 10.3325 108 0 108 0C108 0 96.1328 6.67478 88.1969 6.6C80.261 6.52522 69 0 69 0C69 0 78.5035 10.1011 79.5078 14.2Z" fill="black"/>
<path d="M43 112H0V103.37H19.134C19.134 103.37 19.8989 100.672 19.134 99.2603C18.369 97.8489 15.2249 97 15.2249 97H31.067C31.067 97 27.086 97.8415 26.3349 99.2603C25.5838 100.679 26.3349 103.37 26.3349 103.37H43V112Z" fill="black"/>
</svg>
