<svg width="113" height="115" viewBox="0 0 113 115" fill="none" xmlns="http://www.w3.org/2000/svg">
<path d="M39.4596 14C39.4596 14 47.4329 81.618 20.8375 87.8889C14.5533 89.3707 4.38084 87.8889 4.38084 87.8889L1.13281 114H14.3415V102.333L100.09 105.389V114H111.133V93.1667L93.81 87.8889L72.806 14H39.4596Z" fill="#F5DE91" stroke="black" stroke-width="2"/>
<path d="M50.4894 44.4933C45.8342 48.0752 46.1368 59.7711 46.1368 59.7711L59.1508 84.7711L71.9264 74.7711L64.1311 44.4933C64.1311 44.4933 54.8561 41.1334 50.4894 44.4933Z" fill="#F5DE91" stroke="black" stroke-width="2"/>
<path d="M44.5454 57.2997C43.4854 65.6865 52.8506 92.389 52.8506 92.389L86.002 83.6917C86.002 83.6917 82.9663 73.6886 80.3445 67.5515C77.7227 61.4144 75.7777 54.3923 70.1142 48.3372C64.4507 42.2821 58.9615 35.2117 51.9261 37.7585C44.8907 40.3053 45.6054 48.9129 44.5454 57.2997Z" fill="black"/>
<path d="M44.1328 19V0H67.1328V19H44.1328Z" fill="black"/>
</svg>
