<svg width="90" height="114" viewBox="0 0 90 114" fill="none" xmlns="http://www.w3.org/2000/svg">
<path d="M1.09375 107L8.67502 23.186L74.3004 15.7907L87.0938 34.416H31.1819L24.7852 60.7106H41.1323V72.7623H24.7852V84.2662H87.0938L70.7466 107H1.09375Z" fill="#B44B47"/>
<path d="M17.9147 10.3127V1H24.7852V10.3127H17.9147Z" fill="#B44B47"/>
<path d="M35.2095 10.3127V1H44.686V10.3127H35.2095Z" fill="#B44B47"/>
<path d="M1.09375 107L8.67502 23.186L74.3004 15.7907L87.0938 34.416H31.1819L24.7852 60.7106H41.1323V72.7623H24.7852V84.2662H87.0938L70.7466 107H1.09375Z" stroke="black" stroke-width="2"/>
<path d="M17.9147 10.3127V1H24.7852V10.3127H17.9147Z" stroke="black" stroke-width="2"/>
<path d="M35.2095 10.3127V1H44.686V10.3127H35.2095Z" stroke="black" stroke-width="2"/>
<path d="M12.6666 102.556C13.1862 101.125 12.6666 98.6462 12.6666 98.6462L18.6844 97C18.6844 97 19.257 100.769 20.6903 102.556C22.1236 104.342 31.9812 101.043 33.3276 103.585C34.674 106.127 33.9643 108.174 33.3276 110.993C32.6909 113.811 3.47601 115.561 2.43643 112.021C1.39685 108.482 0.0229436 105.301 2.43643 102.556C4.84991 99.8109 12.147 103.987 12.6666 102.556Z" fill="black"/>
</svg>
