<svg width="126" height="113" viewBox="0 0 126 113" fill="none" xmlns="http://www.w3.org/2000/svg">
<path d="M29.1434 14.6393L8.1481 7.95082L1.82422 6L29.1434 66.4754L8.1481 104.934H32.4318L51.9093 76.2295L54.1859 107.164L71.6398 108V76.2295L83.0228 104.934L108.824 98.8033L80.2403 61.7377L108.824 7.95082H92.1292L71.6398 41.3934L64.0512 20.7705H51.9093L45.3964 45.0164L29.1434 14.6393Z" fill="#F5DE91" stroke="black" stroke-width="2"/>
<path d="M19.332 102.2C20.3363 106.299 19.332 113 19.332 113C19.332 113 24.2258 106.068 28.0211 102.2C31.8164 98.3325 47.8242 88 47.8242 88C47.8242 88 35.957 94.6748 28.0211 94.6C20.0852 94.5252 8.82422 88 8.82422 88C8.82422 88 18.3277 98.1011 19.332 102.2Z" fill="black"/>
<path d="M95.7329 1.47174C91.369 4.78315 89.8242 14.345 89.8242 14.345H95.7329C95.7329 14.345 96.3987 8.48725 99.0811 6.70151C101.763 4.91578 108.929 8.10953 108.929 8.10953C108.929 8.10953 112.584 10.3336 113.262 12.7359C113.94 15.1382 108.929 21.184 108.929 21.184L116.019 24L124.882 21.184C124.882 21.184 127.002 13.1889 124.882 8.91411C122.762 4.63931 113.262 1.47174 113.262 1.47174C113.262 1.47174 100.097 -1.83967 95.7329 1.47174Z" fill="black"/>
</svg>
