<svg width="116" height="118" viewBox="0 0 116 118" fill="none" xmlns="http://www.w3.org/2000/svg">
<path d="M44.6881 30H59L54.3267 21.0684C54.3267 21.0684 51.1139 13.2534 47.6089 8.50854C44.104 3.76364 45.228 2.25325 37.0941 0.693308C28.9601 -0.866636 3.21287 0.693308 3.21287 0.693308L0 21.0684L19.8614 26.3716L25.1188 17.7191L40.0149 19.1147L44.6881 30Z" fill="black"/>
<path d="M41.5252 22L22 30.9571L41.5252 36.9286H65.0216C65.0216 36.9286 79.6395 41.5856 82.8921 48.3286C89.293 61.5984 41.5252 61.9 41.5252 61.9V70.8571C41.5252 70.8571 88.261 84.8112 82.8921 102.343C77.0824 121.314 22 106.143 22 106.143V117H114V81.1714L70.3165 70.8571L100.763 61.9L114 22H41.5252Z" fill="#82A985" stroke="black" stroke-width="2"/>
</svg>
